<svg width="773" height="131" viewBox="0 0 773 131" fill="none" xmlns="http://www.w3.org/2000/svg">
<g filter="url(#filter0_d_4668_2569)">
<mask id="path-1-outside-1_4668_2569" maskUnits="userSpaceOnUse" x="-0.664062" y="0" width="754" height="111" fill="black">
<rect fill="white" x="-0.664062" width="754" height="111"/>
<path d="M15.3359 96.071L28.3757 17.5256H59.8246C65.603 17.5256 70.282 18.3821 73.8615 20.0952C77.4666 21.8082 79.9851 24.1861 81.4169 27.2287C82.8487 30.2457 83.2322 33.723 82.5675 37.6605C82.0305 40.7287 80.9439 43.4134 79.3075 45.7145C77.6967 48.0156 75.7024 49.9077 73.3246 51.3906C70.9467 52.8736 68.3643 53.9219 65.5774 54.5355L65.424 55.3026C68.3899 55.4304 71.0618 56.2741 73.4396 57.8338C75.8175 59.3679 77.5945 61.5412 78.7706 64.3537C79.9467 67.1662 80.2152 70.5028 79.576 74.3636C78.8857 78.5313 77.2365 82.2514 74.6286 85.5242C72.0206 88.7713 68.5433 91.3409 64.1967 93.233C59.8757 95.125 54.7749 96.071 48.8942 96.071H15.3359ZM34.2436 82.4943H47.782C52.3842 82.4943 55.8999 81.5994 58.3288 79.8097C60.7578 78.0199 62.2152 75.6548 62.701 72.7145C63.0334 70.5412 62.8161 68.6236 62.049 66.9617C61.3075 65.2997 60.0419 63.9957 58.2521 63.0497C56.4879 62.1037 54.2507 61.6307 51.5405 61.6307H37.657L34.2436 82.4943ZM39.5746 50.3935H51.8857C54.1357 50.3935 56.2195 49.9972 58.1371 49.2045C60.0803 48.3864 61.6783 47.2358 62.9311 45.7528C64.2095 44.2443 65.0149 42.4673 65.3473 40.4219C65.8075 37.5582 65.1683 35.2699 63.4297 33.5568C61.7166 31.8182 59.032 30.9489 55.3757 30.9489H42.7962L39.5746 50.3935Z"/>
<path d="M112.045 97.2216C106.036 97.2216 101.063 95.9432 97.1256 93.3864C93.1881 90.804 90.414 87.2244 88.8032 82.6477C87.2179 78.0455 86.9239 72.6889 87.9211 66.5781C88.8927 60.544 90.9125 55.2642 93.9807 50.7386C97.0489 46.2131 100.948 42.6974 105.678 40.1918C110.408 37.6605 115.739 36.3949 121.671 36.3949C127.654 36.3949 132.614 37.6861 136.552 40.2685C140.489 42.8253 143.263 46.4048 144.874 51.0071C146.485 55.6094 146.792 60.9659 145.795 67.0767C144.797 73.0852 142.752 78.3523 139.658 82.8778C136.565 87.4034 132.665 90.9318 127.961 93.4631C123.256 95.9688 117.951 97.2216 112.045 97.2216ZM113.655 84.5653C116.417 84.5653 118.859 83.7855 120.981 82.2259C123.128 80.6406 124.905 78.4929 126.312 75.7827C127.744 73.0469 128.741 69.9531 129.303 66.5014C129.866 63.1009 129.904 60.0838 129.418 57.4503C128.932 54.7912 127.91 52.6946 126.35 51.1605C124.816 49.6264 122.707 48.8594 120.022 48.8594C117.261 48.8594 114.806 49.652 112.658 51.2372C110.511 52.7969 108.734 54.9446 107.327 57.6804C105.921 60.4162 104.937 63.5227 104.374 67C103.837 70.375 103.799 73.392 104.259 76.0511C104.719 78.6847 105.729 80.7685 107.289 82.3026C108.849 83.8111 110.971 84.5653 113.655 84.5653Z"/>
<path d="M150.506 96.071L160.324 37.1619H176.164L174.438 47.4403H175.051C176.739 43.7841 179.002 41.0227 181.84 39.1563C184.703 37.2642 187.784 36.3182 191.083 36.3182C191.901 36.3182 192.757 36.3693 193.652 36.4716C194.573 36.5483 195.391 36.6761 196.107 36.8551L193.652 51.3906C192.936 51.1349 191.913 50.9304 190.584 50.777C189.28 50.598 188.04 50.5085 186.864 50.5085C184.486 50.5085 182.274 51.0327 180.229 52.081C178.183 53.1037 176.458 54.5355 175.051 56.3764C173.671 58.2173 172.763 60.3395 172.328 62.7429L166.844 96.071H150.506Z"/>
<path d="M217.568 97.2216C211.56 97.2216 206.587 95.9432 202.649 93.3864C198.712 90.804 195.938 87.2244 194.327 82.6477C192.742 78.0455 192.447 72.6889 193.445 66.5781C194.416 60.544 196.436 55.2642 199.504 50.7386C202.573 46.2131 206.472 42.6974 211.202 40.1918C215.932 37.6605 221.263 36.3949 227.195 36.3949C233.178 36.3949 238.138 37.6861 242.075 40.2685C246.013 42.8253 248.787 46.4048 250.398 51.0071C252.009 55.6094 252.315 60.9659 251.318 67.0767C250.321 73.0852 248.276 78.3523 245.182 82.8778C242.088 87.4034 238.189 90.9318 233.484 93.4631C228.78 95.9688 223.474 97.2216 217.568 97.2216ZM219.179 84.5653C221.94 84.5653 224.382 83.7855 226.504 82.2259C228.652 80.6406 230.429 78.4929 231.835 75.7827C233.267 73.0469 234.264 69.9531 234.827 66.5014C235.389 63.1009 235.428 60.0838 234.942 57.4503C234.456 54.7912 233.433 52.6946 231.874 51.1605C230.34 49.6264 228.23 48.8594 225.546 48.8594C222.784 48.8594 220.33 49.652 218.182 51.2372C216.034 52.7969 214.257 54.9446 212.851 57.6804C211.445 60.4162 210.46 63.5227 209.898 67C209.361 70.375 209.322 73.392 209.783 76.0511C210.243 78.6847 211.253 80.7685 212.813 82.3026C214.372 83.8111 216.494 84.5653 219.179 84.5653Z"/>
<path d="M256.336 96.071L269.376 17.5256H300.365C306.296 17.5256 311.167 18.6634 314.977 20.9389C318.812 23.1889 321.497 26.321 323.031 30.3352C324.591 34.3239 324.948 38.9261 324.105 44.142C323.235 49.3835 321.343 53.9986 318.429 57.9872C315.539 61.9503 311.781 65.044 307.153 67.2685C302.525 69.4929 297.181 70.6051 291.122 70.6051H271.37L273.556 57.2969H290.623C293.845 57.2969 296.593 56.7472 298.869 55.6477C301.17 54.5227 302.998 52.9759 304.353 51.0071C305.708 49.0128 306.591 46.7244 307 44.142C307.434 41.5085 307.294 39.2202 306.578 37.277C305.862 35.3338 304.545 33.8253 302.627 32.7514C300.735 31.652 298.191 31.1023 294.995 31.1023H283.796L272.943 96.071H256.336Z"/>
<path d="M324.875 96.071L334.693 37.1619H350.533L348.807 47.4403H349.421C351.108 43.7841 353.371 41.0227 356.209 39.1563C359.073 37.2642 362.154 36.3182 365.452 36.3182C366.27 36.3182 367.127 36.3693 368.022 36.4716C368.942 36.5483 369.76 36.6761 370.476 36.8551L368.022 51.3906C367.306 51.1349 366.283 50.9304 364.953 50.777C363.649 50.598 362.409 50.5085 361.233 50.5085C358.855 50.5085 356.644 51.0327 354.598 52.081C352.553 53.1037 350.827 54.5355 349.421 56.3764C348.04 58.2173 347.132 60.3395 346.698 62.7429L341.213 96.071H324.875Z"/>
<path d="M391.938 97.2216C385.904 97.2216 380.905 95.9943 376.942 93.5398C372.979 91.0597 370.192 87.5568 368.581 83.0313C366.996 78.4801 366.727 73.098 367.776 66.8849C368.798 60.8253 370.857 55.5071 373.95 50.9304C377.07 46.3537 380.982 42.7869 385.686 40.2301C390.391 37.6733 395.632 36.3949 401.411 36.3949C405.297 36.3949 408.813 37.0213 411.957 38.2742C415.128 39.5014 417.761 41.3679 419.858 43.8736C421.955 46.3537 423.386 49.4602 424.154 53.1932C424.946 56.9261 424.933 61.2983 424.115 66.3097L423.386 70.7969H373.682L375.254 60.6719H409.618C410.002 58.3196 409.848 56.2358 409.158 54.4205C408.467 52.6051 407.317 51.1861 405.706 50.1634C404.095 49.1151 402.114 48.5909 399.761 48.5909C397.358 48.5909 395.108 49.179 393.011 50.3551C390.915 51.5313 389.151 53.0781 387.719 54.9957C386.313 56.8878 385.405 58.946 384.996 61.1705L383.193 71.2188C382.682 74.3125 382.784 76.8821 383.5 78.9276C384.242 80.973 385.52 82.5071 387.335 83.5298C389.151 84.527 391.452 85.0256 394.239 85.0256C396.054 85.0256 397.754 84.7699 399.34 84.2585C400.95 83.7472 402.382 82.9929 403.635 81.9957C404.888 80.973 405.911 79.7074 406.703 78.1989L421.622 79.196C420.242 82.8267 418.145 85.9972 415.332 88.7074C412.52 91.392 409.132 93.4886 405.169 94.9972C401.232 96.4801 396.821 97.2216 391.938 97.2216Z"/>
<path d="M450.447 97.0298C445.947 97.0298 442.074 95.8793 438.827 93.5781C435.605 91.2514 433.304 87.8381 431.923 83.3381C430.568 78.8125 430.44 73.2642 431.54 66.6932C432.665 59.9432 434.685 54.331 437.599 49.8565C440.514 45.3565 443.966 41.9943 447.955 39.7699C451.943 37.5199 456.098 36.3949 460.419 36.3949C463.692 36.3949 466.338 36.9574 468.358 38.0824C470.403 39.1818 471.976 40.5625 473.075 42.2244C474.175 43.8608 474.942 45.4716 475.376 47.0568H475.875L480.822 17.5256H497.122L484.082 96.071H467.974L469.547 86.6364H468.857C467.834 88.2727 466.479 89.8963 464.791 91.5071C463.129 93.0923 461.109 94.4091 458.732 95.4574C456.379 96.5057 453.618 97.0298 450.447 97.0298ZM457.658 84.0284C460.266 84.0284 462.618 83.3125 464.715 81.8807C466.811 80.4233 468.575 78.3906 470.007 75.7827C471.439 73.1747 472.436 70.1193 472.999 66.6165C473.587 63.1136 473.599 60.071 473.037 57.4886C472.474 54.9063 471.375 52.9119 469.739 51.5057C468.128 50.0994 465.993 49.3963 463.334 49.3963C460.649 49.3963 458.271 50.125 456.2 51.5824C454.155 53.0398 452.455 55.0597 451.099 57.642C449.77 60.2244 448.824 63.2159 448.261 66.6165C447.699 70.0426 447.661 73.0724 448.146 75.706C448.632 78.3139 449.668 80.3594 451.253 81.8423C452.838 83.2997 454.973 84.0284 457.658 84.0284Z"/>
<path d="M496.397 96.071L506.215 37.1619H522.553L512.735 96.071H496.397ZM516.072 29.4915C513.643 29.4915 511.636 28.6861 510.05 27.0753C508.491 25.4389 507.851 23.4957 508.133 21.2457C508.414 18.9446 509.513 17.0014 511.431 15.4162C513.349 13.8054 515.522 13 517.951 13C520.38 13 522.361 13.8054 523.896 15.4162C525.43 17.0014 526.069 18.9446 525.813 21.2457C525.557 23.4957 524.471 25.4389 522.553 27.0753C520.661 28.6861 518.501 29.4915 516.072 29.4915Z"/>
<path d="M551.206 97.2216C545.146 97.2216 540.16 95.9432 536.248 93.3864C532.362 90.804 529.639 87.2244 528.079 82.6477C526.545 78.071 526.277 72.804 527.274 66.8466C528.246 60.8125 530.278 55.5199 533.372 50.9688C536.466 46.392 540.39 42.8253 545.146 40.2685C549.927 37.6861 555.297 36.3949 561.254 36.3949C566.393 36.3949 570.74 37.3281 574.294 39.1946C577.848 41.0611 580.456 43.6818 582.118 47.0568C583.78 50.4318 584.342 54.3949 583.805 58.946H568.426C568.452 56.0313 567.697 53.6662 566.163 51.8509C564.629 50.0355 562.379 49.1278 559.413 49.1278C556.856 49.1278 554.504 49.8182 552.356 51.1989C550.234 52.554 548.432 54.5355 546.949 57.1435C545.491 59.7514 544.469 62.9091 543.88 66.6165C543.267 70.375 543.254 73.571 543.842 76.2045C544.43 78.8381 545.555 80.8452 547.217 82.2259C548.879 83.6065 550.976 84.2969 553.507 84.2969C555.399 84.2969 557.15 83.9134 558.761 83.1463C560.398 82.3793 561.829 81.267 563.057 79.8097C564.284 78.3267 565.23 76.5497 565.895 74.4787H581.312C580.264 79.0043 578.359 82.9673 575.598 86.3679C572.862 89.7685 569.423 92.4276 565.281 94.3452C561.139 96.2628 556.447 97.2216 551.206 97.2216Z"/>
<path d="M628.201 37.1619L626.169 49.4347H590.655L592.726 37.1619H628.201ZM603.081 23.0483H619.419L610.291 77.9688C610.035 79.4773 610.074 80.6534 610.406 81.4972C610.738 82.3153 611.288 82.8906 612.055 83.223C612.848 83.5554 613.794 83.7216 614.893 83.7216C615.66 83.7216 616.44 83.6577 617.233 83.5298C618.025 83.3764 618.626 83.2614 619.035 83.1847L619.649 95.3423C618.728 95.6236 617.488 95.9304 615.929 96.2628C614.395 96.5952 612.579 96.7997 610.483 96.8764C606.494 97.0298 603.119 96.5057 600.358 95.304C597.596 94.0767 595.615 92.1974 594.413 89.6662C593.211 87.1349 592.956 83.9517 593.646 80.1165L603.081 23.0483Z"/>
<path d="M654.006 97.2216C647.998 97.2216 643.025 95.9432 639.087 93.3864C635.15 90.804 632.376 87.2244 630.765 82.6477C629.18 78.0455 628.886 72.6889 629.883 66.5781C630.854 60.544 632.874 55.2642 635.942 50.7386C639.011 46.2131 642.91 42.6974 647.64 40.1918C652.37 37.6605 657.701 36.3949 663.633 36.3949C669.616 36.3949 674.576 37.6861 678.513 40.2685C682.451 42.8253 685.225 46.4048 686.836 51.0071C688.447 55.6094 688.754 60.9659 687.756 67.0767C686.759 73.0852 684.714 78.3523 681.62 82.8778C678.526 87.4034 674.627 90.9318 669.923 93.4631C665.218 95.9688 659.913 97.2216 654.006 97.2216ZM655.617 84.5653C658.378 84.5653 660.82 83.7855 662.942 82.2259C665.09 80.6406 666.867 78.4929 668.273 75.7827C669.705 73.0469 670.702 69.9531 671.265 66.5014C671.827 63.1009 671.866 60.0838 671.38 57.4503C670.894 54.7912 669.871 52.6946 668.312 51.1605C666.778 49.6264 664.668 48.8594 661.984 48.8594C659.222 48.8594 656.768 49.652 654.62 51.2372C652.472 52.7969 650.695 54.9446 649.289 57.6804C647.883 60.4162 646.898 63.5227 646.336 67C645.799 70.375 645.761 73.392 646.221 76.0511C646.681 78.6847 647.691 80.7685 649.251 82.3026C650.81 83.8111 652.932 84.5653 655.617 84.5653Z"/>
<path d="M692.468 96.071L702.286 37.1619H718.125L716.399 47.4403H717.013C718.701 43.7841 720.963 41.0227 723.801 39.1563C726.665 37.2642 729.746 36.3182 733.044 36.3182C733.862 36.3182 734.719 36.3693 735.614 36.4716C736.534 36.5483 737.352 36.6761 738.068 36.8551L735.614 51.3906C734.898 51.1349 733.875 50.9304 732.546 50.777C731.242 50.598 730.002 50.5085 728.826 50.5085C726.448 50.5085 724.236 51.0327 722.191 52.081C720.145 53.1037 718.419 54.5355 717.013 56.3764C715.632 58.2173 714.725 60.3395 714.29 62.7429L708.806 96.071H692.468Z"/>
</mask>
<path d="M15.3359 96.071L28.3757 17.5256H59.8246C65.603 17.5256 70.282 18.3821 73.8615 20.0952C77.4666 21.8082 79.9851 24.1861 81.4169 27.2287C82.8487 30.2457 83.2322 33.723 82.5675 37.6605C82.0305 40.7287 80.9439 43.4134 79.3075 45.7145C77.6967 48.0156 75.7024 49.9077 73.3246 51.3906C70.9467 52.8736 68.3643 53.9219 65.5774 54.5355L65.424 55.3026C68.3899 55.4304 71.0618 56.2741 73.4396 57.8338C75.8175 59.3679 77.5945 61.5412 78.7706 64.3537C79.9467 67.1662 80.2152 70.5028 79.576 74.3636C78.8857 78.5313 77.2365 82.2514 74.6286 85.5242C72.0206 88.7713 68.5433 91.3409 64.1967 93.233C59.8757 95.125 54.7749 96.071 48.8942 96.071H15.3359ZM34.2436 82.4943H47.782C52.3842 82.4943 55.8999 81.5994 58.3288 79.8097C60.7578 78.0199 62.2152 75.6548 62.701 72.7145C63.0334 70.5412 62.8161 68.6236 62.049 66.9617C61.3075 65.2997 60.0419 63.9957 58.2521 63.0497C56.4879 62.1037 54.2507 61.6307 51.5405 61.6307H37.657L34.2436 82.4943ZM39.5746 50.3935H51.8857C54.1357 50.3935 56.2195 49.9972 58.1371 49.2045C60.0803 48.3864 61.6783 47.2358 62.9311 45.7528C64.2095 44.2443 65.0149 42.4673 65.3473 40.4219C65.8075 37.5582 65.1683 35.2699 63.4297 33.5568C61.7166 31.8182 59.032 30.9489 55.3757 30.9489H42.7962L39.5746 50.3935Z" fill="white"/>
<path d="M112.045 97.2216C106.036 97.2216 101.063 95.9432 97.1256 93.3864C93.1881 90.804 90.414 87.2244 88.8032 82.6477C87.2179 78.0455 86.9239 72.6889 87.9211 66.5781C88.8927 60.544 90.9125 55.2642 93.9807 50.7386C97.0489 46.2131 100.948 42.6974 105.678 40.1918C110.408 37.6605 115.739 36.3949 121.671 36.3949C127.654 36.3949 132.614 37.6861 136.552 40.2685C140.489 42.8253 143.263 46.4048 144.874 51.0071C146.485 55.6094 146.792 60.9659 145.795 67.0767C144.797 73.0852 142.752 78.3523 139.658 82.8778C136.565 87.4034 132.665 90.9318 127.961 93.4631C123.256 95.9688 117.951 97.2216 112.045 97.2216ZM113.655 84.5653C116.417 84.5653 118.859 83.7855 120.981 82.2259C123.128 80.6406 124.905 78.4929 126.312 75.7827C127.744 73.0469 128.741 69.9531 129.303 66.5014C129.866 63.1009 129.904 60.0838 129.418 57.4503C128.932 54.7912 127.91 52.6946 126.35 51.1605C124.816 49.6264 122.707 48.8594 120.022 48.8594C117.261 48.8594 114.806 49.652 112.658 51.2372C110.511 52.7969 108.734 54.9446 107.327 57.6804C105.921 60.4162 104.937 63.5227 104.374 67C103.837 70.375 103.799 73.392 104.259 76.0511C104.719 78.6847 105.729 80.7685 107.289 82.3026C108.849 83.8111 110.971 84.5653 113.655 84.5653Z" fill="white"/>
<path d="M150.506 96.071L160.324 37.1619H176.164L174.438 47.4403H175.051C176.739 43.7841 179.002 41.0227 181.84 39.1563C184.703 37.2642 187.784 36.3182 191.083 36.3182C191.901 36.3182 192.757 36.3693 193.652 36.4716C194.573 36.5483 195.391 36.6761 196.107 36.8551L193.652 51.3906C192.936 51.1349 191.913 50.9304 190.584 50.777C189.28 50.598 188.04 50.5085 186.864 50.5085C184.486 50.5085 182.274 51.0327 180.229 52.081C178.183 53.1037 176.458 54.5355 175.051 56.3764C173.671 58.2173 172.763 60.3395 172.328 62.7429L166.844 96.071H150.506Z" fill="white"/>
<path d="M217.568 97.2216C211.56 97.2216 206.587 95.9432 202.649 93.3864C198.712 90.804 195.938 87.2244 194.327 82.6477C192.742 78.0455 192.447 72.6889 193.445 66.5781C194.416 60.544 196.436 55.2642 199.504 50.7386C202.573 46.2131 206.472 42.6974 211.202 40.1918C215.932 37.6605 221.263 36.3949 227.195 36.3949C233.178 36.3949 238.138 37.6861 242.075 40.2685C246.013 42.8253 248.787 46.4048 250.398 51.0071C252.009 55.6094 252.315 60.9659 251.318 67.0767C250.321 73.0852 248.276 78.3523 245.182 82.8778C242.088 87.4034 238.189 90.9318 233.484 93.4631C228.78 95.9688 223.474 97.2216 217.568 97.2216ZM219.179 84.5653C221.94 84.5653 224.382 83.7855 226.504 82.2259C228.652 80.6406 230.429 78.4929 231.835 75.7827C233.267 73.0469 234.264 69.9531 234.827 66.5014C235.389 63.1009 235.428 60.0838 234.942 57.4503C234.456 54.7912 233.433 52.6946 231.874 51.1605C230.34 49.6264 228.23 48.8594 225.546 48.8594C222.784 48.8594 220.33 49.652 218.182 51.2372C216.034 52.7969 214.257 54.9446 212.851 57.6804C211.445 60.4162 210.46 63.5227 209.898 67C209.361 70.375 209.322 73.392 209.783 76.0511C210.243 78.6847 211.253 80.7685 212.813 82.3026C214.372 83.8111 216.494 84.5653 219.179 84.5653Z" fill="white"/>
<path d="M256.336 96.071L269.376 17.5256H300.365C306.296 17.5256 311.167 18.6634 314.977 20.9389C318.812 23.1889 321.497 26.321 323.031 30.3352C324.591 34.3239 324.948 38.9261 324.105 44.142C323.235 49.3835 321.343 53.9986 318.429 57.9872C315.539 61.9503 311.781 65.044 307.153 67.2685C302.525 69.4929 297.181 70.6051 291.122 70.6051H271.37L273.556 57.2969H290.623C293.845 57.2969 296.593 56.7472 298.869 55.6477C301.17 54.5227 302.998 52.9759 304.353 51.0071C305.708 49.0128 306.591 46.7244 307 44.142C307.434 41.5085 307.294 39.2202 306.578 37.277C305.862 35.3338 304.545 33.8253 302.627 32.7514C300.735 31.652 298.191 31.1023 294.995 31.1023H283.796L272.943 96.071H256.336Z" fill="white"/>
<path d="M324.875 96.071L334.693 37.1619H350.533L348.807 47.4403H349.421C351.108 43.7841 353.371 41.0227 356.209 39.1563C359.073 37.2642 362.154 36.3182 365.452 36.3182C366.27 36.3182 367.127 36.3693 368.022 36.4716C368.942 36.5483 369.76 36.6761 370.476 36.8551L368.022 51.3906C367.306 51.1349 366.283 50.9304 364.953 50.777C363.649 50.598 362.409 50.5085 361.233 50.5085C358.855 50.5085 356.644 51.0327 354.598 52.081C352.553 53.1037 350.827 54.5355 349.421 56.3764C348.04 58.2173 347.132 60.3395 346.698 62.7429L341.213 96.071H324.875Z" fill="white"/>
<path d="M391.938 97.2216C385.904 97.2216 380.905 95.9943 376.942 93.5398C372.979 91.0597 370.192 87.5568 368.581 83.0313C366.996 78.4801 366.727 73.098 367.776 66.8849C368.798 60.8253 370.857 55.5071 373.95 50.9304C377.07 46.3537 380.982 42.7869 385.686 40.2301C390.391 37.6733 395.632 36.3949 401.411 36.3949C405.297 36.3949 408.813 37.0213 411.957 38.2742C415.128 39.5014 417.761 41.3679 419.858 43.8736C421.955 46.3537 423.386 49.4602 424.154 53.1932C424.946 56.9261 424.933 61.2983 424.115 66.3097L423.386 70.7969H373.682L375.254 60.6719H409.618C410.002 58.3196 409.848 56.2358 409.158 54.4205C408.467 52.6051 407.317 51.1861 405.706 50.1634C404.095 49.1151 402.114 48.5909 399.761 48.5909C397.358 48.5909 395.108 49.179 393.011 50.3551C390.915 51.5313 389.151 53.0781 387.719 54.9957C386.313 56.8878 385.405 58.946 384.996 61.1705L383.193 71.2188C382.682 74.3125 382.784 76.8821 383.5 78.9276C384.242 80.973 385.52 82.5071 387.335 83.5298C389.151 84.527 391.452 85.0256 394.239 85.0256C396.054 85.0256 397.754 84.7699 399.34 84.2585C400.95 83.7472 402.382 82.9929 403.635 81.9957C404.888 80.973 405.911 79.7074 406.703 78.1989L421.622 79.196C420.242 82.8267 418.145 85.9972 415.332 88.7074C412.52 91.392 409.132 93.4886 405.169 94.9972C401.232 96.4801 396.821 97.2216 391.938 97.2216Z" fill="white"/>
<path d="M450.447 97.0298C445.947 97.0298 442.074 95.8793 438.827 93.5781C435.605 91.2514 433.304 87.8381 431.923 83.3381C430.568 78.8125 430.44 73.2642 431.54 66.6932C432.665 59.9432 434.685 54.331 437.599 49.8565C440.514 45.3565 443.966 41.9943 447.955 39.7699C451.943 37.5199 456.098 36.3949 460.419 36.3949C463.692 36.3949 466.338 36.9574 468.358 38.0824C470.403 39.1818 471.976 40.5625 473.075 42.2244C474.175 43.8608 474.942 45.4716 475.376 47.0568H475.875L480.822 17.5256H497.122L484.082 96.071H467.974L469.547 86.6364H468.857C467.834 88.2727 466.479 89.8963 464.791 91.5071C463.129 93.0923 461.109 94.4091 458.732 95.4574C456.379 96.5057 453.618 97.0298 450.447 97.0298ZM457.658 84.0284C460.266 84.0284 462.618 83.3125 464.715 81.8807C466.811 80.4233 468.575 78.3906 470.007 75.7827C471.439 73.1747 472.436 70.1193 472.999 66.6165C473.587 63.1136 473.599 60.071 473.037 57.4886C472.474 54.9063 471.375 52.9119 469.739 51.5057C468.128 50.0994 465.993 49.3963 463.334 49.3963C460.649 49.3963 458.271 50.125 456.2 51.5824C454.155 53.0398 452.455 55.0597 451.099 57.642C449.77 60.2244 448.824 63.2159 448.261 66.6165C447.699 70.0426 447.661 73.0724 448.146 75.706C448.632 78.3139 449.668 80.3594 451.253 81.8423C452.838 83.2997 454.973 84.0284 457.658 84.0284Z" fill="white"/>
<path d="M496.397 96.071L506.215 37.1619H522.553L512.735 96.071H496.397ZM516.072 29.4915C513.643 29.4915 511.636 28.6861 510.05 27.0753C508.491 25.4389 507.851 23.4957 508.133 21.2457C508.414 18.9446 509.513 17.0014 511.431 15.4162C513.349 13.8054 515.522 13 517.951 13C520.38 13 522.361 13.8054 523.896 15.4162C525.43 17.0014 526.069 18.9446 525.813 21.2457C525.557 23.4957 524.471 25.4389 522.553 27.0753C520.661 28.6861 518.501 29.4915 516.072 29.4915Z" fill="white"/>
<path d="M551.206 97.2216C545.146 97.2216 540.16 95.9432 536.248 93.3864C532.362 90.804 529.639 87.2244 528.079 82.6477C526.545 78.071 526.277 72.804 527.274 66.8466C528.246 60.8125 530.278 55.5199 533.372 50.9688C536.466 46.392 540.39 42.8253 545.146 40.2685C549.927 37.6861 555.297 36.3949 561.254 36.3949C566.393 36.3949 570.74 37.3281 574.294 39.1946C577.848 41.0611 580.456 43.6818 582.118 47.0568C583.78 50.4318 584.342 54.3949 583.805 58.946H568.426C568.452 56.0313 567.697 53.6662 566.163 51.8509C564.629 50.0355 562.379 49.1278 559.413 49.1278C556.856 49.1278 554.504 49.8182 552.356 51.1989C550.234 52.554 548.432 54.5355 546.949 57.1435C545.491 59.7514 544.469 62.9091 543.88 66.6165C543.267 70.375 543.254 73.571 543.842 76.2045C544.43 78.8381 545.555 80.8452 547.217 82.2259C548.879 83.6065 550.976 84.2969 553.507 84.2969C555.399 84.2969 557.15 83.9134 558.761 83.1463C560.398 82.3793 561.829 81.267 563.057 79.8097C564.284 78.3267 565.23 76.5497 565.895 74.4787H581.312C580.264 79.0043 578.359 82.9673 575.598 86.3679C572.862 89.7685 569.423 92.4276 565.281 94.3452C561.139 96.2628 556.447 97.2216 551.206 97.2216Z" fill="white"/>
<path d="M628.201 37.1619L626.169 49.4347H590.655L592.726 37.1619H628.201ZM603.081 23.0483H619.419L610.291 77.9688C610.035 79.4773 610.074 80.6534 610.406 81.4972C610.738 82.3153 611.288 82.8906 612.055 83.223C612.848 83.5554 613.794 83.7216 614.893 83.7216C615.66 83.7216 616.44 83.6577 617.233 83.5298C618.025 83.3764 618.626 83.2614 619.035 83.1847L619.649 95.3423C618.728 95.6236 617.488 95.9304 615.929 96.2628C614.395 96.5952 612.579 96.7997 610.483 96.8764C606.494 97.0298 603.119 96.5057 600.358 95.304C597.596 94.0767 595.615 92.1974 594.413 89.6662C593.211 87.1349 592.956 83.9517 593.646 80.1165L603.081 23.0483Z" fill="white"/>
<path d="M654.006 97.2216C647.998 97.2216 643.025 95.9432 639.087 93.3864C635.15 90.804 632.376 87.2244 630.765 82.6477C629.18 78.0455 628.886 72.6889 629.883 66.5781C630.854 60.544 632.874 55.2642 635.942 50.7386C639.011 46.2131 642.91 42.6974 647.64 40.1918C652.37 37.6605 657.701 36.3949 663.633 36.3949C669.616 36.3949 674.576 37.6861 678.513 40.2685C682.451 42.8253 685.225 46.4048 686.836 51.0071C688.447 55.6094 688.754 60.9659 687.756 67.0767C686.759 73.0852 684.714 78.3523 681.62 82.8778C678.526 87.4034 674.627 90.9318 669.923 93.4631C665.218 95.9688 659.913 97.2216 654.006 97.2216ZM655.617 84.5653C658.378 84.5653 660.82 83.7855 662.942 82.2259C665.09 80.6406 666.867 78.4929 668.273 75.7827C669.705 73.0469 670.702 69.9531 671.265 66.5014C671.827 63.1009 671.866 60.0838 671.38 57.4503C670.894 54.7912 669.871 52.6946 668.312 51.1605C666.778 49.6264 664.668 48.8594 661.984 48.8594C659.222 48.8594 656.768 49.652 654.62 51.2372C652.472 52.7969 650.695 54.9446 649.289 57.6804C647.883 60.4162 646.898 63.5227 646.336 67C645.799 70.375 645.761 73.392 646.221 76.0511C646.681 78.6847 647.691 80.7685 649.251 82.3026C650.81 83.8111 652.932 84.5653 655.617 84.5653Z" fill="white"/>
<path d="M692.468 96.071L702.286 37.1619H718.125L716.399 47.4403H717.013C718.701 43.7841 720.963 41.0227 723.801 39.1563C726.665 37.2642 729.746 36.3182 733.044 36.3182C733.862 36.3182 734.719 36.3693 735.614 36.4716C736.534 36.5483 737.352 36.6761 738.068 36.8551L735.614 51.3906C734.898 51.1349 733.875 50.9304 732.546 50.777C731.242 50.598 730.002 50.5085 728.826 50.5085C726.448 50.5085 724.236 51.0327 722.191 52.081C720.145 53.1037 718.419 54.5355 717.013 56.3764C715.632 58.2173 714.725 60.3395 714.29 62.7429L708.806 96.071H692.468Z" fill="white"/>
<path d="M15.3359 96.071L28.3757 17.5256H59.8246C65.603 17.5256 70.282 18.3821 73.8615 20.0952C77.4666 21.8082 79.9851 24.1861 81.4169 27.2287C82.8487 30.2457 83.2322 33.723 82.5675 37.6605C82.0305 40.7287 80.9439 43.4134 79.3075 45.7145C77.6967 48.0156 75.7024 49.9077 73.3246 51.3906C70.9467 52.8736 68.3643 53.9219 65.5774 54.5355L65.424 55.3026C68.3899 55.4304 71.0618 56.2741 73.4396 57.8338C75.8175 59.3679 77.5945 61.5412 78.7706 64.3537C79.9467 67.1662 80.2152 70.5028 79.576 74.3636C78.8857 78.5313 77.2365 82.2514 74.6286 85.5242C72.0206 88.7713 68.5433 91.3409 64.1967 93.233C59.8757 95.125 54.7749 96.071 48.8942 96.071H15.3359ZM34.2436 82.4943H47.782C52.3842 82.4943 55.8999 81.5994 58.3288 79.8097C60.7578 78.0199 62.2152 75.6548 62.701 72.7145C63.0334 70.5412 62.8161 68.6236 62.049 66.9617C61.3075 65.2997 60.0419 63.9957 58.2521 63.0497C56.4879 62.1037 54.2507 61.6307 51.5405 61.6307H37.657L34.2436 82.4943ZM39.5746 50.3935H51.8857C54.1357 50.3935 56.2195 49.9972 58.1371 49.2045C60.0803 48.3864 61.6783 47.2358 62.9311 45.7528C64.2095 44.2443 65.0149 42.4673 65.3473 40.4219C65.8075 37.5582 65.1683 35.2699 63.4297 33.5568C61.7166 31.8182 59.032 30.9489 55.3757 30.9489H42.7962L39.5746 50.3935Z" stroke="black" stroke-width="26" mask="url(#path-1-outside-1_4668_2569)"/>
<path d="M112.045 97.2216C106.036 97.2216 101.063 95.9432 97.1256 93.3864C93.1881 90.804 90.414 87.2244 88.8032 82.6477C87.2179 78.0455 86.9239 72.6889 87.9211 66.5781C88.8927 60.544 90.9125 55.2642 93.9807 50.7386C97.0489 46.2131 100.948 42.6974 105.678 40.1918C110.408 37.6605 115.739 36.3949 121.671 36.3949C127.654 36.3949 132.614 37.6861 136.552 40.2685C140.489 42.8253 143.263 46.4048 144.874 51.0071C146.485 55.6094 146.792 60.9659 145.795 67.0767C144.797 73.0852 142.752 78.3523 139.658 82.8778C136.565 87.4034 132.665 90.9318 127.961 93.4631C123.256 95.9688 117.951 97.2216 112.045 97.2216ZM113.655 84.5653C116.417 84.5653 118.859 83.7855 120.981 82.2259C123.128 80.6406 124.905 78.4929 126.312 75.7827C127.744 73.0469 128.741 69.9531 129.303 66.5014C129.866 63.1009 129.904 60.0838 129.418 57.4503C128.932 54.7912 127.91 52.6946 126.35 51.1605C124.816 49.6264 122.707 48.8594 120.022 48.8594C117.261 48.8594 114.806 49.652 112.658 51.2372C110.511 52.7969 108.734 54.9446 107.327 57.6804C105.921 60.4162 104.937 63.5227 104.374 67C103.837 70.375 103.799 73.392 104.259 76.0511C104.719 78.6847 105.729 80.7685 107.289 82.3026C108.849 83.8111 110.971 84.5653 113.655 84.5653Z" stroke="black" stroke-width="26" mask="url(#path-1-outside-1_4668_2569)"/>
<path d="M150.506 96.071L160.324 37.1619H176.164L174.438 47.4403H175.051C176.739 43.7841 179.002 41.0227 181.84 39.1563C184.703 37.2642 187.784 36.3182 191.083 36.3182C191.901 36.3182 192.757 36.3693 193.652 36.4716C194.573 36.5483 195.391 36.6761 196.107 36.8551L193.652 51.3906C192.936 51.1349 191.913 50.9304 190.584 50.777C189.28 50.598 188.04 50.5085 186.864 50.5085C184.486 50.5085 182.274 51.0327 180.229 52.081C178.183 53.1037 176.458 54.5355 175.051 56.3764C173.671 58.2173 172.763 60.3395 172.328 62.7429L166.844 96.071H150.506Z" stroke="black" stroke-width="26" mask="url(#path-1-outside-1_4668_2569)"/>
<path d="M217.568 97.2216C211.56 97.2216 206.587 95.9432 202.649 93.3864C198.712 90.804 195.938 87.2244 194.327 82.6477C192.742 78.0455 192.447 72.6889 193.445 66.5781C194.416 60.544 196.436 55.2642 199.504 50.7386C202.573 46.2131 206.472 42.6974 211.202 40.1918C215.932 37.6605 221.263 36.3949 227.195 36.3949C233.178 36.3949 238.138 37.6861 242.075 40.2685C246.013 42.8253 248.787 46.4048 250.398 51.0071C252.009 55.6094 252.315 60.9659 251.318 67.0767C250.321 73.0852 248.276 78.3523 245.182 82.8778C242.088 87.4034 238.189 90.9318 233.484 93.4631C228.78 95.9688 223.474 97.2216 217.568 97.2216ZM219.179 84.5653C221.94 84.5653 224.382 83.7855 226.504 82.2259C228.652 80.6406 230.429 78.4929 231.835 75.7827C233.267 73.0469 234.264 69.9531 234.827 66.5014C235.389 63.1009 235.428 60.0838 234.942 57.4503C234.456 54.7912 233.433 52.6946 231.874 51.1605C230.34 49.6264 228.23 48.8594 225.546 48.8594C222.784 48.8594 220.33 49.652 218.182 51.2372C216.034 52.7969 214.257 54.9446 212.851 57.6804C211.445 60.4162 210.46 63.5227 209.898 67C209.361 70.375 209.322 73.392 209.783 76.0511C210.243 78.6847 211.253 80.7685 212.813 82.3026C214.372 83.8111 216.494 84.5653 219.179 84.5653Z" stroke="black" stroke-width="26" mask="url(#path-1-outside-1_4668_2569)"/>
<path d="M256.336 96.071L269.376 17.5256H300.365C306.296 17.5256 311.167 18.6634 314.977 20.9389C318.812 23.1889 321.497 26.321 323.031 30.3352C324.591 34.3239 324.948 38.9261 324.105 44.142C323.235 49.3835 321.343 53.9986 318.429 57.9872C315.539 61.9503 311.781 65.044 307.153 67.2685C302.525 69.4929 297.181 70.6051 291.122 70.6051H271.37L273.556 57.2969H290.623C293.845 57.2969 296.593 56.7472 298.869 55.6477C301.17 54.5227 302.998 52.9759 304.353 51.0071C305.708 49.0128 306.591 46.7244 307 44.142C307.434 41.5085 307.294 39.2202 306.578 37.277C305.862 35.3338 304.545 33.8253 302.627 32.7514C300.735 31.652 298.191 31.1023 294.995 31.1023H283.796L272.943 96.071H256.336Z" stroke="black" stroke-width="26" mask="url(#path-1-outside-1_4668_2569)"/>
<path d="M324.875 96.071L334.693 37.1619H350.533L348.807 47.4403H349.421C351.108 43.7841 353.371 41.0227 356.209 39.1563C359.073 37.2642 362.154 36.3182 365.452 36.3182C366.27 36.3182 367.127 36.3693 368.022 36.4716C368.942 36.5483 369.76 36.6761 370.476 36.8551L368.022 51.3906C367.306 51.1349 366.283 50.9304 364.953 50.777C363.649 50.598 362.409 50.5085 361.233 50.5085C358.855 50.5085 356.644 51.0327 354.598 52.081C352.553 53.1037 350.827 54.5355 349.421 56.3764C348.04 58.2173 347.132 60.3395 346.698 62.7429L341.213 96.071H324.875Z" stroke="black" stroke-width="26" mask="url(#path-1-outside-1_4668_2569)"/>
<path d="M391.938 97.2216C385.904 97.2216 380.905 95.9943 376.942 93.5398C372.979 91.0597 370.192 87.5568 368.581 83.0313C366.996 78.4801 366.727 73.098 367.776 66.8849C368.798 60.8253 370.857 55.5071 373.95 50.9304C377.07 46.3537 380.982 42.7869 385.686 40.2301C390.391 37.6733 395.632 36.3949 401.411 36.3949C405.297 36.3949 408.813 37.0213 411.957 38.2742C415.128 39.5014 417.761 41.3679 419.858 43.8736C421.955 46.3537 423.386 49.4602 424.154 53.1932C424.946 56.9261 424.933 61.2983 424.115 66.3097L423.386 70.7969H373.682L375.254 60.6719H409.618C410.002 58.3196 409.848 56.2358 409.158 54.4205C408.467 52.6051 407.317 51.1861 405.706 50.1634C404.095 49.1151 402.114 48.5909 399.761 48.5909C397.358 48.5909 395.108 49.179 393.011 50.3551C390.915 51.5313 389.151 53.0781 387.719 54.9957C386.313 56.8878 385.405 58.946 384.996 61.1705L383.193 71.2188C382.682 74.3125 382.784 76.8821 383.5 78.9276C384.242 80.973 385.52 82.5071 387.335 83.5298C389.151 84.527 391.452 85.0256 394.239 85.0256C396.054 85.0256 397.754 84.7699 399.34 84.2585C400.95 83.7472 402.382 82.9929 403.635 81.9957C404.888 80.973 405.911 79.7074 406.703 78.1989L421.622 79.196C420.242 82.8267 418.145 85.9972 415.332 88.7074C412.52 91.392 409.132 93.4886 405.169 94.9972C401.232 96.4801 396.821 97.2216 391.938 97.2216Z" stroke="black" stroke-width="26" mask="url(#path-1-outside-1_4668_2569)"/>
<path d="M450.447 97.0298C445.947 97.0298 442.074 95.8793 438.827 93.5781C435.605 91.2514 433.304 87.8381 431.923 83.3381C430.568 78.8125 430.44 73.2642 431.54 66.6932C432.665 59.9432 434.685 54.331 437.599 49.8565C440.514 45.3565 443.966 41.9943 447.955 39.7699C451.943 37.5199 456.098 36.3949 460.419 36.3949C463.692 36.3949 466.338 36.9574 468.358 38.0824C470.403 39.1818 471.976 40.5625 473.075 42.2244C474.175 43.8608 474.942 45.4716 475.376 47.0568H475.875L480.822 17.5256H497.122L484.082 96.071H467.974L469.547 86.6364H468.857C467.834 88.2727 466.479 89.8963 464.791 91.5071C463.129 93.0923 461.109 94.4091 458.732 95.4574C456.379 96.5057 453.618 97.0298 450.447 97.0298ZM457.658 84.0284C460.266 84.0284 462.618 83.3125 464.715 81.8807C466.811 80.4233 468.575 78.3906 470.007 75.7827C471.439 73.1747 472.436 70.1193 472.999 66.6165C473.587 63.1136 473.599 60.071 473.037 57.4886C472.474 54.9063 471.375 52.9119 469.739 51.5057C468.128 50.0994 465.993 49.3963 463.334 49.3963C460.649 49.3963 458.271 50.125 456.2 51.5824C454.155 53.0398 452.455 55.0597 451.099 57.642C449.77 60.2244 448.824 63.2159 448.261 66.6165C447.699 70.0426 447.661 73.0724 448.146 75.706C448.632 78.3139 449.668 80.3594 451.253 81.8423C452.838 83.2997 454.973 84.0284 457.658 84.0284Z" stroke="black" stroke-width="26" mask="url(#path-1-outside-1_4668_2569)"/>
<path d="M496.397 96.071L506.215 37.1619H522.553L512.735 96.071H496.397ZM516.072 29.4915C513.643 29.4915 511.636 28.6861 510.05 27.0753C508.491 25.4389 507.851 23.4957 508.133 21.2457C508.414 18.9446 509.513 17.0014 511.431 15.4162C513.349 13.8054 515.522 13 517.951 13C520.38 13 522.361 13.8054 523.896 15.4162C525.43 17.0014 526.069 18.9446 525.813 21.2457C525.557 23.4957 524.471 25.4389 522.553 27.0753C520.661 28.6861 518.501 29.4915 516.072 29.4915Z" stroke="black" stroke-width="26" mask="url(#path-1-outside-1_4668_2569)"/>
<path d="M551.206 97.2216C545.146 97.2216 540.16 95.9432 536.248 93.3864C532.362 90.804 529.639 87.2244 528.079 82.6477C526.545 78.071 526.277 72.804 527.274 66.8466C528.246 60.8125 530.278 55.5199 533.372 50.9688C536.466 46.392 540.39 42.8253 545.146 40.2685C549.927 37.6861 555.297 36.3949 561.254 36.3949C566.393 36.3949 570.74 37.3281 574.294 39.1946C577.848 41.0611 580.456 43.6818 582.118 47.0568C583.78 50.4318 584.342 54.3949 583.805 58.946H568.426C568.452 56.0313 567.697 53.6662 566.163 51.8509C564.629 50.0355 562.379 49.1278 559.413 49.1278C556.856 49.1278 554.504 49.8182 552.356 51.1989C550.234 52.554 548.432 54.5355 546.949 57.1435C545.491 59.7514 544.469 62.9091 543.88 66.6165C543.267 70.375 543.254 73.571 543.842 76.2045C544.43 78.8381 545.555 80.8452 547.217 82.2259C548.879 83.6065 550.976 84.2969 553.507 84.2969C555.399 84.2969 557.15 83.9134 558.761 83.1463C560.398 82.3793 561.829 81.267 563.057 79.8097C564.284 78.3267 565.23 76.5497 565.895 74.4787H581.312C580.264 79.0043 578.359 82.9673 575.598 86.3679C572.862 89.7685 569.423 92.4276 565.281 94.3452C561.139 96.2628 556.447 97.2216 551.206 97.2216Z" stroke="black" stroke-width="26" mask="url(#path-1-outside-1_4668_2569)"/>
<path d="M628.201 37.1619L626.169 49.4347H590.655L592.726 37.1619H628.201ZM603.081 23.0483H619.419L610.291 77.9688C610.035 79.4773 610.074 80.6534 610.406 81.4972C610.738 82.3153 611.288 82.8906 612.055 83.223C612.848 83.5554 613.794 83.7216 614.893 83.7216C615.66 83.7216 616.44 83.6577 617.233 83.5298C618.025 83.3764 618.626 83.2614 619.035 83.1847L619.649 95.3423C618.728 95.6236 617.488 95.9304 615.929 96.2628C614.395 96.5952 612.579 96.7997 610.483 96.8764C606.494 97.0298 603.119 96.5057 600.358 95.304C597.596 94.0767 595.615 92.1974 594.413 89.6662C593.211 87.1349 592.956 83.9517 593.646 80.1165L603.081 23.0483Z" stroke="black" stroke-width="26" mask="url(#path-1-outside-1_4668_2569)"/>
<path d="M654.006 97.2216C647.998 97.2216 643.025 95.9432 639.087 93.3864C635.15 90.804 632.376 87.2244 630.765 82.6477C629.18 78.0455 628.886 72.6889 629.883 66.5781C630.854 60.544 632.874 55.2642 635.942 50.7386C639.011 46.2131 642.91 42.6974 647.64 40.1918C652.37 37.6605 657.701 36.3949 663.633 36.3949C669.616 36.3949 674.576 37.6861 678.513 40.2685C682.451 42.8253 685.225 46.4048 686.836 51.0071C688.447 55.6094 688.754 60.9659 687.756 67.0767C686.759 73.0852 684.714 78.3523 681.62 82.8778C678.526 87.4034 674.627 90.9318 669.923 93.4631C665.218 95.9688 659.913 97.2216 654.006 97.2216ZM655.617 84.5653C658.378 84.5653 660.82 83.7855 662.942 82.2259C665.09 80.6406 666.867 78.4929 668.273 75.7827C669.705 73.0469 670.702 69.9531 671.265 66.5014C671.827 63.1009 671.866 60.0838 671.38 57.4503C670.894 54.7912 669.871 52.6946 668.312 51.1605C666.778 49.6264 664.668 48.8594 661.984 48.8594C659.222 48.8594 656.768 49.652 654.62 51.2372C652.472 52.7969 650.695 54.9446 649.289 57.6804C647.883 60.4162 646.898 63.5227 646.336 67C645.799 70.375 645.761 73.392 646.221 76.0511C646.681 78.6847 647.691 80.7685 649.251 82.3026C650.81 83.8111 652.932 84.5653 655.617 84.5653Z" stroke="black" stroke-width="26" mask="url(#path-1-outside-1_4668_2569)"/>
<path d="M692.468 96.071L702.286 37.1619H718.125L716.399 47.4403H717.013C718.701 43.7841 720.963 41.0227 723.801 39.1563C726.665 37.2642 729.746 36.3182 733.044 36.3182C733.862 36.3182 734.719 36.3693 735.614 36.4716C736.534 36.5483 737.352 36.6761 738.068 36.8551L735.614 51.3906C734.898 51.1349 733.875 50.9304 732.546 50.777C731.242 50.598 730.002 50.5085 728.826 50.5085C726.448 50.5085 724.236 51.0327 722.191 52.081C720.145 53.1037 718.419 54.5355 717.013 56.3764C715.632 58.2173 714.725 60.3395 714.29 62.7429L708.806 96.071H692.468Z" stroke="black" stroke-width="26" mask="url(#path-1-outside-1_4668_2569)"/>
</g>
<defs>
<filter id="filter0_d_4668_2569" x="0" y="0" width="772.891" height="130.219" filterUnits="userSpaceOnUse" color-interpolation-filters="sRGB">
<feFlood flood-opacity="0" result="BackgroundImageFix"/>
<feColorMatrix in="SourceAlpha" type="matrix" values="0 0 0 0 0 0 0 0 0 0 0 0 0 0 0 0 0 0 127 0" result="hardAlpha"/>
<feOffset dx="16" dy="16"/>
<feGaussianBlur stdDeviation="2"/>
<feComposite in2="hardAlpha" operator="out"/>
<feColorMatrix type="matrix" values="0 0 0 0 0 0 0 0 0 0 0 0 0 0 0 0 0 0 0.25 0"/>
<feBlend mode="normal" in2="BackgroundImageFix" result="effect1_dropShadow_4668_2569"/>
<feBlend mode="normal" in="SourceGraphic" in2="effect1_dropShadow_4668_2569" result="shape"/>
</filter>
</defs>
</svg>
