<svg width="1166" height="239" viewBox="0 0 1166 239" fill="none" xmlns="http://www.w3.org/2000/svg">
<g filter="url(#filter0_d_4672_2655)">
<path d="M219 39.8306L179.169 0L109.5 69.6694L39.8306 0L0 39.8306L69.6694 109.5L0 179.169L39.8306 219L109.5 149.331L179.169 219L219 179.169L149.331 109.5L219 39.8306Z" fill="white"/>
<path d="M219 39.8306L149.331 109.5L219 179.169L179.169 219L109.5 149.331L39.8306 219L0 179.169L69.6694 109.5L0 39.8306L39.8306 0L109.5 69.6694L179.169 0L219 39.8306ZM109.5 88.0537L39.8311 18.3848L18.3848 39.8311L88.0537 109.5L18.3848 179.169L39.8311 200.615L109.5 130.946L179.169 200.615L200.615 179.169L130.946 109.5L200.615 39.8311L179.169 18.3848L109.5 88.0537Z" fill="black"/>
<path d="M1132.89 109.886L1118.05 110.806C1117.97 109.502 1117.62 108.339 1116.98 107.316C1116.36 106.268 1115.45 105.437 1114.25 104.823C1113.08 104.21 1111.59 103.903 1109.8 103.903C1107.12 103.903 1104.73 104.516 1102.63 105.744C1100.54 106.971 1099.35 108.543 1099.07 110.461C1098.84 111.688 1099.16 112.724 1100.02 113.567C1100.89 114.411 1102.65 115.127 1105.28 115.715L1115.63 117.863C1121.16 119.039 1125.15 120.995 1127.6 123.731C1130.08 126.467 1130.96 130.046 1130.25 134.469C1129.61 138.228 1127.96 141.513 1125.3 144.326C1122.64 147.113 1119.26 149.286 1115.17 150.846C1111.08 152.38 1106.54 153.147 1101.56 153.147C1093.56 153.147 1087.47 151.511 1083.3 148.238C1079.14 144.965 1077.13 140.529 1077.28 134.93L1093.24 134.086C1093.36 136.489 1094.21 138.305 1095.77 139.532C1097.33 140.734 1099.46 141.347 1102.17 141.373C1105.21 141.424 1107.8 140.798 1109.92 139.494C1112.07 138.164 1113.28 136.553 1113.56 134.661C1113.77 133.332 1113.38 132.258 1112.41 131.44C1111.47 130.621 1109.73 129.944 1107.2 129.407L1097.38 127.374C1091.8 126.224 1087.8 124.165 1085.37 121.2C1082.94 118.234 1082.11 114.462 1082.88 109.886C1083.49 106.229 1085.02 103.097 1087.44 100.489C1089.9 97.8558 1093.06 95.8359 1096.92 94.4297C1100.8 93.0234 1105.19 92.3203 1110.07 92.3203C1117.72 92.3203 1123.47 93.8928 1127.33 97.0376C1131.22 100.183 1133.07 104.465 1132.89 109.886Z" fill="white"/>
<path d="M1032.93 117.94L1027.25 151.996H1010.95L1020.77 93.0874H1036.3L1034.61 103.481H1035.26C1037.13 100.029 1039.76 97.3061 1043.17 95.3118C1046.59 93.3175 1050.49 92.3203 1054.86 92.3203C1058.95 92.3203 1062.37 93.2152 1065.1 95.005C1067.86 96.7947 1069.81 99.3388 1070.93 102.637C1072.08 105.935 1072.27 109.886 1071.51 114.488L1065.22 151.996H1048.88L1054.67 117.403C1055.26 113.798 1054.8 110.985 1053.29 108.965C1051.81 106.92 1049.42 105.897 1046.12 105.897C1043.92 105.897 1041.9 106.37 1040.06 107.316C1038.22 108.262 1036.67 109.643 1035.42 111.458C1034.19 113.248 1033.36 115.408 1032.93 117.94Z" fill="white"/>
<path d="M972.373 153.147C966.364 153.147 961.391 151.869 957.454 149.312C953.516 146.729 950.742 143.15 949.132 138.573C947.546 133.971 947.252 128.614 948.249 122.504C949.221 116.469 951.241 111.19 954.309 106.664C957.377 102.138 961.276 98.6229 966.007 96.1172C970.737 93.5859 976.068 92.3203 981.999 92.3203C987.982 92.3203 992.943 93.6115 996.88 96.1939C1000.82 98.7507 1003.59 102.33 1005.2 106.933C1006.81 111.535 1007.12 116.891 1006.12 123.002C1005.13 129.011 1003.08 134.278 999.987 138.803C996.893 143.329 992.994 146.857 988.289 149.388C983.585 151.894 978.279 153.147 972.373 153.147ZM973.984 140.491C976.745 140.491 979.187 139.711 981.309 138.151C983.457 136.566 985.234 134.418 986.64 131.708C988.072 128.972 989.069 125.879 989.632 122.427C990.194 119.026 990.232 116.009 989.747 113.376C989.261 110.717 988.238 108.62 986.678 107.086C985.144 105.552 983.035 104.785 980.35 104.785C977.589 104.785 975.134 105.577 972.987 107.163C970.839 108.722 969.062 110.87 967.656 113.606C966.249 116.342 965.265 119.448 964.703 122.925C964.166 126.3 964.127 129.317 964.588 131.977C965.048 134.61 966.058 136.694 967.617 138.228C969.177 139.737 971.299 140.491 973.984 140.491Z" fill="white"/>
<path d="M917.332 152.001L927.15 93.0916H943.488L933.67 152.001H917.332ZM937.007 85.4212C934.578 85.4212 932.571 84.6158 930.985 83.005C929.426 81.3686 928.787 79.4254 929.068 77.1754C929.349 74.8743 930.449 72.9311 932.366 71.3459C934.284 69.7351 936.457 68.9297 938.886 68.9297C941.315 68.9297 943.297 69.7351 944.831 71.3459C946.365 72.9311 947.004 74.8743 946.748 77.1754C946.493 79.4254 945.406 81.3686 943.488 83.005C941.596 84.6158 939.436 85.4212 937.007 85.4212Z" fill="white"/>
<path d="M917.59 93.0902L915.557 105.363H880.043L882.114 93.0902H917.59ZM892.469 78.9766H908.807L899.679 133.897C899.424 135.406 899.462 136.582 899.794 137.425C900.127 138.244 900.676 138.819 901.444 139.151C902.236 139.484 903.182 139.65 904.282 139.65C905.049 139.65 905.828 139.586 906.621 139.458C907.414 139.305 908.015 139.19 908.424 139.113L909.037 151.271C908.117 151.552 906.877 151.859 905.317 152.191C903.783 152.523 901.968 152.728 899.871 152.805C895.882 152.958 892.507 152.434 889.746 151.232C886.985 150.005 885.003 148.126 883.802 145.594C882.6 143.063 882.344 139.88 883.034 136.045L892.469 78.9766Z" fill="white"/>
<path d="M840.591 153.147C834.532 153.147 829.546 151.869 825.634 149.312C821.748 146.729 819.025 143.15 817.465 138.573C815.931 133.996 815.662 128.729 816.66 122.772C817.631 116.738 819.664 111.445 822.758 106.894C825.851 102.317 829.776 98.7507 834.532 96.1939C839.313 93.6115 844.682 92.3203 850.64 92.3203C855.779 92.3203 860.125 93.2536 863.679 95.12C867.233 96.9865 869.841 99.6072 871.503 102.982C873.165 106.357 873.728 110.32 873.191 114.871H857.812C857.837 111.957 857.083 109.592 855.549 107.776C854.015 105.961 851.765 105.053 848.799 105.053C846.242 105.053 843.89 105.744 841.742 107.124C839.62 108.479 837.817 110.461 836.334 113.069C834.877 115.677 833.854 118.835 833.266 122.542C832.652 126.3 832.64 129.496 833.228 132.13C833.816 134.763 834.941 136.771 836.603 138.151C838.265 139.532 840.361 140.222 842.893 140.222C844.785 140.222 846.536 139.839 848.147 139.072C849.783 138.305 851.215 137.192 852.442 135.735C853.67 134.252 854.615 132.475 855.28 130.404H870.698C869.65 134.93 867.745 138.893 864.983 142.293C862.248 145.694 858.809 148.353 854.667 150.271C850.525 152.188 845.833 153.147 840.591 153.147Z" fill="white"/>
<path d="M785.785 152.001L795.603 93.0916H811.941L802.123 152.001H785.785ZM805.46 85.4212C803.031 85.4212 801.024 84.6158 799.439 83.005C797.879 81.3686 797.24 79.4254 797.521 77.1754C797.802 74.8743 798.902 72.9311 800.819 71.3459C802.737 69.7351 804.91 68.9297 807.339 68.9297C809.768 68.9297 811.75 69.7351 813.284 71.3459C814.818 72.9311 815.457 74.8743 815.201 77.1754C814.946 79.4254 813.859 81.3686 811.941 83.005C810.049 84.6158 807.889 85.4212 805.46 85.4212Z" fill="white"/>
<path d="M739.834 152.957C735.334 152.957 731.46 151.807 728.213 149.506C724.991 147.179 722.69 143.766 721.31 139.266C719.955 134.74 719.827 129.192 720.926 122.621C722.051 115.871 724.071 110.259 726.986 105.784C729.901 101.284 733.352 97.9219 737.341 95.6974C741.33 93.4474 745.484 92.3224 749.805 92.3224C753.078 92.3224 755.724 92.8849 757.744 94.0099C759.79 95.1094 761.362 96.4901 762.462 98.152C763.561 99.7884 764.328 101.399 764.763 102.984H765.261L770.209 73.4531H786.509L773.469 151.999H757.361L758.933 142.564H758.243C757.22 144.2 755.865 145.824 754.178 147.435C752.516 149.02 750.496 150.337 748.118 151.385C745.766 152.433 743.004 152.957 739.834 152.957ZM747.044 139.956C749.652 139.956 752.004 139.24 754.101 137.808C756.197 136.351 757.962 134.318 759.393 131.71C760.825 129.102 761.822 126.047 762.385 122.544C762.973 119.041 762.986 115.999 762.423 113.416C761.861 110.834 760.761 108.839 759.125 107.433C757.514 106.027 755.379 105.324 752.72 105.324C750.036 105.324 747.658 106.053 745.587 107.51C743.541 108.967 741.841 110.987 740.486 113.57C739.156 116.152 738.21 119.143 737.648 122.544C737.085 125.97 737.047 129 737.533 131.634C738.019 134.241 739.054 136.287 740.639 137.77C742.224 139.227 744.359 139.956 747.044 139.956Z" fill="white"/>
<path d="M681.323 153.147C675.289 153.147 670.29 151.92 666.327 149.465C662.364 146.985 659.577 143.482 657.966 138.957C656.381 134.406 656.113 129.023 657.161 122.81C658.184 116.751 660.242 111.433 663.336 106.856C666.455 102.279 670.367 98.7124 675.072 96.1555C679.776 93.5987 685.018 92.3203 690.796 92.3203C694.682 92.3203 698.198 92.9467 701.343 94.1996C704.513 95.4268 707.147 97.2933 709.243 99.799C711.34 102.279 712.772 105.386 713.539 109.119C714.332 112.852 714.319 117.224 713.501 122.235L712.772 126.722H663.067L664.64 116.597H699.003C699.387 114.245 699.234 112.161 698.543 110.346C697.853 108.531 696.702 107.112 695.091 106.089C693.481 105.04 691.499 104.516 689.147 104.516C686.744 104.516 684.494 105.104 682.397 106.281C680.3 107.457 678.536 109.004 677.104 110.921C675.698 112.813 674.79 114.871 674.381 117.096L672.579 127.144C672.067 130.238 672.17 132.808 672.885 134.853C673.627 136.898 674.905 138.433 676.721 139.455C678.536 140.452 680.837 140.951 683.624 140.951C685.439 140.951 687.14 140.695 688.725 140.184C690.336 139.673 691.768 138.918 693.02 137.921C694.273 136.898 695.296 135.633 696.089 134.124L711.008 135.121C709.627 138.752 707.53 141.923 704.718 144.633C701.905 147.317 698.518 149.414 694.555 150.923C690.617 152.406 686.207 153.147 681.323 153.147Z" fill="white"/>
<path d="M614.262 152.003L624.08 93.0938H639.919L638.193 103.372H638.807C640.495 99.7159 642.757 96.9545 645.596 95.0881C648.459 93.196 651.54 92.25 654.838 92.25C655.657 92.25 656.513 92.3011 657.408 92.4034C658.328 92.4801 659.147 92.608 659.863 92.7869L657.408 107.322C656.692 107.067 655.669 106.862 654.34 106.709C653.036 106.53 651.796 106.44 650.62 106.44C648.242 106.44 646.03 106.964 643.985 108.013C641.939 109.036 640.213 110.467 638.807 112.308C637.426 114.149 636.519 116.271 636.084 118.675L630.6 152.003H614.262Z" fill="white"/>
<path d="M545.723 151.999L558.762 73.4531H589.751C595.683 73.4531 600.554 74.5909 604.363 76.8665C608.199 79.1165 610.883 82.2486 612.417 86.2628C613.977 90.2514 614.335 94.8537 613.491 100.07C612.622 105.311 610.73 109.926 607.815 113.915C604.926 117.878 601.167 120.972 596.539 123.196C591.912 125.42 586.568 126.533 580.508 126.533H560.757L562.943 113.224H580.01C583.231 113.224 585.98 112.675 588.255 111.575C590.557 110.45 592.385 108.903 593.74 106.935C595.095 104.94 595.977 102.652 596.386 100.07C596.821 97.4361 596.68 95.1477 595.964 93.2045C595.248 91.2614 593.931 89.7528 592.014 88.679C590.122 87.5795 587.578 87.0298 584.382 87.0298H573.183L562.329 151.999H545.723Z" fill="white"/>
<path d="M546.448 73.4531L533.408 151.999H517.07L530.11 73.4531H546.448Z" fill="white"/>
<path d="M518.1 73.4531L505.061 151.999H488.723L501.762 73.4531H518.1Z" fill="white"/>
<path d="M422.862 151.999H405.066L445.221 73.4531H466.622L480.659 151.999H462.863L453.314 91.402H452.7L422.862 151.999ZM426.927 121.125H468.961L466.737 134.088H424.703L426.927 121.125Z" fill="white"/>
<path d="M370.227 152.003L380.045 93.0938H395.884L394.158 103.372H394.772C396.46 99.7159 398.722 96.9545 401.56 95.0881C404.424 93.196 407.505 92.25 410.803 92.25C411.621 92.25 412.478 92.3011 413.373 92.4034C414.293 92.4801 415.111 92.608 415.827 92.7869L413.373 107.322C412.657 107.067 411.634 106.862 410.305 106.709C409.001 106.53 407.761 106.44 406.585 106.44C404.207 106.44 401.995 106.964 399.95 108.013C397.904 109.036 396.178 110.467 394.772 112.308C393.391 114.149 392.484 116.271 392.049 118.675L386.565 152.003H370.227Z" fill="white"/>
<path d="M325.304 153.109C321.571 153.109 318.337 152.457 315.601 151.153C312.891 149.823 310.897 147.854 309.618 145.246C308.34 142.638 308.02 139.404 308.659 135.543C309.222 132.271 310.283 129.535 311.843 127.336C313.428 125.112 315.358 123.322 317.634 121.967C319.909 120.612 322.428 119.576 325.189 118.86C327.976 118.144 330.853 117.658 333.819 117.403C337.245 117.045 340.032 116.7 342.179 116.367C344.353 116.035 345.976 115.562 347.05 114.948C348.124 114.309 348.776 113.363 349.006 112.11V111.88C349.39 109.477 348.942 107.61 347.664 106.281C346.411 104.925 344.404 104.248 341.642 104.248C338.728 104.248 336.248 104.887 334.202 106.165C332.182 107.444 330.738 109.067 329.868 111.036L314.988 109.809C316.317 106.229 318.324 103.136 321.009 100.528C323.719 97.8942 326.979 95.8743 330.789 94.468C334.598 93.0362 338.868 92.3203 343.598 92.3203C346.871 92.3203 349.926 92.7038 352.765 93.4709C355.628 94.2379 358.096 95.4269 360.167 97.0376C362.263 98.6484 363.772 100.719 364.692 103.251C365.638 105.756 365.83 108.761 365.267 112.263L358.632 151.996H343.138L344.519 143.827H344.059C342.806 145.668 341.272 147.292 339.456 148.698C337.641 150.079 335.557 151.165 333.205 151.958C330.853 152.725 328.219 153.109 325.304 153.109ZM331.863 141.833C334.24 141.833 336.426 141.36 338.421 140.414C340.441 139.442 342.103 138.138 343.407 136.502C344.736 134.866 345.58 133.012 345.938 130.941L346.935 124.69C346.424 125.022 345.682 125.316 344.711 125.572C343.765 125.827 342.729 126.07 341.604 126.3C340.505 126.505 339.392 126.697 338.267 126.876C337.142 127.029 336.132 127.183 335.238 127.336C333.269 127.617 331.505 128.065 329.945 128.678C328.385 129.292 327.12 130.123 326.148 131.171C325.176 132.194 324.576 133.472 324.346 135.006C323.988 137.231 324.512 138.931 325.918 140.107C327.35 141.258 329.331 141.833 331.863 141.833Z" fill="white"/>
<path d="M271.78 153.147C265.746 153.147 260.747 151.92 256.784 149.465C252.821 146.985 250.034 143.482 248.424 138.957C246.838 134.406 246.57 129.023 247.618 122.81C248.641 116.751 250.699 111.433 253.793 106.856C256.912 102.279 260.824 98.7124 265.529 96.1555C270.233 93.5987 275.475 92.3203 281.253 92.3203C285.139 92.3203 288.655 92.9467 291.8 94.1996C294.97 95.4268 297.604 97.2933 299.701 99.799C301.797 102.279 303.229 105.386 303.996 109.119C304.789 112.852 304.776 117.224 303.958 122.235L303.229 126.722H253.524L255.097 116.597H289.46C289.844 114.245 289.691 112.161 289 110.346C288.31 108.531 287.159 107.112 285.549 106.089C283.938 105.04 281.956 104.516 279.604 104.516C277.201 104.516 274.951 105.104 272.854 106.281C270.757 107.457 268.993 109.004 267.561 110.921C266.155 112.813 265.247 114.871 264.838 117.096L263.036 127.144C262.524 130.238 262.627 132.808 263.343 134.853C264.084 136.898 265.362 138.433 267.178 139.455C268.993 140.452 271.294 140.951 274.081 140.951C275.897 140.951 277.597 140.695 279.182 140.184C280.793 139.673 282.225 138.918 283.477 137.921C284.73 136.898 285.753 135.633 286.546 134.124L301.465 135.121C300.084 138.752 297.987 141.923 295.175 144.633C292.362 147.317 288.975 149.414 285.012 150.923C281.074 152.406 276.664 153.147 271.78 153.147Z" fill="white"/>
<path d="M246.12 73.4531L233.08 151.999H216.742L229.782 73.4531H246.12Z" fill="white"/>
<path d="M214.62 100.955H198.051C198.102 98.7564 197.821 96.8132 197.208 95.1257C196.594 93.4126 195.674 91.9553 194.446 90.7536C193.245 89.5519 191.774 88.6442 190.036 88.0305C188.297 87.3913 186.341 87.0717 184.168 87.0717C179.975 87.0717 176.127 88.12 172.624 90.2166C169.121 92.3132 166.168 95.3558 163.764 99.3445C161.361 103.308 159.699 108.102 158.779 113.727C157.884 119.147 157.935 123.685 158.932 127.342C159.929 130.998 161.693 133.759 164.225 135.626C166.781 137.467 169.965 138.387 173.774 138.387C176.127 138.387 178.364 138.093 180.486 137.505C182.608 136.891 184.539 136.022 186.277 134.897C188.041 133.746 189.576 132.353 190.879 130.717C192.209 129.08 193.245 127.227 193.986 125.156H210.669C209.621 128.761 207.985 132.238 205.76 135.587C203.561 138.937 200.838 141.928 197.591 144.562C194.344 147.17 190.649 149.241 186.507 150.775C182.365 152.309 177.827 153.076 172.892 153.076C165.759 153.076 159.635 151.44 154.522 148.167C149.433 144.894 145.764 140.177 143.514 134.015C141.264 127.853 140.843 120.425 142.249 111.732C143.655 103.32 146.404 96.1868 150.495 90.3317C154.611 84.451 159.61 79.9893 165.49 76.9467C171.397 73.9041 177.712 72.3828 184.436 72.3828C189.115 72.3828 193.347 73.022 197.131 74.3004C200.915 75.5788 204.137 77.4453 206.796 79.8999C209.48 82.3288 211.5 85.3075 212.855 88.8359C214.21 92.3643 214.799 96.4041 214.62 100.955Z" fill="white"/>
<path d="M1110.07 79.3281C1119.19 79.3282 1128.41 81.1534 1135.54 86.9658C1142.87 92.9134 1146.19 101.243 1145.89 110.322L1145.5 122.137L1141.8 122.365C1143.57 126.93 1143.84 131.833 1143.08 136.554L1143.07 136.605L1143.06 136.656C1141.99 142.99 1139.14 148.615 1134.75 153.265L1134.71 153.308C1130.54 157.674 1125.46 160.846 1119.81 163L1119.74 163.025C1114 165.178 1107.89 166.154 1101.56 166.154C1092.06 166.154 1082.64 164.254 1075.28 158.47C1070.98 155.1 1067.96 150.94 1066.18 146.261L1070.2 122.293L1071.19 122.24C1070.95 121.572 1070.73 120.897 1070.55 120.218L1071.51 114.495C1072.23 110.181 1072.1 106.439 1071.14 103.271C1072.5 98.9696 1074.76 95.039 1077.93 91.6367L1077.94 91.6328C1081.98 87.2989 1086.96 84.2311 1092.47 82.2227L1092.48 82.2178L1092.5 82.2129C1098.03 80.2098 1103.95 79.3281 1110.07 79.3281ZM1110.07 92.3281C1105.19 92.3281 1100.81 93.0312 1096.92 94.4375C1093.06 95.8437 1089.9 97.8636 1087.45 100.497C1085.02 103.105 1083.5 106.237 1082.88 109.894C1082.11 114.47 1082.95 118.241 1085.38 121.207C1087.8 124.173 1091.81 126.231 1097.38 127.382L1107.2 129.414C1109.73 129.951 1111.47 130.629 1112.41 131.447C1113.38 132.265 1113.77 133.339 1113.56 134.669L1113.5 135.021C1113.13 136.761 1111.93 138.255 1109.92 139.501C1107.8 140.805 1105.22 141.431 1102.17 141.38C1099.46 141.354 1097.33 140.741 1095.77 139.539C1094.21 138.312 1093.37 136.497 1093.24 134.094L1077.28 134.938L1077.27 135.459C1077.26 140.813 1079.27 145.075 1083.3 148.245C1087.47 151.518 1093.56 153.154 1101.56 153.154C1106.55 153.154 1111.08 152.388 1115.17 150.854C1119.01 149.391 1122.22 147.39 1124.79 144.849L1125.3 144.333C1127.79 141.696 1129.4 138.644 1130.12 135.176L1130.25 134.477C1130.96 130.053 1130.08 126.474 1127.6 123.738C1125.15 121.003 1121.16 119.046 1115.63 117.87L1105.28 115.723C1102.81 115.171 1101.12 114.507 1100.2 113.731L1100.03 113.575C1099.21 112.784 1098.88 111.824 1099.03 110.696L1099.07 110.469C1099.35 108.551 1100.54 106.978 1102.63 105.751C1104.73 104.524 1107.12 103.91 1109.81 103.91C1111.6 103.91 1113.08 104.217 1114.25 104.831C1115.46 105.445 1116.36 106.275 1116.98 107.323C1117.62 108.346 1117.97 109.51 1118.05 110.813L1132.89 109.894C1133.07 104.473 1131.22 100.19 1127.33 97.0449C1123.47 93.9002 1117.72 92.3282 1110.07 92.3281Z" fill="black"/>
<path d="M1054.86 79.3281C1060.83 79.3281 1066.86 80.6417 1072.17 84.1035C1072.17 84.1042 1072.17 84.1048 1072.17 84.1055C1072.19 84.1149 1072.2 84.1243 1072.22 84.1338C1077.53 87.5897 1081.2 92.5319 1083.2 98.3623C1083.9 100.366 1084.37 102.409 1084.65 104.47C1083.8 106.128 1083.21 107.935 1082.88 109.894C1082.48 112.29 1082.52 114.466 1082.99 116.421L1071.51 114.495C1072.27 109.893 1072.08 105.943 1070.93 102.645C1069.88 99.5523 1068.1 97.1228 1065.61 95.3564L1065.1 95.0127C1062.54 93.3347 1059.38 92.4427 1055.62 92.3379L1054.86 92.3281C1050.49 92.3281 1046.59 93.3251 1043.16 95.3193C1039.76 97.3136 1037.13 100.037 1035.26 103.488H1034.61L1036.3 93.0947H1020.77L1010.95 152.004H1027.25L1032.92 117.947C1033.36 115.416 1034.19 113.256 1035.42 111.466C1036.67 109.65 1038.22 108.269 1040.06 107.323C1041.9 106.377 1043.92 105.904 1046.12 105.904C1049.42 105.904 1051.81 106.927 1053.29 108.973L1053.43 109.164C1054.82 111.169 1055.24 113.918 1054.67 117.41L1048.88 152.004H1065.22L1071.51 114.495L1082.99 116.421C1083.21 117.326 1083.53 118.183 1083.93 118.993L1081.29 134.725L1077.28 134.938C1077.18 138.551 1077.98 141.68 1079.68 144.324L1076.22 165.004H995.602L999.962 138.843C999.969 138.832 999.978 138.821 999.985 138.811C1003.08 134.285 1005.12 129.018 1006.12 123.01C1007.11 116.967 1006.82 111.662 1005.25 107.095L1009.75 80.0947H1047.12C1049.65 79.5773 1052.23 79.3281 1054.86 79.3281Z" fill="black"/>
<path d="M981.999 79.3281C989.814 79.3281 997.408 81.0193 1003.96 85.2988C1010.41 89.487 1014.95 95.4396 1017.47 102.646C1017.9 103.865 1018.26 105.1 1018.56 106.348L1015.52 124.568L1006.12 123.01C1007.09 117.09 1006.83 111.878 1005.35 107.374L1005.2 106.94C1003.64 102.482 1000.99 98.9832 997.245 96.4443L996.88 96.2012C992.942 93.6188 987.982 92.3281 981.999 92.3281C976.067 92.3281 970.736 93.5938 966.006 96.125L965.565 96.3623C961.033 98.8508 957.281 102.288 954.309 106.672L954.024 107.098C951.115 111.527 949.19 116.665 948.249 122.511C947.252 128.622 947.546 133.979 949.131 138.581C950.742 143.158 953.516 146.737 957.453 149.319C961.391 151.876 966.365 153.154 972.373 153.154C978.094 153.154 983.252 151.978 987.846 149.627L988.289 149.396C992.699 147.022 996.402 143.773 999.396 139.647L999.985 138.811C1003.08 134.285 1005.12 129.018 1006.12 123.01L1015.52 124.568L1012.35 143.585C1011.83 144.453 1011.29 145.308 1010.72 146.147C1006.48 152.343 1001.03 157.301 994.448 160.844L994.424 160.857L994.4 160.87C987.618 164.482 980.176 166.154 972.373 166.154C964.549 166.154 956.936 164.484 950.374 160.223L950.349 160.206L950.324 160.189C943.927 155.994 939.394 150.074 936.868 142.896L936.854 142.855L936.84 142.814C936.433 141.633 936.088 140.437 935.801 139.229L942.051 101.729C942.526 100.933 943.026 100.148 943.549 99.376C947.65 93.3265 952.93 88.4713 959.301 84.9717L959.921 84.6367C966.718 81.0102 974.176 79.3281 981.999 79.3281ZM980.35 104.792C983.034 104.792 985.144 105.56 986.678 107.094C988.237 108.628 989.26 110.724 989.746 113.383C990.232 116.016 990.193 119.034 989.631 122.435L989.521 123.077C988.942 126.271 987.982 129.151 986.64 131.716C985.233 134.426 983.456 136.574 981.309 138.159L980.907 138.442C978.88 139.813 976.572 140.498 973.983 140.498C971.299 140.498 969.177 139.744 967.617 138.235C966.058 136.701 965.047 134.618 964.587 131.984C964.127 129.325 964.165 126.308 964.702 122.933C965.229 119.673 966.128 116.739 967.396 114.131L967.655 113.613C969.062 110.877 970.839 108.73 972.986 107.17C975.134 105.585 977.588 104.792 980.35 104.792Z" fill="black"/>
<path d="M939.411 55.9355C944.819 56.0569 950.085 58.0575 954.17 62.3057C954.181 62.3175 954.194 62.3299 954.205 62.3418C954.218 62.3549 954.231 62.3677 954.243 62.3809C958.569 66.8946 960.323 72.7111 959.667 78.6113L959.666 78.627L959.664 78.6436C959.419 80.7985 958.869 82.8102 958.07 84.668L954.435 106.483C954.392 106.545 954.348 106.607 954.306 106.669C951.238 111.194 949.218 116.474 948.246 122.508C947.255 128.581 947.54 133.91 949.1 138.493L944.682 165.001H901.984L904.081 152.422C904.51 152.354 904.921 152.277 905.313 152.192C906.873 151.86 908.113 151.554 909.033 151.272L908.42 139.114C908.011 139.191 907.41 139.307 906.617 139.46C906.489 139.481 906.36 139.496 906.232 139.514L911.925 105.364H915.554L917.586 93.0918H913.97L916.108 80.2559C915.952 78.7345 915.968 77.1759 916.162 75.5986L916.236 75.0518C917.058 69.4715 919.904 64.8096 924.003 61.3916C928.183 57.88 933.295 55.9297 938.885 55.9297L939.411 55.9355ZM927.148 93.0918L917.331 152.001H933.669L943.488 93.0916L927.148 93.0918ZM938.885 68.9297C936.456 68.9297 934.284 69.7354 932.366 71.3459C930.449 72.9311 929.348 74.8746 929.066 77.1758C928.785 79.4257 929.425 81.3686 930.984 83.0049C932.57 84.6157 934.577 85.4219 937.006 85.4219C939.435 85.4218 941.596 84.6157 943.488 83.005C945.286 81.4709 946.352 79.6671 946.689 77.5938L946.747 77.1758C947.003 74.8746 946.363 72.9309 944.829 71.3457C943.295 69.7351 941.314 68.9297 938.885 68.9297Z" fill="black"/>
<path d="M924.145 65.9766L921.799 80.0898H929.269C929.574 81.1499 930.146 82.1211 930.986 83.0029C931.384 83.407 931.808 83.7608 932.259 84.0635L930.765 93.0898H927.15L922.938 118.362H915.438L914.372 124.77L920.655 123.593L920.983 130.094L917.333 151.999H922.089L922.53 160.74L912.834 163.703C911.399 164.142 909.748 164.538 908.025 164.905L908.024 164.903C905.56 165.434 902.97 165.698 900.368 165.794C900.36 165.794 900.353 165.796 900.345 165.796L900.344 165.795C895.018 165.997 889.585 165.341 884.557 163.152L884.465 163.111C879.105 160.729 874.698 156.736 872.056 151.17C869.344 145.459 869.253 139.369 870.207 133.924L872.779 118.362H864.664L865.253 114.874H873.192C873.729 110.323 873.167 106.359 871.505 102.984C870.623 101.193 869.471 99.6181 868.057 98.252L871.122 80.0898H879.106L881.44 65.9766H924.145ZM892.468 78.9766L890.135 93.0898H882.112L880.041 105.362H888.105L883.032 136.045C882.342 139.88 882.598 143.063 883.8 145.594C885.002 148.125 886.983 150.005 889.744 151.232C892.505 152.434 895.881 152.958 899.869 152.805C901.966 152.728 903.781 152.523 905.315 152.19C906.875 151.858 908.115 151.552 909.035 151.271L908.422 139.112C908.013 139.189 907.412 139.305 906.619 139.458C905.827 139.586 905.047 139.649 904.28 139.649C903.318 139.649 902.473 139.522 901.746 139.268L901.441 139.151C900.674 138.819 900.125 138.243 899.793 137.425C899.502 136.687 899.436 135.694 899.596 134.447L899.678 133.896L904.42 105.362H915.556L917.588 93.0898H906.46L908.806 78.9766H892.468Z" fill="black"/>
<path d="M850.642 79.3281C857.312 79.3281 863.858 80.5367 869.726 83.6182C874.727 86.245 878.877 89.9864 881.824 94.8066L880.042 105.367H885.834C886.497 109.001 886.538 112.716 886.104 116.402L885.984 117.411H886.115L883.77 131.593L883.364 133.345C881.897 139.678 879.16 145.468 875.077 150.496L875.076 150.495C871.034 155.504 865.984 159.365 860.13 162.075C854.04 164.895 847.442 166.154 840.594 166.154C832.748 166.154 825.094 164.496 818.523 160.201L818.441 160.146C812.075 155.916 807.611 149.96 805.162 142.774L805.141 142.712C804.782 141.641 804.472 140.56 804.211 139.47L810.448 102.042C810.936 101.222 811.45 100.415 811.989 99.6211C816.228 93.3505 821.713 88.3385 828.355 84.7627C835.213 81.0589 842.74 79.3281 850.642 79.3281ZM850.642 92.3281C844.684 92.3281 839.315 93.6189 834.534 96.2012L834.091 96.4443C829.534 98.9824 825.757 102.468 822.76 106.901L822.473 107.33C819.54 111.784 817.603 116.934 816.662 122.779C815.665 128.737 815.933 134.004 817.467 138.581C819.026 143.158 821.75 146.737 825.636 149.319C829.425 151.796 834.223 153.073 840.028 153.15L840.594 153.154C845.835 153.154 850.527 152.196 854.669 150.278C858.811 148.361 862.25 145.701 864.985 142.301C867.747 138.9 869.652 134.937 870.7 130.411H855.282C854.617 132.482 853.672 134.259 852.444 135.742L852.212 136.012C851.037 137.338 849.683 138.36 848.148 139.079C846.538 139.846 844.786 140.229 842.895 140.229C840.522 140.229 838.531 139.623 836.922 138.409L836.604 138.159C835.046 136.865 833.961 135.019 833.347 132.624L833.229 132.138C832.641 129.504 832.655 126.308 833.269 122.55C833.857 118.842 834.879 115.684 836.336 113.076C837.819 110.468 839.622 108.487 841.744 107.132C843.892 105.751 846.244 105.061 848.801 105.061C851.767 105.061 854.017 105.969 855.551 107.784C857.085 109.599 857.839 111.964 857.813 114.879H873.193C873.73 110.328 873.168 106.364 871.506 102.989C869.948 99.8253 867.558 97.3245 864.337 95.4863L863.682 95.1279C860.128 93.2615 855.781 92.3281 850.642 92.3281Z" fill="black"/>
<path d="M807.864 55.9355C813.272 56.057 818.538 58.0575 822.623 62.3057C822.634 62.3169 822.645 62.3286 822.656 62.3398C822.669 62.3535 822.683 62.3671 822.696 62.3809C827.022 66.8946 828.776 72.7111 828.12 78.6113L828.118 78.627L828.116 78.6436C827.871 80.7988 827.321 82.8109 826.522 84.6689L822.836 106.787C822.811 106.824 822.784 106.861 822.759 106.898C819.665 111.45 817.633 116.742 816.661 122.776C815.664 128.734 815.932 134.001 817.466 138.578C817.482 138.624 817.498 138.671 817.514 138.717L813.135 165.001H770.438L772.604 152.001H773.469L786.509 73.4551H784.985C786.075 68.5794 788.754 64.4782 792.456 61.3916C796.636 57.8801 801.748 55.9297 807.338 55.9297L807.864 55.9355ZM795.602 93.0918L785.783 152.001H802.122L811.939 93.0918H795.602ZM807.338 68.9297C804.909 68.9297 802.735 69.7349 800.817 71.3457C798.9 72.9309 797.801 74.8746 797.52 77.1758C797.238 79.4256 797.877 81.3686 799.437 83.0049C801.022 84.6156 803.029 85.4218 805.458 85.4219C807.887 85.4219 810.047 84.6156 811.939 83.0049C813.737 81.4707 814.806 79.6673 815.143 77.5938L815.2 77.1758C815.456 74.8746 814.816 72.9309 813.282 71.3457C811.748 69.7351 809.767 68.9298 807.338 68.9297Z" fill="black"/>
<path d="M801.844 60.4531L799.893 72.2021C798.543 73.615 797.751 75.272 797.519 77.1738C797.316 78.7914 797.592 80.2494 798.341 81.5498L796.426 93.0898H795.601L785.782 151.999H786.647L784.488 164.999H748.269C745.488 165.67 742.651 165.958 739.833 165.958C733.006 165.958 726.421 164.17 720.696 160.113L720.601 160.045C714.682 155.77 710.934 149.769 708.881 143.079L708.856 142.995C708.61 142.175 708.395 141.345 708.206 140.508C709.34 138.842 710.276 137.049 711.008 135.124L707.352 134.879C707.128 132.208 707.14 129.482 707.343 126.725H712.773L713.501 122.237C714.319 117.226 714.332 112.854 713.539 109.121C713.268 107.8 712.91 106.559 712.473 105.396C713.51 103.05 714.712 100.808 716.093 98.6885C719.952 92.7388 724.864 87.7766 730.982 84.3584C736.791 81.0873 743.122 79.3233 749.805 79.3232C751.799 79.3232 753.873 79.4675 755.957 79.8369L759.205 60.4531H801.844ZM770.209 73.4531L765.261 102.984H764.762C764.327 101.399 763.561 99.7882 762.462 98.152C761.362 96.4901 759.79 95.1094 757.744 94.0099C755.851 92.9553 753.406 92.395 750.411 92.3291L749.805 92.3232C745.484 92.3233 741.329 93.4483 737.34 95.6982L736.599 96.1279C732.922 98.3466 729.718 101.565 726.986 105.784L726.715 106.207C723.945 110.611 722.016 116.082 720.926 122.621C719.827 129.192 719.954 134.74 721.309 139.266C722.689 143.766 724.991 147.179 728.213 149.506C731.257 151.663 734.852 152.81 738.997 152.944L739.834 152.957C743.004 152.957 745.765 152.434 748.117 151.386C750.495 150.338 752.515 149.021 754.177 147.436C755.864 145.825 757.22 144.2 758.243 142.564H758.933L757.361 151.999L773.468 151.999L786.509 73.4531H770.209ZM752.72 105.324C755.379 105.324 757.514 106.027 759.125 107.433C760.761 108.839 761.861 110.834 762.423 113.416C762.986 115.999 762.973 119.041 762.385 122.544L762.273 123.196C761.695 126.428 760.735 129.266 759.393 131.711C757.961 134.319 756.197 136.351 754.101 137.808C752.004 139.24 749.651 139.956 747.043 139.956C744.526 139.956 742.493 139.316 740.942 138.035L740.639 137.77C739.153 136.38 738.15 134.495 737.63 132.116L737.533 131.634C737.047 129 737.085 125.97 737.648 122.544C738.21 119.143 739.156 116.152 740.486 113.57C741.841 110.987 743.541 108.968 745.586 107.511C747.657 106.053 750.036 105.324 752.72 105.324Z" fill="black"/>
<path d="M690.795 79.3281C696.045 79.3281 701.184 80.1712 706.034 82.084C706.044 82.0878 706.055 82.0919 706.065 82.0957C706.094 82.1074 706.124 82.1181 706.154 82.1299C711.239 84.1196 715.674 87.2347 719.213 91.4639C722.895 95.838 725.124 100.985 726.254 106.426C726.282 106.559 726.31 106.693 726.337 106.827C723.769 111.122 721.965 116.388 720.925 122.626C719.826 129.197 719.953 134.745 721.308 139.271C721.59 140.189 721.911 141.063 722.27 141.891C720.226 146.446 717.364 150.507 713.738 154.001L713.694 154.044C709.518 158.029 704.613 161.012 699.179 163.08L699.136 163.096C693.519 165.211 687.524 166.154 681.322 166.154C673.57 166.154 666.024 164.576 659.482 160.524L659.456 160.509L659.431 160.492C652.912 156.412 648.283 150.526 645.719 143.323L645.704 143.282L645.69 143.24C643.197 136.084 643.038 128.382 644.342 120.654C645.179 115.696 646.592 110.979 648.629 106.569C649.279 106.484 649.942 106.441 650.618 106.441C651.794 106.441 653.034 106.531 654.338 106.71C655.668 106.863 656.691 107.068 657.406 107.323L659.861 92.7881C659.417 92.6773 658.935 92.5882 658.413 92.5166C661.491 89.457 664.979 86.8522 668.863 84.7412C675.622 81.0679 683.025 79.3282 690.795 79.3281ZM690.795 92.3281C685.017 92.3282 679.776 93.6064 675.071 96.1631C670.367 98.7199 666.454 102.287 663.335 106.863C660.241 111.44 658.183 116.758 657.16 122.817C656.112 129.03 656.381 134.413 657.966 138.964C659.577 143.489 662.363 146.993 666.326 149.473C670.289 151.927 675.288 153.154 681.322 153.154C686.206 153.154 690.616 152.413 694.554 150.93C698.517 149.421 701.905 147.325 704.717 144.641C707.529 141.93 709.626 138.76 711.007 135.129L696.088 134.132C695.295 135.64 694.273 136.906 693.02 137.929C691.767 138.926 690.335 139.68 688.725 140.191C687.14 140.703 685.439 140.958 683.623 140.958C680.836 140.958 678.535 140.46 676.72 139.463C674.905 138.44 673.626 136.906 672.885 134.86C672.169 132.815 672.067 130.245 672.578 127.151L672.654 126.729H712.772L713.5 122.242C714.318 117.231 714.331 112.859 713.538 109.126C712.819 105.626 711.516 102.678 709.628 100.279L709.243 99.8066C707.147 97.301 704.512 95.4343 701.342 94.207C698.197 92.9543 694.681 92.3281 690.795 92.3281ZM689.147 104.523C691.499 104.523 693.48 105.048 695.091 106.097C696.702 107.119 697.853 108.538 698.543 110.354C699.233 112.169 699.387 114.252 699.003 116.604H674.483C674.93 114.571 675.803 112.678 677.104 110.929C678.536 109.011 680.3 107.464 682.397 106.288C684.493 105.112 686.743 104.523 689.147 104.523Z" fill="black"/>
<path d="M654.837 79.25C656.1 79.25 657.358 79.3257 658.604 79.459C660.022 79.5821 661.514 79.8 663.014 80.1748L674.682 83.0918L672.176 97.9316C668.738 100.283 665.791 103.26 663.335 106.863C660.528 111.016 658.577 115.778 657.475 121.151L653.414 119.7C653.387 119.696 653.357 119.691 653.322 119.686C653.201 119.667 653.043 119.646 652.848 119.623L652.709 119.607L652.57 119.588C651.784 119.48 651.138 119.44 650.618 119.44C650.229 119.44 650.058 119.507 649.912 119.582L649.797 119.641C649.559 119.759 649.379 119.896 649.173 120.154C649.085 120.281 648.97 120.494 648.885 120.938L641.634 165.003H598.914L607.317 114.577C607.485 114.36 607.651 114.141 607.813 113.919C610.728 109.93 612.62 105.315 613.489 100.074C614.333 94.8585 613.975 90.2561 612.416 86.2676C612.33 86.0432 612.239 85.8215 612.146 85.6025L613.065 80.0938H647.824C650.085 79.5375 652.429 79.25 654.837 79.25ZM654.837 92.25C651.539 92.25 648.457 93.1959 645.594 95.0879C642.756 96.9543 640.493 99.7159 638.806 103.372H638.191L639.918 93.0938H624.078L614.26 152.003H630.598L636.082 118.675C636.517 116.271 637.425 114.149 638.806 112.309C640.212 110.468 641.938 109.035 643.983 108.013C646.029 106.965 648.241 106.441 650.618 106.441C651.794 106.441 653.034 106.531 654.338 106.71C655.668 106.863 656.691 107.068 657.406 107.323L659.861 92.7881C659.145 92.6092 658.327 92.48 657.406 92.4033C656.511 92.3011 655.655 92.25 654.837 92.25Z" fill="black"/>
<path d="M589.751 60.4531L589.751 73.4531H558.762L545.723 151.999H562.329L566.584 126.533L580.508 126.533L581.636 126.521C587.046 126.395 591.869 125.354 596.104 123.401L596.539 123.196C601.167 120.972 604.926 117.878 607.815 113.915C610.73 109.926 612.622 105.311 613.491 100.07L622.663 101.591L619.655 119.633C619.229 120.289 618.784 120.936 618.319 121.572L618.32 121.573C614.107 127.353 608.64 131.804 602.172 134.913C595.498 138.121 588.17 139.533 580.509 139.533H577.592L573.338 164.999H530.387L532.545 151.999L533.408 151.999L546.448 73.4531H545.585L547.743 60.4531H589.751ZM584.382 87.0298C587.578 87.0298 590.122 87.5795 592.014 88.679C593.931 89.7528 595.248 91.2614 595.964 93.2045C596.68 95.1477 596.821 97.4361 596.386 100.07L596.304 100.551C595.865 102.937 595.011 105.066 593.74 106.936L593.48 107.299C592.155 109.095 590.413 110.521 588.256 111.576L587.823 111.775C585.634 112.742 583.03 113.224 580.01 113.224L568.808 113.225L573.183 87.0298H584.382ZM589.751 60.4531C597.264 60.4531 604.636 61.8868 611.03 65.7061L611.029 65.707C617.272 69.3943 621.945 74.779 624.561 81.6221C626.001 85.3389 626.735 89.19 626.898 93.0898H624.08L622.663 101.591L613.491 100.07C614.335 94.8539 613.977 90.2522 612.418 86.2637C610.884 82.2495 608.199 79.1165 604.363 76.8665C600.554 74.5909 595.683 73.4531 589.751 73.4531L589.751 60.4531Z" fill="black"/>
<path d="M561.784 60.4531L559.626 73.4531H558.762L545.723 151.999L546.586 151.999L544.428 164.999H501.734L503.893 151.999H505.062L518.103 73.4531H516.932L519.091 60.4531H561.784ZM530.11 73.4531L517.07 151.999H533.408L546.448 73.4531H530.11Z" fill="black"/>
<path d="M533.44 60.4531L531.282 73.4531H530.112L517.072 151.999H518.242L516.084 164.999H473.391L475.549 151.999L480.659 151.999L478.01 137.174L490.746 60.4531H533.44ZM501.767 73.4531L488.727 151.999H505.064L518.104 73.4531H501.767Z" fill="black"/>
<path d="M477.504 60.4531L491.2 137.091L488.727 151.999H493.864L496.188 164.999H451.751L448.929 147.089H439.771L430.951 164.999H383.82L413.317 107.299C413.337 107.306 413.357 107.312 413.376 107.318L413.409 107.118L437.267 60.4531H477.504ZM445.221 73.4531L405.066 151.999H422.862L431.681 134.089H460.041L462.863 151.999H480.659L466.622 73.4531H445.221ZM453.314 91.402L457.998 121.125H438.063L452.7 91.402H453.314Z" fill="black"/>
<path d="M410.806 79.25C412.069 79.25 413.327 79.3257 414.573 79.459C415.992 79.5821 417.484 79.8 418.983 80.1748L430.651 83.0918L425.895 111.26L419.696 123.384L409.382 119.7C409.355 119.696 409.325 119.691 409.291 119.686C409.17 119.667 409.013 119.646 408.817 119.623L408.679 119.607L408.54 119.588C407.754 119.48 407.107 119.44 406.587 119.44C406.198 119.44 406.028 119.507 405.882 119.582L405.824 119.611L405.766 119.641C405.528 119.759 405.348 119.896 405.143 120.154C405.054 120.282 404.938 120.496 404.853 120.944L397.603 165.003H354.883L357.05 152.003H358.634L365.269 112.27C365.761 109.205 365.676 106.523 365.014 104.222L369.035 80.0938H403.793C406.054 79.5375 408.397 79.25 410.806 79.25ZM410.806 92.25C407.508 92.2501 404.427 93.1961 401.563 95.0879C398.725 96.9544 396.462 99.7158 394.774 103.372H394.161L395.887 93.0938H380.048L370.229 152.003H386.567L392.052 118.675C392.486 116.272 393.394 114.149 394.774 112.309C396.181 110.468 397.907 109.035 399.952 108.013C401.998 106.964 404.209 106.44 406.587 106.44C407.763 106.44 409.004 106.53 410.308 106.709C411.637 106.862 412.66 107.067 413.376 107.322L415.83 92.7871C415.114 92.6082 414.296 92.48 413.376 92.4033C412.481 92.301 411.624 92.25 410.806 92.25Z" fill="black"/>
<path d="M343.599 79.3281C347.879 79.3281 352.076 79.8288 356.128 80.9209C360.427 82.0724 364.493 83.956 368.086 86.7363C368.106 86.752 368.128 86.7675 368.148 86.7832C372.214 89.9244 375.17 94.0296 376.91 98.8154C377.539 100.514 377.969 102.235 378.235 103.958L370.229 152.004H371.812L369.642 165.004H334.857C331.734 165.777 328.527 166.116 325.305 166.116C320.075 166.116 314.848 165.202 310.008 162.896L309.942 162.863L309.876 162.831C304.688 160.286 300.545 156.278 297.945 150.976C296.84 148.721 296.135 146.402 295.741 144.077C298.27 141.494 300.18 138.511 301.466 135.129L295.641 134.739C295.698 134.299 295.762 133.862 295.834 133.428L295.841 133.388L295.848 133.349C296.233 131.106 296.809 128.884 297.613 126.729H303.229L303.958 122.242C304.776 117.231 304.79 112.859 303.997 109.126C303.708 107.719 303.324 106.402 302.847 105.173C304.836 99.8672 307.881 95.1644 311.951 91.2109C316.051 87.2278 320.886 84.2781 326.258 82.291C331.734 80.2395 337.571 79.3281 343.599 79.3281ZM343.599 92.3281C338.869 92.3281 334.599 93.0438 330.789 94.4756C326.98 95.8818 323.72 97.9018 321.01 100.535C318.325 103.143 316.318 106.237 314.988 109.816L329.869 111.044C330.738 109.075 332.182 107.451 334.202 106.173C336.248 104.894 338.728 104.255 341.643 104.255C344.404 104.255 346.411 104.933 347.664 106.288C348.942 107.618 349.39 109.484 349.007 111.888V112.117C348.777 113.37 348.125 114.317 347.051 114.956C345.977 115.57 344.353 116.043 342.18 116.375C340.032 116.707 337.245 117.052 333.819 117.41C330.853 117.666 327.976 118.151 325.189 118.867C322.428 119.583 319.91 120.619 317.635 121.974C315.359 123.329 313.428 125.119 311.843 127.344C310.283 129.543 309.223 132.278 308.66 135.551L308.551 136.268C308.064 139.814 308.421 142.809 309.619 145.254C310.898 147.862 312.891 149.831 315.602 151.16C318.337 152.464 321.572 153.116 325.305 153.116C328.219 153.116 330.853 152.733 333.205 151.966C335.557 151.173 337.642 150.087 339.457 148.706C341.272 147.3 342.806 145.676 344.059 143.835H344.52L343.139 152.004H358.633L365.268 112.271C365.83 108.768 365.638 105.763 364.692 103.258C363.829 100.885 362.449 98.9165 360.553 97.3525L360.167 97.0449C358.225 95.5348 355.935 94.3955 353.297 93.627L352.765 93.4785C349.927 92.7115 346.871 92.3281 343.599 92.3281ZM345.938 130.948C345.581 133.019 344.737 134.873 343.407 136.51C342.103 138.146 340.441 139.45 338.421 140.422C336.427 141.368 334.241 141.841 331.863 141.841C329.332 141.841 327.35 141.265 325.918 140.114C324.512 138.938 323.988 137.238 324.346 135.014C324.576 133.48 325.177 132.201 326.148 131.179C327.12 130.13 328.386 129.299 329.945 128.686C331.505 128.072 333.27 127.625 335.238 127.344C336.133 127.19 337.143 127.036 338.268 126.883C339.393 126.704 340.505 126.512 341.604 126.308C342.729 126.078 343.765 125.835 344.711 125.579C345.683 125.323 346.424 125.03 346.936 124.697L345.938 130.948Z" fill="black"/>
<path d="M281.254 79.3281C286.504 79.3281 291.642 80.1713 296.492 82.084C296.502 82.0878 296.513 82.0919 296.522 82.0957C296.552 82.1074 296.582 82.1181 296.611 82.1299C301.697 84.1195 306.132 87.2347 309.671 91.4639C313.3 95.7748 315.515 100.837 316.66 106.19C316.018 107.338 315.46 108.546 314.988 109.816L317.293 110.006C317.757 114.014 317.633 118.148 317.084 122.315C315.046 123.625 313.299 125.301 311.843 127.344C310.283 129.543 309.223 132.278 308.66 135.551C308.021 139.412 308.341 142.646 309.619 145.254C309.826 145.676 310.053 146.08 310.297 146.468C308.597 149.206 306.559 151.724 304.196 154.001L304.151 154.044C299.976 158.029 295.071 161.012 289.637 163.08L289.594 163.096C283.977 165.211 277.981 166.154 271.78 166.154C264.028 166.154 256.482 164.576 249.939 160.524L249.914 160.509L249.889 160.492C243.37 156.412 238.741 150.526 236.177 143.323L236.162 143.282L236.147 143.24C235.744 142.083 235.402 140.911 235.117 139.727L241.337 102.26C241.869 101.352 242.431 100.459 243.023 99.583L243.051 99.542C247.293 93.3183 252.737 88.3195 259.321 84.7412C266.08 81.0679 273.483 79.3281 281.254 79.3281ZM281.254 92.3281C275.475 92.3281 270.234 93.6063 265.529 96.1631C260.825 98.7199 256.913 102.287 253.794 106.863C250.7 111.44 248.642 116.758 247.619 122.817C246.571 129.03 246.839 134.413 248.424 138.964C250.035 143.489 252.822 146.993 256.785 149.473C260.748 151.927 265.746 153.154 271.78 153.154C276.664 153.154 281.075 152.413 285.013 150.93C288.976 149.421 292.363 147.325 295.176 144.641C297.988 141.93 300.085 138.76 301.466 135.129L286.546 134.132C285.753 135.64 284.731 136.906 283.479 137.929C282.226 138.926 280.793 139.68 279.183 140.191C277.597 140.703 275.897 140.958 274.082 140.958C271.295 140.958 268.994 140.46 267.179 139.463C265.363 138.44 264.084 136.906 263.343 134.86C262.627 132.815 262.525 130.245 263.036 127.151L263.112 126.729H303.229L303.958 122.242C304.776 117.231 304.79 112.859 303.997 109.126C303.278 105.627 301.974 102.678 300.087 100.279L299.701 99.8066C297.736 97.4575 295.298 95.6698 292.389 94.4443L291.801 94.207C288.656 92.9542 285.14 92.3281 281.254 92.3281ZM279.604 104.523C281.957 104.523 283.938 105.048 285.549 106.097C287.16 107.119 288.311 108.538 289.001 110.354C289.691 112.169 289.844 114.252 289.461 116.604H264.941C265.389 114.571 266.261 112.678 267.562 110.929C268.993 109.011 270.758 107.464 272.854 106.288C274.951 105.112 277.201 104.523 279.604 104.523Z" fill="black"/>
<path d="M261.457 60.4531L253.738 106.943C250.676 111.501 248.637 116.79 247.62 122.812C246.572 129.024 246.839 134.406 248.424 138.957L244.101 164.999H201.406L206.475 134.47C208.338 131.465 209.737 128.36 210.67 125.152H208.021L212.039 100.952H214.62C214.759 97.4167 214.432 94.1907 213.646 91.2725L218.763 60.4531H261.457ZM229.782 73.4531L216.743 151.999L233.08 151.999L246.12 73.4531H229.782Z" fill="black"/>
<path d="M184.437 59.3828C190.294 59.3829 195.96 60.1831 201.292 61.9844C206.583 63.772 211.403 66.4912 215.516 70.2607L215.518 70.2598C219.782 74.1183 222.938 78.8283 224.991 84.1748C225.832 86.3642 226.452 88.6142 226.884 90.9062L225.148 101.368L214.62 100.955C214.799 96.4041 214.21 92.3643 212.855 88.8359C211.5 85.3075 209.48 82.3288 206.796 79.8999C204.303 77.5988 201.316 75.8143 197.834 74.5469L197.131 74.3004C193.583 73.102 189.643 72.4646 185.309 72.3896L184.436 72.3828C177.712 72.3828 171.397 73.9041 165.49 76.9467C159.61 79.9893 154.611 84.451 150.495 90.3317C146.404 96.1868 143.655 103.32 142.249 111.732L142.122 112.543C140.871 120.888 141.335 128.045 143.514 134.015C145.764 140.177 149.433 144.894 154.522 148.167C159.475 151.337 165.377 152.972 172.227 153.071L172.892 153.076C177.827 153.076 182.365 152.309 186.507 150.775C190.649 149.241 194.344 147.17 197.591 144.562C200.838 141.928 203.561 138.937 205.76 135.587C207.985 132.238 209.621 128.761 210.669 125.156H193.986C193.245 127.227 192.209 129.08 190.879 130.717L190.632 131.021C189.383 132.526 187.931 133.818 186.277 134.897L185.616 135.307C184.053 136.235 182.343 136.968 180.486 137.505L179.685 137.712C177.803 138.162 175.832 138.387 173.774 138.387L173.775 125.387C175.006 125.387 176.05 125.236 176.953 124.992C177.887 124.715 178.612 124.369 179.195 123.994C179.794 123.601 180.286 123.151 180.713 122.615L180.751 122.566L180.79 122.519C181.153 122.072 181.479 121.521 181.746 120.773L184.783 112.289L185.055 100.652C185.06 100.445 185.056 100.27 185.049 100.124C184.834 100.095 184.545 100.071 184.168 100.071C182.259 100.071 180.728 100.516 179.3 101.371C177.868 102.228 176.36 103.631 174.9 106.054L174.88 106.085C173.513 108.339 172.319 111.478 171.608 115.826L171.607 115.835L171.605 115.844C170.888 120.184 171.138 122.691 171.474 123.921C171.673 124.65 171.869 125.011 171.95 125.142C171.997 125.161 172.059 125.184 172.141 125.208C172.399 125.283 172.913 125.387 173.775 125.387L173.774 138.387L173.068 138.376C169.802 138.275 167.017 137.47 164.711 135.96L164.225 135.626C161.852 133.876 160.153 131.339 159.128 128.017L158.932 127.342C157.997 123.914 157.894 119.711 158.622 114.732L158.779 113.727C159.642 108.453 161.156 103.909 163.322 100.097L163.764 99.3445C166.018 95.6051 168.754 92.6975 171.974 90.6211L172.624 90.2166C176.127 88.12 179.975 87.0717 184.168 87.0717L184.572 87.0752C186.584 87.1126 188.406 87.4313 190.036 88.0305C191.774 88.6442 193.245 89.5519 194.446 90.7536L194.673 90.9814C195.788 92.138 196.632 93.5197 197.208 95.1257C197.821 96.8132 198.102 98.7564 198.051 100.955H214.62L225.148 101.368L218.908 138.953C218.203 140.233 217.442 141.489 216.626 142.721L216.627 142.722C216.621 142.731 216.614 142.74 216.608 142.75C216.601 142.76 216.595 142.77 216.589 142.779L216.588 142.778C213.63 147.271 210.003 151.233 205.779 154.658L205.756 154.678L205.732 154.697C201.33 158.232 196.396 160.976 191.023 162.966C185.276 165.094 179.188 166.076 172.892 166.076C163.717 166.076 155.063 163.948 147.514 159.116L147.488 159.101C139.809 154.161 134.439 147.063 131.303 138.474C128.073 129.628 127.771 119.822 129.415 109.656L129.421 109.622L129.427 109.589C131.091 99.636 134.446 90.6033 139.838 82.8857L139.845 82.877C145.063 75.4229 151.615 69.4886 159.517 65.4004L159.527 65.3955L159.537 65.3896C167.308 61.3868 175.667 59.3828 184.437 59.3828Z" fill="black"/>
</g>
<defs>
<filter id="filter0_d_4672_2655" x="0" y="0" width="1165.91" height="239" filterUnits="userSpaceOnUse" color-interpolation-filters="sRGB">
<feFlood flood-opacity="0" result="BackgroundImageFix"/>
<feColorMatrix in="SourceAlpha" type="matrix" values="0 0 0 0 0 0 0 0 0 0 0 0 0 0 0 0 0 0 127 0" result="hardAlpha"/>
<feOffset dx="16" dy="16"/>
<feGaussianBlur stdDeviation="2"/>
<feComposite in2="hardAlpha" operator="out"/>
<feColorMatrix type="matrix" values="0 0 0 0 0 0 0 0 0 0 0 0 0 0 0 0 0 0 0.25 0"/>
<feBlend mode="normal" in2="BackgroundImageFix" result="effect1_dropShadow_4672_2655"/>
<feBlend mode="normal" in="SourceGraphic" in2="effect1_dropShadow_4672_2655" result="shape"/>
</filter>
</defs>
</svg>
