<svg width="1264" height="225" viewBox="0 0 1264 225" fill="none" xmlns="http://www.w3.org/2000/svg">
<g filter="url(#filter0_d_4672_2736)">
<path d="M62.6607 0H140.339V103.535H203L101.5 205L0 103.535H62.6607V0Z" fill="white"/>
<path d="M127.339 13H75.6611V116.535H31.3916L101.5 186.618L171.608 116.535H127.339V13ZM203 103.535L101.5 205L0 103.535H62.6607V0H140.339V103.535H203Z" fill="black"/>
<path d="M1230.79 89.8857L1215.95 90.8061C1215.88 89.5021 1215.52 88.3388 1214.88 87.316C1214.26 86.2678 1213.36 85.4368 1212.16 84.8232C1210.98 84.2095 1209.5 83.9027 1207.71 83.9027C1205.02 83.9027 1202.63 84.5163 1200.53 85.7436C1198.44 86.9709 1197.25 88.5433 1196.97 90.4609C1196.74 91.6882 1197.06 92.7237 1197.93 93.5675C1198.8 94.4112 1200.55 95.1271 1203.18 95.7152L1213.54 97.8629C1219.06 99.0391 1223.05 100.995 1225.5 103.731C1227.98 106.467 1228.86 110.046 1228.15 114.469C1227.51 118.228 1225.86 121.513 1223.2 124.326C1220.54 127.113 1217.17 129.286 1213.08 130.846C1208.99 132.38 1204.45 133.147 1199.46 133.147C1191.46 133.147 1185.37 131.511 1181.21 128.238C1177.04 124.965 1175.03 120.529 1175.18 114.93L1191.14 114.086C1191.27 116.489 1192.11 118.305 1193.67 119.532C1195.23 120.734 1197.36 121.347 1200.07 121.373C1203.12 121.424 1205.7 120.798 1207.82 119.494C1209.97 118.164 1211.18 116.553 1211.47 114.661C1211.67 113.332 1211.29 112.258 1210.31 111.44C1209.37 110.621 1207.63 109.944 1205.1 109.407L1195.28 107.374C1189.71 106.224 1185.71 104.165 1183.28 101.2C1180.85 98.2337 1180.02 94.4624 1180.78 89.8857C1181.4 86.2294 1182.92 83.0973 1185.35 80.4893C1187.8 77.8558 1190.96 75.8359 1194.82 74.4297C1198.71 73.0234 1203.09 72.3203 1207.98 72.3203C1215.62 72.3203 1221.37 73.8928 1225.23 77.0376C1229.12 80.1825 1230.97 84.4652 1230.79 89.8857Z" fill="white"/>
<path d="M1130.83 97.9396L1125.15 131.996H1108.85L1118.67 73.0874H1134.2L1132.51 83.4808H1133.17C1135.03 80.0291 1137.67 77.3061 1141.07 75.3118C1144.49 73.3175 1148.39 72.3203 1152.76 72.3203C1156.86 72.3203 1160.27 73.2152 1163.01 75.005C1165.77 76.7947 1167.71 79.3388 1168.83 82.6371C1169.99 85.9354 1170.18 89.8857 1169.41 94.4879L1163.12 131.996H1146.78L1152.57 97.4027C1153.16 93.7976 1152.7 90.9851 1151.19 88.9652C1149.71 86.9197 1147.32 85.897 1144.02 85.897C1141.82 85.897 1139.8 86.37 1137.96 87.316C1136.12 88.2621 1134.57 89.6428 1133.32 91.4581C1132.09 93.2479 1131.26 95.4084 1130.83 97.9396Z" fill="white"/>
<path d="M1070.28 133.147C1064.27 133.147 1059.29 131.869 1055.36 129.312C1051.42 126.729 1048.64 123.15 1047.03 118.573C1045.45 113.971 1045.15 108.614 1046.15 102.504C1047.12 96.4695 1049.14 91.1896 1052.21 86.6641C1055.28 82.1385 1059.18 78.6229 1063.91 76.1172C1068.64 73.5859 1073.97 72.3203 1079.9 72.3203C1085.88 72.3203 1090.84 73.6115 1094.78 76.1939C1098.72 78.7507 1101.49 82.3303 1103.1 86.9325C1104.72 91.5348 1105.02 96.8913 1104.03 103.002C1103.03 109.011 1100.98 114.278 1097.89 118.803C1094.8 123.329 1090.9 126.857 1086.19 129.388C1081.49 131.894 1076.18 133.147 1070.28 133.147ZM1071.89 120.491C1074.65 120.491 1077.09 119.711 1079.21 118.151C1081.36 116.566 1083.14 114.418 1084.54 111.708C1085.97 108.972 1086.97 105.879 1087.53 102.427C1088.1 99.0263 1088.13 96.0092 1087.65 93.3757C1087.16 90.7166 1086.14 88.62 1084.58 87.0859C1083.05 85.5518 1080.94 84.7848 1078.25 84.7848C1075.49 84.7848 1073.04 85.5774 1070.89 87.1626C1068.74 88.7223 1066.96 90.87 1065.56 93.6058C1064.15 96.3416 1063.17 99.4482 1062.6 102.925C1062.07 106.3 1062.03 109.317 1062.49 111.977C1062.95 114.61 1063.96 116.694 1065.52 118.228C1067.08 119.737 1069.2 120.491 1071.89 120.491Z" fill="white"/>
<path d="M1015.23 132.001L1025.05 73.0916H1041.39L1031.57 132.001H1015.23ZM1034.91 65.4212C1032.48 65.4212 1030.47 64.6158 1028.89 63.005C1027.33 61.3686 1026.69 59.4254 1026.97 57.1754C1027.25 54.8743 1028.35 52.9311 1030.27 51.3459C1032.19 49.7351 1034.36 48.9297 1036.79 48.9297C1039.22 48.9297 1041.2 49.7351 1042.73 51.3459C1044.27 52.9311 1044.91 54.8743 1044.65 57.1754C1044.39 59.4254 1043.31 61.3686 1041.39 63.005C1039.5 64.6158 1037.34 65.4212 1034.91 65.4212Z" fill="white"/>
<path d="M1015.49 73.0902L1013.46 85.3629H977.945L980.016 73.0902H1015.49ZM990.371 58.9766H1006.71L997.582 113.897C997.326 115.406 997.364 116.582 997.697 117.425C998.029 118.244 998.579 118.819 999.346 119.151C1000.14 119.484 1001.08 119.65 1002.18 119.65C1002.95 119.65 1003.73 119.586 1004.52 119.458C1005.32 119.305 1005.92 119.19 1006.33 119.113L1006.94 131.271C1006.02 131.552 1004.78 131.859 1003.22 132.191C1001.69 132.523 999.87 132.728 997.773 132.805C993.785 132.958 990.41 132.434 987.648 131.232C984.887 130.005 982.906 128.126 981.704 125.594C980.502 123.063 980.246 119.88 980.937 116.045L990.371 58.9766Z" fill="white"/>
<path d="M938.494 133.147C932.434 133.147 927.448 131.869 923.536 129.312C919.65 126.729 916.927 123.15 915.367 118.573C913.833 113.996 913.565 108.729 914.562 102.772C915.533 96.7379 917.566 91.4453 920.66 86.8942C923.754 82.3175 927.678 78.7507 932.434 76.1939C937.215 73.6115 942.585 72.3203 948.542 72.3203C953.681 72.3203 958.028 73.2536 961.582 75.12C965.136 76.9865 967.744 79.6072 969.406 82.9822C971.068 86.3572 971.63 90.3203 971.093 94.8714H955.714C955.739 91.9567 954.985 89.5916 953.451 87.7763C951.917 85.9609 949.667 85.0533 946.701 85.0533C944.144 85.0533 941.792 85.7436 939.644 87.1243C937.522 88.4794 935.72 90.4609 934.237 93.0689C932.779 95.6768 931.757 98.8345 931.168 102.542C930.555 106.3 930.542 109.496 931.13 112.13C931.718 114.763 932.843 116.771 934.505 118.151C936.167 119.532 938.264 120.222 940.795 120.222C942.687 120.222 944.438 119.839 946.049 119.072C947.685 118.305 949.117 117.192 950.345 115.735C951.572 114.252 952.518 112.475 953.183 110.404H968.6C967.552 114.93 965.647 118.893 962.886 122.293C960.15 125.694 956.711 128.353 952.569 130.271C948.427 132.188 943.735 133.147 938.494 133.147Z" fill="white"/>
<path d="M883.688 132.001L893.506 73.0916H909.844L900.026 132.001H883.688ZM903.362 65.4212C900.933 65.4212 898.926 64.6158 897.341 63.005C895.781 61.3686 895.142 59.4254 895.423 57.1754C895.705 54.8743 896.804 52.9311 898.722 51.3459C900.639 49.7351 902.813 48.9297 905.242 48.9297C907.67 48.9297 909.652 49.7351 911.186 51.3459C912.72 52.9311 913.359 54.8743 913.104 57.1754C912.848 59.4254 911.761 61.3686 909.844 63.005C907.952 64.6158 905.791 65.4212 903.362 65.4212Z" fill="white"/>
<path d="M837.736 132.957C833.236 132.957 829.363 131.807 826.115 129.506C822.894 127.179 820.593 123.766 819.212 119.266C817.857 114.74 817.729 109.192 818.828 102.621C819.953 95.8707 821.973 90.2585 824.888 85.7841C827.803 81.2841 831.255 77.9219 835.243 75.6974C839.232 73.4474 843.387 72.3224 847.708 72.3224C850.98 72.3224 853.627 72.8849 855.647 74.0099C857.692 75.1094 859.265 76.4901 860.364 78.152C861.463 79.7884 862.231 81.3991 862.665 82.9844H863.164L868.111 53.4531H884.411L871.371 131.999H855.263L856.836 122.564H856.145C855.123 124.2 853.767 125.824 852.08 127.435C850.418 129.02 848.398 130.337 846.02 131.385C843.668 132.433 840.907 132.957 837.736 132.957ZM844.946 119.956C847.554 119.956 849.907 119.24 852.003 117.808C854.1 116.351 855.864 114.318 857.296 111.71C858.728 109.102 859.725 106.047 860.287 102.544C860.875 99.0412 860.888 95.9986 860.326 93.4162C859.763 90.8338 858.664 88.8395 857.027 87.4332C855.417 86.027 853.282 85.3239 850.623 85.3239C847.938 85.3239 845.56 86.0526 843.489 87.5099C841.444 88.9673 839.743 90.9872 838.388 93.5696C837.059 96.152 836.113 99.1435 835.55 102.544C834.988 105.97 834.949 109 835.435 111.634C835.921 114.241 836.956 116.287 838.542 117.77C840.127 119.227 842.262 119.956 844.946 119.956Z" fill="white"/>
<path d="M779.225 133.147C773.191 133.147 768.193 131.92 764.23 129.465C760.267 126.985 757.48 123.482 755.869 118.957C754.284 114.406 754.015 109.023 755.063 102.81C756.086 96.7507 758.144 91.4325 761.238 86.8558C764.357 82.2791 768.269 78.7124 772.974 76.1555C777.678 73.5987 782.92 72.3203 788.698 72.3203C792.585 72.3203 796.1 72.9467 799.245 74.1996C802.416 75.4268 805.049 77.2933 807.146 79.799C809.242 82.2791 810.674 85.3857 811.441 89.1186C812.234 92.8516 812.221 97.2237 811.403 102.235L810.674 106.722H760.97L762.542 96.5973H796.906C797.289 94.245 797.136 92.1612 796.446 90.3459C795.755 88.5305 794.605 87.1115 792.994 86.0888C791.383 85.0405 789.402 84.5163 787.049 84.5163C784.646 84.5163 782.396 85.1044 780.299 86.2805C778.203 87.4567 776.438 89.0035 775.007 90.9212C773.6 92.8132 772.693 94.8715 772.284 97.0959L770.481 107.144C769.97 110.238 770.072 112.808 770.788 114.853C771.529 116.898 772.808 118.433 774.623 119.455C776.438 120.452 778.74 120.951 781.526 120.951C783.342 120.951 785.042 120.695 786.627 120.184C788.238 119.673 789.67 118.918 790.923 117.921C792.176 116.898 793.198 115.633 793.991 114.124L808.91 115.121C807.529 118.752 805.433 121.923 802.62 124.633C799.808 127.317 796.42 129.414 792.457 130.923C788.519 132.406 784.109 133.147 779.225 133.147Z" fill="white"/>
<path d="M712.164 132.003L721.982 73.0938H737.822L736.096 83.3722H736.71C738.397 79.7159 740.66 76.9545 743.498 75.0881C746.361 73.196 749.442 72.25 752.741 72.25C753.559 72.25 754.415 72.3011 755.31 72.4034C756.231 72.4801 757.049 72.608 757.765 72.7869L755.31 87.3224C754.594 87.0668 753.572 86.8622 752.242 86.7088C750.938 86.5298 749.698 86.4403 748.522 86.4403C746.144 86.4403 743.933 86.9645 741.887 88.0128C739.842 89.0355 738.116 90.4673 736.71 92.3082C735.329 94.1492 734.421 96.2713 733.987 98.6747L728.502 132.003H712.164Z" fill="white"/>
<path d="M643.625 131.999L656.665 53.4531H687.653C693.585 53.4531 698.456 54.5909 702.266 56.8665C706.101 59.1165 708.786 62.2486 710.32 66.2628C711.879 70.2514 712.237 74.8537 711.393 80.0696C710.524 85.3111 708.632 89.9261 705.717 93.9148C702.828 97.8778 699.07 100.972 694.442 103.196C689.814 105.42 684.47 106.533 678.411 106.533H658.659L660.845 93.2244H677.912C681.134 93.2244 683.882 92.6747 686.158 91.5753C688.459 90.4503 690.287 88.9034 691.642 86.9347C692.997 84.9403 693.879 82.652 694.288 80.0696C694.723 77.4361 694.582 75.1477 693.867 73.2045C693.151 71.2614 691.834 69.7528 689.916 68.679C688.024 67.5795 685.48 67.0298 682.284 67.0298H671.085L660.232 131.999H643.625Z" fill="white"/>
<path d="M597.369 132.957C592.869 132.957 588.995 131.807 585.748 129.506C582.527 127.179 580.226 123.766 578.845 119.266C577.49 114.74 577.362 109.192 578.461 102.621C579.586 95.8707 581.606 90.2585 584.521 85.7841C587.436 81.2841 590.887 77.9219 594.876 75.6974C598.865 73.4474 603.02 72.3224 607.341 72.3224C610.613 72.3224 613.26 72.8849 615.28 74.0099C617.325 75.1094 618.897 76.4901 619.997 78.152C621.096 79.7884 621.863 81.3991 622.298 82.9844H622.797L627.744 53.4531H644.044L631.004 131.999H614.896L616.468 122.564H615.778C614.755 124.2 613.4 125.824 611.713 127.435C610.051 129.02 608.031 130.337 605.653 131.385C603.301 132.433 600.539 132.957 597.369 132.957ZM604.579 119.956C607.187 119.956 609.539 119.24 611.636 117.808C613.733 116.351 615.497 114.318 616.929 111.71C618.361 109.102 619.358 106.047 619.92 102.544C620.508 99.0412 620.521 95.9986 619.958 93.4162C619.396 90.8338 618.297 88.8395 616.66 87.4332C615.049 86.027 612.914 85.3239 610.255 85.3239C607.571 85.3239 605.193 86.0526 603.122 87.5099C601.076 88.9673 599.376 90.9872 598.021 93.5696C596.691 96.152 595.745 99.1435 595.183 102.544C594.62 105.97 594.582 109 595.068 111.634C595.554 114.241 596.589 116.287 598.174 117.77C599.76 119.227 601.895 119.956 604.579 119.956Z" fill="white"/>
<path d="M530.816 133.109C527.083 133.109 523.849 132.457 521.113 131.153C518.403 129.823 516.408 127.854 515.13 125.246C513.852 122.638 513.532 119.404 514.171 115.543C514.734 112.271 515.795 109.535 517.354 107.336C518.94 105.112 520.87 103.322 523.146 101.967C525.421 100.612 527.94 99.576 530.701 98.8601C533.488 98.1442 536.364 97.6584 539.33 97.4027C542.756 97.0447 545.543 96.6996 547.691 96.3672C549.864 96.0348 551.488 95.5618 552.562 94.9482C553.636 94.3089 554.288 93.3629 554.518 92.1101V91.88C554.901 89.4766 554.454 87.6101 553.175 86.2805C551.923 84.9254 549.915 84.2479 547.154 84.2479C544.239 84.2479 541.759 84.8871 539.714 86.1655C537.694 87.4439 536.249 89.0675 535.38 91.0362L520.499 89.8089C521.829 86.2294 523.836 83.1356 526.521 80.5277C529.231 77.8942 532.491 75.8743 536.3 74.468C540.11 73.0362 544.38 72.3203 549.11 72.3203C552.383 72.3203 555.438 72.7038 558.276 73.4709C561.14 74.2379 563.607 75.4269 565.678 77.0376C567.775 78.6484 569.283 80.7195 570.204 83.2507C571.15 85.7564 571.342 88.7606 570.779 92.2635L564.144 131.996H548.65L550.031 123.827H549.57C548.317 125.668 546.783 127.292 544.968 128.698C543.153 130.079 541.069 131.165 538.717 131.958C536.364 132.725 533.731 133.109 530.816 133.109ZM537.374 121.833C539.752 121.833 541.938 121.36 543.932 120.414C545.952 119.442 547.614 118.138 548.918 116.502C550.248 114.866 551.092 113.012 551.45 110.941L552.447 104.69C551.935 105.022 551.194 105.316 550.222 105.572C549.276 105.827 548.241 106.07 547.116 106.3C546.016 106.505 544.904 106.697 543.779 106.876C542.654 107.029 541.644 107.183 540.749 107.336C538.781 107.617 537.016 108.065 535.457 108.678C533.897 109.292 532.631 110.123 531.66 111.171C530.688 112.194 530.087 113.472 529.857 115.006C529.499 117.231 530.023 118.931 531.43 120.107C532.862 121.258 534.843 121.833 537.374 121.833Z" fill="white"/>
<path d="M475.709 133.147C469.7 133.147 464.727 131.869 460.79 129.312C456.852 126.729 454.078 123.15 452.467 118.573C450.882 113.971 450.588 108.614 451.585 102.504C452.557 96.4695 454.577 91.1896 457.645 86.6641C460.713 82.1385 464.612 78.6229 469.342 76.1172C474.073 73.5859 479.404 72.3203 485.335 72.3203C491.318 72.3203 496.279 73.6115 500.216 76.1939C504.154 78.7507 506.928 82.3303 508.539 86.9325C510.149 91.5348 510.456 96.8913 509.459 103.002C508.462 109.011 506.416 114.278 503.323 118.803C500.229 123.329 496.33 126.857 491.625 129.388C486.921 131.894 481.615 133.147 475.709 133.147ZM477.32 120.491C480.081 120.491 482.523 119.711 484.645 118.151C486.793 116.566 488.57 114.418 489.976 111.708C491.408 108.972 492.405 105.879 492.967 102.427C493.53 99.0263 493.568 96.0092 493.083 93.3757C492.597 90.7166 491.574 88.62 490.014 87.0859C488.48 85.5518 486.371 84.7848 483.686 84.7848C480.925 84.7848 478.47 85.5774 476.323 87.1626C474.175 88.7223 472.398 90.87 470.992 93.6058C469.585 96.3416 468.601 99.4482 468.039 102.925C467.502 106.3 467.463 109.317 467.923 111.977C468.384 114.61 469.394 116.694 470.953 118.228C472.513 119.737 474.635 120.491 477.32 120.491Z" fill="white"/>
<path d="M450.046 53.4531L437.006 131.999H420.668L433.708 53.4531H450.046Z" fill="white"/>
<path d="M376.656 97.9396L370.979 131.996H354.68L364.498 73.0874H380.031L378.343 83.4808H378.995C380.862 80.0291 383.495 77.3061 386.896 75.3118C390.322 73.3175 394.221 72.3203 398.593 72.3203C402.684 72.3203 406.097 73.2152 408.833 75.005C411.594 76.7947 413.538 79.3388 414.663 82.6371C415.813 85.9354 416.005 89.8857 415.238 94.4879L408.948 131.996H392.61L398.401 97.4027C398.989 93.7976 398.529 90.9851 397.021 88.9652C395.538 86.9197 393.147 85.897 389.849 85.897C387.65 85.897 385.63 86.37 383.789 87.316C381.948 88.2621 380.401 89.6428 379.148 91.4581C377.921 93.2479 377.09 95.4084 376.656 97.9396Z" fill="white"/>
<path d="M275.404 132.003L269.191 73.0938H285.721L288.253 112.673H288.789L304.897 73.0938H321.12L324.189 112.443H324.687L340.258 73.0938H356.75L330.939 132.003H313.642L309.653 94.9545H308.924L292.663 132.003H275.404Z" fill="white"/>
<path d="M226.799 133.147C220.79 133.147 215.817 131.869 211.88 129.312C207.942 126.729 205.168 123.15 203.557 118.573C201.972 113.971 201.678 108.614 202.675 102.504C203.647 96.4695 205.667 91.1896 208.735 86.6641C211.803 82.1385 215.702 78.6229 220.432 76.1172C225.162 73.5859 230.493 72.3203 236.425 72.3203C242.408 72.3203 247.368 73.6115 251.306 76.1939C255.243 78.7507 258.018 82.3303 259.628 86.9325C261.239 91.5348 261.546 96.8913 260.549 103.002C259.552 109.011 257.506 114.278 254.412 118.803C251.319 123.329 247.42 126.857 242.715 129.388C238.01 131.894 232.705 133.147 226.799 133.147ZM228.41 120.491C231.171 120.491 233.613 119.711 235.735 118.151C237.883 116.566 239.66 114.418 241.066 111.708C242.498 108.972 243.495 105.879 244.057 102.427C244.62 99.0263 244.658 96.0092 244.172 93.3757C243.687 90.7166 242.664 88.62 241.104 87.0859C239.57 85.5518 237.461 84.7848 234.776 84.7848C232.015 84.7848 229.56 85.5774 227.412 87.1626C225.265 88.7223 223.488 90.87 222.081 93.6058C220.675 96.3416 219.691 99.4482 219.128 102.925C218.591 106.3 218.553 109.317 219.013 111.977C219.474 114.61 220.483 116.694 222.043 118.228C223.603 119.737 225.725 120.491 228.41 120.491Z" fill="white"/>
<path d="M151.145 131.999H122.918L135.958 53.4531H163.648C171.549 53.4531 178.107 55.0639 183.323 58.2855C188.564 61.5071 192.259 66.1222 194.407 72.1307C196.554 78.1136 196.938 85.2599 195.557 93.5696C194.228 101.598 191.581 108.489 187.618 114.241C183.655 119.969 178.58 124.366 172.392 127.435C166.205 130.477 159.123 131.999 151.145 131.999ZM141.902 117.77H152.104C157.039 117.77 161.36 116.849 165.067 115.009C168.8 113.168 171.855 110.33 174.233 106.494C176.637 102.659 178.337 97.75 179.334 91.767C180.28 86.0909 180.216 81.4886 179.142 77.9602C178.094 74.4062 176.061 71.8111 173.044 70.1747C170.027 68.5128 166.064 67.6818 161.155 67.6818H150.225L141.902 117.77Z" fill="white"/>
<path d="M1207.98 59.3281C1217.09 59.3282 1226.31 61.1534 1233.45 66.9658C1240.77 72.9134 1244.09 81.2426 1243.79 90.3223L1243.4 102.137L1239.7 102.365C1241.47 106.93 1241.75 111.833 1240.98 116.554L1240.97 116.605L1240.97 116.656C1239.89 122.99 1237.04 128.615 1232.65 133.265L1232.61 133.308C1228.44 137.674 1223.36 140.846 1217.71 143L1217.64 143.025C1211.9 145.178 1205.79 146.154 1199.46 146.154C1189.96 146.154 1180.54 144.254 1173.18 138.47C1168.89 135.1 1165.86 130.94 1164.08 126.261L1168.1 102.293L1169.09 102.24C1168.85 101.572 1168.63 100.897 1168.45 100.218L1169.41 94.4951C1170.13 90.1806 1170.01 86.439 1169.04 83.2705C1170.4 78.9696 1172.67 75.039 1175.83 71.6367L1175.84 71.6328C1179.88 67.2989 1184.86 64.2311 1190.37 62.2227L1190.38 62.2178L1190.4 62.2129C1195.93 60.2098 1201.85 59.3281 1207.98 59.3281ZM1207.98 72.3281C1203.09 72.3281 1198.71 73.0312 1194.82 74.4375C1190.96 75.8437 1187.8 77.8636 1185.35 80.4971C1182.92 83.105 1181.4 86.2373 1180.78 89.8936C1180.02 94.47 1180.85 98.2412 1183.28 101.207C1185.71 104.173 1189.71 106.231 1195.28 107.382L1205.1 109.414C1207.63 109.951 1209.37 110.629 1210.32 111.447C1211.29 112.265 1211.67 113.339 1211.47 114.669L1211.4 115.021C1211.03 116.761 1209.84 118.255 1207.82 119.501C1205.7 120.805 1203.12 121.431 1200.08 121.38C1197.37 121.354 1195.23 120.741 1193.67 119.539C1192.11 118.312 1191.27 116.497 1191.14 114.094L1175.18 114.938L1175.18 115.459C1175.16 120.813 1177.17 125.075 1181.21 128.245C1185.37 131.518 1191.46 133.154 1199.46 133.154C1204.45 133.154 1208.99 132.388 1213.08 130.854C1216.91 129.391 1220.12 127.39 1222.7 124.849L1223.2 124.333C1225.86 121.521 1227.51 118.235 1228.15 114.477C1228.87 110.053 1227.98 106.474 1225.5 103.738C1223.05 101.003 1219.06 99.0462 1213.54 97.8701L1203.18 95.7227C1200.71 95.1714 1199.02 94.5074 1198.1 93.7314L1197.93 93.5752C1197.11 92.7842 1196.78 91.8244 1196.93 90.6963L1196.97 90.4688C1197.25 88.5511 1198.44 86.9783 1200.54 85.751C1202.63 84.5238 1205.02 83.9102 1207.71 83.9102C1209.5 83.9102 1210.98 84.2175 1212.16 84.8311C1213.36 85.4447 1214.27 86.275 1214.88 87.3232C1215.52 88.3459 1215.88 89.5095 1215.95 90.8135L1230.8 89.8936C1230.97 84.4731 1229.12 80.1898 1225.23 77.0449C1221.37 73.9002 1215.62 72.3282 1207.98 72.3281Z" fill="black"/>
<path d="M1152.76 59.3281C1158.73 59.3281 1164.76 60.6417 1170.07 64.1035C1170.07 64.1042 1170.08 64.1048 1170.08 64.1055C1170.09 64.1149 1170.11 64.1243 1170.12 64.1338C1175.43 67.5897 1179.1 72.5319 1181.11 78.3623C1181.81 80.3661 1182.28 82.4094 1182.55 84.4697C1181.7 86.1276 1181.11 87.9349 1180.78 89.8936C1180.38 92.2902 1180.42 94.466 1180.89 96.4209L1169.41 94.4951C1170.18 89.8929 1169.98 85.9428 1168.83 82.6445C1167.78 79.5523 1166 77.1228 1163.51 75.3564L1163 75.0127C1160.44 73.3347 1157.28 72.4427 1153.52 72.3379L1152.76 72.3281C1148.39 72.3281 1144.49 73.3251 1141.07 75.3193C1137.67 77.3136 1135.03 80.0367 1133.17 83.4883H1132.51L1134.2 73.0947H1118.67L1108.85 132.004H1125.15L1130.83 97.9473C1131.26 95.416 1132.09 93.2556 1133.32 91.4658C1134.57 89.6505 1136.12 88.2693 1137.96 87.3232C1139.8 86.3774 1141.82 85.9043 1144.02 85.9043C1147.32 85.9043 1149.71 86.9273 1151.19 88.9727L1151.33 89.1641C1152.73 91.1688 1153.14 93.9175 1152.57 97.4102L1146.78 132.004H1163.12L1169.41 94.4951L1180.89 96.4209C1181.11 97.3257 1181.43 98.183 1181.83 98.9932L1179.2 114.725L1175.18 114.938C1175.09 118.551 1175.89 121.68 1177.59 124.324L1174.12 145.004H1093.5L1097.86 118.843C1097.87 118.832 1097.88 118.821 1097.89 118.811C1100.98 114.285 1103.03 109.018 1104.02 103.01C1105.01 96.9671 1104.72 91.6623 1103.16 87.0947L1107.66 60.0947H1145.02C1147.55 59.5773 1150.14 59.3281 1152.76 59.3281Z" fill="black"/>
<path d="M1079.9 59.3281C1087.72 59.3281 1095.31 61.0193 1101.86 65.2988C1108.31 69.487 1112.85 75.4396 1115.38 82.6455C1115.8 83.8654 1116.16 85.1004 1116.46 86.3477L1113.42 104.568L1104.02 103.01C1104.99 97.0901 1104.73 91.878 1103.25 87.374L1103.1 86.9404C1101.54 82.4819 1098.89 78.9832 1095.15 76.4443L1094.78 76.2012C1090.84 73.6188 1085.88 72.3281 1079.9 72.3281C1073.97 72.3281 1068.64 73.5938 1063.91 76.125L1063.47 76.3623C1058.94 78.8508 1055.18 82.2876 1052.21 86.6719L1051.93 87.0977C1049.02 91.5275 1047.09 96.6652 1046.15 102.511C1045.15 108.622 1045.45 113.979 1047.03 118.581C1048.64 123.158 1051.42 126.737 1055.36 129.319C1059.29 131.876 1064.27 133.154 1070.28 133.154C1076 133.154 1081.15 131.978 1085.75 129.627L1086.19 129.396C1090.6 127.022 1094.3 123.773 1097.3 119.647L1097.89 118.811C1100.98 114.285 1103.03 109.018 1104.02 103.01L1113.42 104.568L1110.25 123.585C1109.74 124.453 1109.19 125.308 1108.62 126.147C1104.38 132.343 1098.94 137.301 1092.35 140.844L1092.33 140.857L1092.3 140.87C1085.52 144.482 1078.08 146.154 1070.28 146.154C1062.45 146.154 1054.84 144.484 1048.28 140.223L1048.25 140.206L1048.23 140.189C1041.83 135.994 1037.3 130.074 1034.77 122.896L1034.76 122.855L1034.74 122.814C1034.34 121.633 1033.99 120.437 1033.7 119.229L1039.95 81.7295C1040.43 80.9327 1040.93 80.1479 1041.45 79.376C1045.55 73.3265 1050.83 68.4713 1057.2 64.9717L1057.82 64.6367C1064.62 61.0102 1072.08 59.3281 1079.9 59.3281ZM1078.25 84.792C1080.94 84.792 1083.05 85.5597 1084.58 87.0938C1086.14 88.6278 1087.16 90.7239 1087.65 93.3828C1088.13 96.0163 1088.1 99.034 1087.53 102.435L1087.42 103.077C1086.84 106.271 1085.88 109.151 1084.54 111.716C1083.14 114.426 1081.36 116.574 1079.21 118.159L1078.81 118.442C1076.78 119.813 1074.47 120.498 1071.89 120.498C1069.2 120.498 1067.08 119.744 1065.52 118.235C1063.96 116.701 1062.95 114.618 1062.49 111.984C1062.03 109.325 1062.07 106.308 1062.6 102.933C1063.13 99.6729 1064.03 96.739 1065.3 94.1309L1065.56 93.6133C1066.96 90.8775 1068.74 88.7296 1070.89 87.1699C1073.04 85.5848 1075.49 84.792 1078.25 84.792Z" fill="black"/>
<path d="M1037.32 35.9355C1042.73 36.0569 1047.99 38.0575 1052.08 42.3057C1052.09 42.3175 1052.1 42.3299 1052.11 42.3418C1052.12 42.3549 1052.14 42.3677 1052.15 42.3809C1056.48 46.8946 1058.23 52.7111 1057.57 58.6113L1057.57 58.627L1057.57 58.6436C1057.33 60.7985 1056.77 62.8102 1055.98 64.668L1052.34 86.4834C1052.3 86.5453 1052.25 86.6066 1052.21 86.6689C1049.14 91.1944 1047.12 96.474 1046.15 102.508C1045.16 108.581 1045.45 113.91 1047.01 118.493L1042.59 145.001H999.891L1001.99 132.422C1002.42 132.354 1002.83 132.277 1003.22 132.192C1004.78 131.86 1006.02 131.554 1006.94 131.272L1006.33 119.114C1005.92 119.191 1005.32 119.307 1004.52 119.46C1004.4 119.481 1004.27 119.496 1004.14 119.514L1009.83 85.3643H1013.46L1015.49 73.0918H1011.88L1014.01 60.2559C1013.86 58.7345 1013.87 57.1759 1014.07 55.5986L1014.14 55.0518C1014.96 49.4715 1017.81 44.8096 1021.91 41.3916C1026.09 37.88 1031.2 35.9297 1036.79 35.9297L1037.32 35.9355ZM1025.05 73.0918L1015.24 132.001H1031.58L1041.39 73.0918H1025.05ZM1036.79 48.9297C1034.36 48.9297 1032.19 49.7352 1030.27 51.3457C1028.35 52.9309 1027.25 54.8746 1026.97 57.1758C1026.69 59.4257 1027.33 61.3686 1028.89 63.0049C1030.48 64.6157 1032.48 65.4219 1034.91 65.4219C1037.34 65.4218 1039.5 64.6156 1041.39 63.0049C1043.19 61.4708 1044.26 59.6671 1044.6 57.5938L1044.65 57.1758C1044.91 54.8746 1044.27 52.9309 1042.74 51.3457C1041.2 49.7351 1039.22 48.9297 1036.79 48.9297Z" fill="black"/>
<path d="M1022.05 45.9766L1019.7 60.0898H1027.17C1027.48 61.1499 1028.05 62.1211 1028.89 63.0029C1029.29 63.407 1029.71 63.7608 1030.16 64.0635L1028.67 73.0898H1025.05L1020.84 98.3623H1013.34L1012.27 104.77L1018.56 103.593L1018.89 110.094L1015.24 131.999H1019.99L1020.43 140.74L1010.74 143.703C1009.3 144.142 1007.65 144.538 1005.93 144.905L1005.93 144.903C1003.46 145.434 1000.87 145.698 998.271 145.794C998.263 145.794 998.255 145.796 998.247 145.796L998.246 145.795C992.921 145.997 987.488 145.341 982.459 143.152L982.367 143.111C977.008 140.729 972.601 136.736 969.958 131.17C967.247 125.459 967.155 119.369 968.109 113.924L970.682 98.3623H962.566L963.155 94.874H971.095C971.632 90.3229 971.069 86.3594 969.407 82.9844C968.525 81.1935 967.374 79.6181 965.959 78.252L969.024 60.0898H977.009L979.343 45.9766H1022.05ZM990.37 58.9766L988.037 73.0898H980.015L977.943 85.3623H986.008L980.935 116.045C980.244 119.88 980.501 123.063 981.702 125.594C982.904 128.125 984.885 130.005 987.646 131.232C990.408 132.434 993.783 132.958 997.771 132.805C999.868 132.728 1001.68 132.523 1003.22 132.19C1004.78 131.858 1006.02 131.552 1006.94 131.271L1006.32 119.112C1005.92 119.189 1005.31 119.305 1004.52 119.458C1003.73 119.586 1002.95 119.649 1002.18 119.649C1001.22 119.649 1000.38 119.522 999.648 119.268L999.344 119.151C998.577 118.819 998.028 118.243 997.695 117.425C997.405 116.687 997.339 115.694 997.498 114.447L997.58 113.896L1002.32 85.3623H1013.46L1015.49 73.0898H1004.36L1006.71 58.9766H990.37Z" fill="black"/>
<path d="M948.544 59.3281C955.215 59.3281 961.76 60.5367 967.628 63.6182C972.63 66.245 976.779 69.9864 979.727 74.8066L977.944 85.3672H983.736C984.399 89.0013 984.441 92.7165 984.006 96.4023L983.887 97.4111H984.018L981.672 111.593L981.267 113.345C979.8 119.678 977.062 125.468 972.979 130.496L972.979 130.495C968.937 135.504 963.886 139.365 958.032 142.075C951.942 144.895 945.344 146.154 938.496 146.154C930.65 146.154 922.997 144.496 916.426 140.201L916.344 140.146C909.977 135.916 905.513 129.96 903.064 122.774L903.043 122.712C902.684 121.641 902.375 120.56 902.113 119.47L908.351 82.042C908.839 81.222 909.353 80.4151 909.892 79.6211C914.13 73.3505 919.615 68.3385 926.258 64.7627C933.115 61.0589 940.642 59.3281 948.544 59.3281ZM948.544 72.3281C942.587 72.3281 937.218 73.6189 932.437 76.2012L931.993 76.4443C927.436 78.9824 923.659 82.4677 920.662 86.9014L920.375 87.3301C917.442 91.7839 915.506 96.9338 914.564 102.779C913.567 108.737 913.835 114.004 915.369 118.581C916.929 123.158 919.652 126.737 923.538 129.319C927.328 131.796 932.125 133.073 937.931 133.15L938.496 133.154C943.737 133.154 948.429 132.196 952.571 130.278C956.713 128.361 960.152 125.701 962.888 122.301C965.649 118.9 967.554 114.937 968.603 110.411H953.185C952.52 112.482 951.574 114.259 950.347 115.742L950.114 116.012C948.94 117.338 947.585 118.36 946.051 119.079C944.44 119.846 942.689 120.229 940.797 120.229C938.424 120.229 936.433 119.623 934.824 118.409L934.507 118.159C932.949 116.865 931.863 115.019 931.249 112.624L931.132 112.138C930.544 109.504 930.557 106.308 931.171 102.55C931.759 98.8424 932.781 95.6841 934.238 93.0762C935.721 90.4682 937.524 88.487 939.646 87.1318C941.794 85.7512 944.146 85.0606 946.703 85.0605C949.669 85.0605 951.919 85.9688 953.453 87.7842C954.987 89.5995 955.741 91.9643 955.716 94.8789H971.096C971.633 90.3278 971.07 86.3642 969.408 82.9893C967.85 79.8253 965.46 77.3245 962.239 75.4863L961.584 75.1279C958.03 73.2615 953.683 72.3281 948.544 72.3281Z" fill="black"/>
<path d="M905.767 35.9355C911.175 36.057 916.44 38.0575 920.525 42.3057C920.536 42.3169 920.548 42.3286 920.559 42.3398C920.572 42.3535 920.586 42.3671 920.599 42.3809C924.924 46.8946 926.678 52.7111 926.022 58.6113L926.021 58.627L926.019 58.6436C925.774 60.7988 925.223 62.8109 924.425 64.6689L920.738 86.7871C920.713 86.8244 920.686 86.861 920.661 86.8984C917.567 91.4495 915.535 96.7424 914.563 102.776C913.566 108.734 913.834 114.001 915.368 118.578C915.384 118.624 915.4 118.671 915.416 118.717L911.037 145.001H868.34L870.507 132.001H871.371L884.411 53.4551H882.888C883.978 48.5794 886.656 44.4782 890.358 41.3916C894.539 37.8801 899.651 35.9297 905.24 35.9297L905.767 35.9355ZM893.504 73.0918L883.686 132.001H900.024L909.842 73.0918H893.504ZM905.24 48.9297C902.811 48.9297 900.637 49.7349 898.72 51.3457C896.802 52.9309 895.703 54.8746 895.422 57.1758C895.141 59.4256 895.78 61.3686 897.339 63.0049C898.924 64.6156 900.932 65.4218 903.36 65.4219C905.789 65.4219 907.95 64.6156 909.842 63.0049C911.64 61.4707 912.708 59.6673 913.045 57.5938L913.103 57.1758C913.358 54.8746 912.719 52.9309 911.185 51.3457C909.651 49.7351 907.669 48.9298 905.24 48.9297Z" fill="black"/>
<path d="M899.746 40.4531L897.795 52.2021C896.445 53.615 895.653 55.272 895.421 57.1738C895.219 58.7914 895.494 60.2494 896.243 61.5498L894.328 73.0898H893.503L883.685 131.999H884.549L882.391 144.999H846.171C843.391 145.67 840.553 145.958 837.735 145.958C830.909 145.958 824.324 144.17 818.599 140.113L818.503 140.045C812.584 135.77 808.836 129.769 806.783 123.079L806.758 122.995C806.512 122.175 806.297 121.345 806.108 120.508C807.243 118.842 808.178 117.049 808.91 115.124L805.254 114.879C805.031 112.208 805.043 109.482 805.245 106.725H810.675L811.403 102.237C812.222 97.2261 812.234 92.854 811.441 89.1211C811.17 87.8005 810.813 86.5593 810.375 85.3955C811.413 83.0501 812.614 80.8084 813.995 78.6885C817.854 72.7388 822.766 67.7766 828.884 64.3584C834.693 61.0873 841.024 59.3233 847.707 59.3232C849.701 59.3232 851.776 59.4675 853.859 59.8369L857.107 40.4531H899.746ZM868.111 53.4531L863.164 82.9844H862.664C862.229 81.3993 861.463 79.7882 860.364 78.152C859.265 76.4901 857.692 75.1094 855.647 74.0099C853.753 72.9553 851.308 72.395 848.314 72.3291L847.707 72.3232C843.386 72.3233 839.231 73.4483 835.242 75.6982L834.501 76.1279C830.825 78.3466 827.621 81.5655 824.888 85.7841L824.617 86.207C821.848 90.6106 819.918 96.0815 818.828 102.621C817.729 109.192 817.856 114.74 819.211 119.266C820.592 123.766 822.894 127.179 826.115 129.506C829.16 131.663 832.754 132.81 836.899 132.944L837.736 132.957C840.907 132.957 843.667 132.434 846.02 131.386C848.397 130.338 850.417 129.021 852.079 127.436C853.767 125.825 855.123 124.2 856.145 122.564H856.836L855.263 131.999L871.37 131.999L884.411 53.4531H868.111ZM850.623 85.3239C853.282 85.3239 855.417 86.027 857.027 87.4332C858.664 88.8395 859.763 90.8338 860.326 93.4162C860.888 95.9986 860.875 99.0412 860.287 102.544L860.176 103.196C859.598 106.428 858.637 109.266 857.295 111.711C855.863 114.319 854.1 116.351 852.003 117.808C849.907 119.24 847.553 119.956 844.945 119.956C842.429 119.956 840.395 119.316 838.845 118.035L838.542 117.77C837.055 116.38 836.052 114.495 835.532 112.116L835.435 111.634C834.949 109 834.988 105.97 835.55 102.544C836.113 99.1435 837.059 96.152 838.388 93.5696C839.743 90.9873 841.443 88.9681 843.488 87.5107C845.559 86.0534 847.938 85.3239 850.623 85.3239Z" fill="black"/>
<path d="M788.697 59.3281C793.947 59.3281 799.087 60.1712 803.937 62.084C803.947 62.0878 803.957 62.0919 803.967 62.0957C803.996 62.1074 804.026 62.1181 804.056 62.1299C809.141 64.1196 813.577 67.2347 817.115 71.4639C820.797 75.838 823.027 80.9853 824.156 86.4258C824.185 86.5593 824.213 86.6933 824.239 86.8271C821.671 91.1217 819.867 96.3879 818.827 102.626C817.728 109.197 817.855 114.745 819.21 119.271C819.492 120.189 819.813 121.063 820.172 121.891C818.128 126.446 815.266 130.507 811.641 134.001L811.596 134.044C807.421 138.029 802.515 141.012 797.081 143.08L797.038 143.096C791.421 145.211 785.426 146.154 779.225 146.154C771.472 146.154 763.926 144.576 757.384 140.524L757.359 140.509L757.333 140.492C750.814 136.412 746.185 130.526 743.621 123.323L743.607 123.282L743.592 123.24C741.099 116.084 740.94 108.382 742.244 100.654C743.081 95.6961 744.494 90.9794 746.531 86.5693C747.181 86.4845 747.844 86.4414 748.521 86.4414C749.697 86.4414 750.937 86.531 752.24 86.71C753.57 86.8634 754.593 87.0676 755.309 87.3232L757.763 72.7881C757.32 72.6773 756.837 72.5882 756.316 72.5166C759.394 69.457 762.882 66.8522 766.766 64.7412C773.525 61.0679 780.927 59.3282 788.697 59.3281ZM788.697 72.3281C782.919 72.3282 777.678 73.6064 772.974 76.1631C768.269 78.7199 764.357 82.2866 761.237 86.8633C758.144 91.4399 756.085 96.7579 755.063 102.817C754.014 109.03 754.283 114.413 755.868 118.964C757.479 123.489 760.266 126.993 764.229 129.473C768.192 131.927 773.191 133.154 779.225 133.154C784.108 133.154 788.519 132.413 792.456 130.93C796.419 129.421 799.807 127.325 802.619 124.641C805.432 121.93 807.529 118.76 808.909 115.129L793.99 114.132C793.198 115.64 792.175 116.906 790.922 117.929C789.669 118.926 788.238 119.68 786.627 120.191C785.042 120.703 783.341 120.958 781.526 120.958C778.739 120.958 776.437 120.46 774.622 119.463C772.807 118.44 771.529 116.906 770.787 114.86C770.071 112.815 769.969 110.245 770.481 107.151L770.557 106.729H810.674L811.403 102.242C812.221 97.231 812.233 92.8588 811.441 89.126C810.722 85.6265 809.418 82.6778 807.53 80.2793L807.146 79.8066C805.049 77.301 802.415 75.4343 799.244 74.207C796.1 72.9543 792.584 72.3281 788.697 72.3281ZM787.049 84.5234C789.401 84.5235 791.383 85.0484 792.993 86.0967C794.604 87.1194 795.755 88.5383 796.445 90.3535C797.136 92.1687 797.289 94.2525 796.905 96.6045H772.385C772.833 94.5705 773.706 92.6784 775.006 90.9287C776.438 89.0111 778.202 87.4642 780.299 86.2881C782.396 85.112 784.646 84.5234 787.049 84.5234Z" fill="black"/>
<path d="M752.743 59.25C754.007 59.25 755.264 59.3257 756.51 59.459C757.929 59.5821 759.421 59.8 760.92 60.1748L772.588 63.0918L770.082 77.9316C766.644 80.2828 763.697 83.2594 761.241 86.8623C758.434 91.0147 756.483 95.7782 755.381 101.151L751.32 99.7002C751.293 99.6958 751.263 99.6908 751.229 99.6855C751.107 99.6671 750.95 99.6456 750.754 99.623L750.615 99.6074L750.477 99.5879C749.691 99.48 749.044 99.4404 748.524 99.4404C748.135 99.4404 747.964 99.5072 747.818 99.582L747.703 99.6406C747.466 99.7594 747.285 99.8956 747.079 100.154C746.991 100.281 746.877 100.494 746.791 100.938L739.54 145.003H696.82L705.224 94.5771C705.391 94.3602 705.558 94.1414 705.72 93.9189C708.634 89.9304 710.526 85.3155 711.396 80.0742C712.239 74.8585 711.882 70.2561 710.322 66.2676C710.236 66.0432 710.146 65.8215 710.053 65.6025L710.972 60.0938H745.73C747.992 59.5375 750.335 59.25 752.743 59.25ZM752.743 72.25C749.445 72.25 746.364 73.1959 743.5 75.0879C740.662 76.9543 738.399 79.7159 736.712 83.3721H736.098L737.824 73.0938H721.984L712.166 132.003H728.504L733.988 98.6748C734.423 96.2714 735.331 94.1495 736.712 92.3086C738.118 90.4677 739.844 89.0354 741.89 88.0127C743.935 86.9645 746.147 86.4404 748.524 86.4404C749.7 86.4404 750.94 86.53 752.244 86.709C753.574 86.8624 754.597 87.0666 755.312 87.3223L757.767 72.7871C757.051 72.6082 756.233 72.48 755.312 72.4033C754.418 72.3011 753.561 72.25 752.743 72.25Z" fill="black"/>
<path d="M687.653 40.4531L687.653 53.4531H656.665L643.625 131.999H660.232L664.486 106.533L678.411 106.533L679.538 106.521C684.949 106.395 689.771 105.354 694.006 103.401L694.442 103.196C699.07 100.972 702.828 97.8778 705.717 93.9148C708.632 89.9261 710.524 85.3111 711.393 80.0696L720.565 81.5908L717.558 99.6328C717.131 100.289 716.687 100.936 716.222 101.572L716.223 101.573C712.009 107.353 706.542 111.804 700.074 114.913C693.4 118.121 686.072 119.533 678.411 119.533H675.494L671.24 144.999H628.289L630.447 131.999L631.004 131.999L644.044 53.4531H643.487L645.646 40.4531H687.653ZM682.284 67.0298C685.48 67.0298 688.024 67.5795 689.916 68.679C691.834 69.7528 693.151 71.2614 693.867 73.2045C694.582 75.1477 694.723 77.4361 694.288 80.0696L694.206 80.5508C693.767 82.9373 692.913 85.0659 691.643 86.9355L691.383 87.2988C690.057 89.0953 688.316 90.5214 686.158 91.5762L685.726 91.7754C683.537 92.7417 680.932 93.2244 677.912 93.2244L666.71 93.2246L671.085 67.0298H682.284ZM687.653 40.4531C695.167 40.4531 702.539 41.8868 708.933 45.7061L708.932 45.707C715.175 49.3943 719.848 54.779 722.463 61.6221C723.904 65.3389 724.637 69.19 724.801 73.0898H721.982L720.565 81.5908L711.393 80.0696C712.237 74.8539 711.88 70.2522 710.32 66.2637C708.786 62.2495 706.101 59.1165 702.266 56.8665C698.456 54.5909 693.585 53.4531 687.653 53.4531L687.653 40.4531Z" fill="black"/>
<path d="M659.381 40.4531L657.223 53.4531H656.666L643.626 131.999H644.183L642.024 144.999H605.805C603.025 145.67 600.187 145.958 597.37 145.958C590.543 145.958 583.958 144.171 578.232 140.113L578.186 140.079L578.138 140.045C572.219 135.77 568.471 129.77 566.418 123.079L566.404 123.037L566.393 122.995C566.224 122.433 566.071 121.867 565.93 121.298L570.778 92.2656C571.268 89.2165 571.186 86.5455 570.532 84.252C571.445 82.3194 572.474 80.4614 573.629 78.6885C577.494 72.7301 582.415 67.7625 588.545 64.3438C594.347 61.0822 600.669 59.3232 607.342 59.3232C609.336 59.3233 611.41 59.4675 613.494 59.8369L616.742 40.4531H659.381ZM627.745 53.4531L622.798 82.9844H622.298C621.863 81.3993 621.097 79.7885 619.998 78.1523C618.899 76.4904 617.326 75.1102 615.28 74.0107C613.387 72.9561 610.943 72.3951 607.948 72.3291L607.342 72.3232C603.021 72.3232 598.866 73.4482 594.877 75.6982L594.136 76.1279C590.459 78.3467 587.254 81.5652 584.521 85.7841C581.606 90.2585 579.586 95.8707 578.461 102.621C577.362 109.192 577.49 114.74 578.845 119.266C580.226 123.766 582.527 127.179 585.748 129.506C588.792 131.663 592.388 132.809 596.533 132.944L597.37 132.958C600.541 132.958 603.302 132.434 605.654 131.386C608.032 130.337 610.052 129.021 611.714 127.436C613.401 125.825 614.757 124.201 615.779 122.564H616.47L614.896 131.999L631.005 131.999L644.045 53.4531H627.745ZM610.255 85.3239C612.914 85.3239 615.049 86.027 616.66 87.4332C618.297 88.8395 619.396 90.8338 619.958 93.4162C620.521 95.9985 620.509 99.0422 619.921 102.545L619.811 103.196C619.232 106.428 618.272 109.266 616.93 111.711C615.498 114.319 613.733 116.351 611.636 117.808C609.539 119.24 607.187 119.956 604.579 119.956C602.063 119.956 600.03 119.316 598.479 118.035L598.176 117.771C596.591 116.288 595.554 114.241 595.068 111.634C594.582 109 594.621 105.971 595.184 102.545C595.746 99.1445 596.692 96.1519 598.021 93.5696C599.376 90.9872 601.078 88.9681 603.123 87.5107C605.194 86.0534 607.571 85.324 610.255 85.3239Z" fill="black"/>
<path d="M549.108 59.3281C553.389 59.3281 557.586 59.8288 561.638 60.9209C565.936 62.0724 570.002 63.956 573.596 66.7363C573.616 66.752 573.638 66.7675 573.658 66.7832C577.723 69.9244 580.68 74.0296 582.42 78.8154C583.367 81.3733 583.865 83.9813 584.029 86.5693C581.378 90.9104 579.522 96.2625 578.461 102.626C577.362 109.197 577.49 114.745 578.845 119.271C578.97 119.68 579.107 120.08 579.248 120.472L575.152 145.004H540.367C537.244 145.777 534.037 146.116 530.814 146.116C525.585 146.116 520.358 145.202 515.519 142.896L515.386 142.831C510.198 140.286 506.055 136.278 503.456 130.976C502.002 128.009 501.24 124.932 500.969 121.877C501.798 120.911 502.584 119.89 503.322 118.811C506.416 114.285 508.462 109.018 509.459 103.01C510.456 96.8991 510.149 91.5426 508.538 86.9404C508.405 86.5601 508.263 86.1867 508.114 85.8203L508.312 85.29C510.3 79.9363 513.361 75.1936 517.461 71.2109C521.56 67.2278 526.396 64.2781 531.768 62.291C537.244 60.2394 543.081 59.3282 549.108 59.3281ZM549.108 72.3281C544.378 72.3282 540.108 73.0438 536.299 74.4756C532.489 75.8818 529.23 77.9018 526.52 80.5352C523.835 83.1431 521.828 86.2369 520.498 89.8164L535.379 91.0439C536.248 89.0752 537.693 87.4513 539.713 86.1729C541.758 84.8947 544.238 84.2549 547.152 84.2549C549.914 84.2549 551.921 84.933 553.174 86.2881L553.404 86.5439C554.505 87.8533 554.876 89.6347 554.517 91.8877V92.1172C554.286 93.37 553.634 94.3168 552.561 94.9561C551.487 95.5697 549.863 96.0426 547.689 96.375C545.542 96.7074 542.755 97.0522 539.329 97.4102C536.363 97.6658 533.486 98.1513 530.699 98.8672C527.938 99.5831 525.42 100.619 523.145 101.974C520.869 103.329 518.939 105.119 517.354 107.344C515.794 109.543 514.732 112.278 514.17 115.551L514.062 116.268C513.575 119.814 513.93 122.809 515.129 125.254C516.407 127.862 518.401 129.831 521.111 131.16C523.847 132.464 527.082 133.116 530.814 133.116C533.729 133.116 536.363 132.733 538.715 131.966C541.067 131.173 543.151 130.087 544.967 128.706C546.782 127.3 548.316 125.676 549.569 123.835H550.029L548.648 132.004H564.143L570.777 92.2705C571.34 88.7678 571.148 85.7634 570.202 83.2578C569.282 80.7268 567.773 78.6556 565.677 77.0449C563.735 75.5349 561.446 74.3955 558.808 73.627L558.275 73.4785C555.437 72.7115 552.381 72.3281 549.108 72.3281ZM551.448 110.948C551.09 113.019 550.247 114.873 548.917 116.51C547.613 118.146 545.951 119.45 543.932 120.422C541.937 121.368 539.751 121.841 537.373 121.841C534.842 121.841 532.861 121.265 531.429 120.114C530.022 118.938 529.498 117.238 529.855 115.014C530.086 113.48 530.687 112.201 531.658 111.179C532.63 110.13 533.896 109.299 535.455 108.686C537.015 108.072 538.779 107.625 540.748 107.344C541.643 107.19 542.653 107.036 543.777 106.883C544.902 106.704 546.015 106.512 547.114 106.308C548.239 106.078 549.275 105.835 550.221 105.579C551.192 105.323 551.934 105.03 552.445 104.697L551.448 110.948Z" fill="black"/>
<path d="M485.336 59.3281C493.15 59.3281 500.745 61.0193 507.296 65.2988C507.3 65.3018 507.306 65.3047 507.311 65.3076C507.322 65.3154 507.335 65.3233 507.347 65.3311C513.77 69.5176 518.294 75.4579 520.81 82.6455C521.264 83.9437 521.643 85.2589 521.952 86.5879C521.401 87.6162 520.916 88.6923 520.498 89.8164L522.588 89.9883C523.164 93.9991 523.156 98.1127 522.684 102.258C520.607 103.576 518.83 105.271 517.354 107.344C515.794 109.543 514.732 112.278 514.17 115.551C513.566 119.2 513.821 122.289 514.93 124.819C514.646 125.266 514.355 125.709 514.056 126.147C509.82 132.343 504.37 137.301 497.785 140.844L497.762 140.857L497.737 140.87C490.955 144.482 483.513 146.154 475.71 146.154C467.886 146.154 460.273 144.484 453.711 140.223L453.686 140.206L453.661 140.189C447.264 135.994 442.731 130.074 440.205 122.896L440.191 122.855L440.177 122.814C439.767 121.626 439.421 120.423 439.133 119.208L445.342 81.8086C445.831 80.9848 446.345 80.1733 446.886 79.376C450.987 73.3265 456.267 68.4714 462.638 64.9717L463.258 64.6367C470.055 61.0102 477.513 59.3281 485.336 59.3281ZM485.336 72.3281C479.404 72.3281 474.073 73.5938 469.343 76.125L468.902 76.3623C464.37 78.8508 460.618 82.2877 457.646 86.6719L457.361 87.0977C454.452 91.5275 452.527 96.6652 451.586 102.511C450.589 108.622 450.883 113.979 452.468 118.581C454.079 123.158 456.854 126.737 460.791 129.319C464.728 131.876 469.702 133.154 475.71 133.154C481.431 133.154 486.589 131.978 491.183 129.627L491.626 129.396C496.33 126.864 500.229 123.336 503.322 118.811C506.223 114.568 508.203 109.674 509.261 104.128L509.459 103.01C510.425 97.0901 510.168 91.8781 508.687 87.374L508.538 86.9404C506.978 82.4819 504.326 78.9832 500.582 76.4443L500.217 76.2012C496.279 73.6188 491.319 72.3281 485.336 72.3281ZM483.687 84.792C486.371 84.792 488.481 85.5597 490.015 87.0938C491.574 88.6278 492.597 90.7239 493.083 93.3828C493.569 96.0163 493.53 99.034 492.968 102.435L492.857 103.077C492.279 106.271 491.319 109.151 489.977 111.716C488.57 114.426 486.793 116.574 484.646 118.159L484.244 118.442C482.217 119.813 479.909 120.498 477.32 120.498C474.636 120.498 472.514 119.744 470.954 118.235C469.395 116.701 468.384 114.618 467.924 111.984C467.464 109.325 467.502 106.308 468.039 102.933C468.602 99.4555 469.586 96.349 470.992 93.6133C472.398 90.8775 474.176 88.7296 476.323 87.1699C478.471 85.5848 480.925 84.7921 483.687 84.792Z" fill="black"/>
<path d="M465.386 40.4531L457.733 86.541C457.705 86.583 457.675 86.6249 457.646 86.667C454.578 91.1924 452.558 96.472 451.587 102.506C450.597 108.57 450.879 113.891 452.433 118.47L448.029 144.999H405.336L407.494 131.999H408.951L415.241 94.4902C415.834 90.9324 415.851 87.7649 415.298 84.9863L422.691 40.4531H465.386ZM433.711 53.4531L420.672 131.999H437.01L450.05 53.4531H433.711Z" fill="black"/>
<path d="M398.596 59.3281C404.562 59.3282 410.59 60.6417 415.905 64.1035C421.239 67.5608 424.925 72.515 426.938 78.3623C427.705 80.561 428.198 82.807 428.462 85.0713L426.581 96.3965L415.24 94.4951C416.007 89.8929 415.816 85.9428 414.665 82.6445C413.61 79.5523 411.837 77.1228 409.344 75.3564L408.836 75.0127C406.271 73.3348 403.11 72.4427 399.354 72.3379L398.596 72.3281C394.224 72.3281 390.325 73.3251 386.898 75.3193C383.498 77.3137 380.864 80.0366 378.997 83.4883H378.346L380.033 73.0947H364.5L354.683 132.004H370.981L376.658 97.9473C377.093 95.416 377.924 93.2556 379.151 91.4658C380.404 89.6505 381.951 88.2693 383.792 87.3232C385.633 86.3774 387.653 85.9043 389.852 85.9043C393.15 85.9044 395.541 86.9273 397.023 88.9727L397.161 89.1641C398.559 91.1688 398.973 93.9175 398.403 97.4102L392.612 132.004H408.95L415.24 94.4951L426.581 96.3965L420.671 132.004H422.132L419.952 145.004H339.336L347.987 93.0918L356.75 73.0947H351.32L353.487 60.0947H390.854C393.38 59.5773 395.969 59.3281 398.596 59.3281Z" fill="black"/>
<path d="M376.637 60.0938L370.941 73.0938H364.498L360.543 96.8242L339.434 145.003H301.964L301.804 143.518L301.152 145.003H263.701L259.694 107.015C260.032 105.718 260.319 104.383 260.547 103.009C261.544 96.8982 261.238 91.5416 259.627 86.9395C258.961 85.0357 258.095 83.3067 257.03 81.7529L254.746 60.0938H376.637ZM269.189 73.0938L275.402 132.003H292.661L308.923 94.9551H309.651L313.64 132.003H330.937L356.748 73.0938H340.256L324.686 112.443H324.187L321.118 73.0938H304.896L288.787 112.674H288.251L285.72 73.0938H269.189Z" fill="black"/>
<path d="M236.426 59.3281C244.26 59.3282 251.874 61.0276 258.436 65.3311C263.267 68.48 267.023 72.621 269.659 77.5391L272.553 104.968L260.549 103.01C261.515 97.0901 261.258 91.878 259.776 87.374L259.629 86.9404C258.068 82.482 255.416 78.9832 251.672 76.4443L251.307 76.2012C247.369 73.6188 242.409 72.3282 236.426 72.3281C230.494 72.3281 225.163 73.5938 220.433 76.125L219.991 76.3623C215.459 78.8508 211.708 82.2878 208.735 86.6719L208.45 87.0977C205.541 91.5274 203.617 96.6653 202.676 102.511C201.679 108.622 201.972 113.979 203.558 118.581C205.168 123.158 207.943 126.737 211.88 129.319C215.817 131.876 220.79 133.154 226.799 133.154C232.521 133.154 237.679 131.978 242.272 129.627L242.716 129.396C247.126 127.022 250.829 123.773 253.823 119.647L254.413 118.811C257.507 114.285 259.552 109.018 260.549 103.01L272.553 104.968L272.857 107.854C271.439 114.483 268.911 120.639 265.145 126.147C260.909 132.343 255.459 137.301 248.875 140.844L248.851 140.857L248.826 140.87C242.044 144.482 234.602 146.154 226.799 146.154C218.974 146.154 211.362 144.484 204.8 140.223L204.751 140.189C198.353 135.994 193.821 130.074 191.295 122.896L191.28 122.855L191.267 122.814C190.042 119.258 189.373 115.576 189.168 111.824C192.279 106.589 194.41 100.507 195.558 93.5752C196.246 89.4345 196.495 85.5825 196.307 82.0195C196.833 81.1231 197.388 80.2412 197.975 79.376C202.076 73.3263 207.357 68.4714 213.728 64.9717L214.348 64.6367C221.145 61.0103 228.603 59.3281 236.426 59.3281ZM234.776 84.792C237.461 84.792 239.57 85.5597 241.104 87.0938C242.664 88.6278 243.687 90.724 244.173 93.3828C244.659 96.0163 244.62 99.034 244.058 102.435L243.947 103.077C243.369 106.271 242.409 109.151 241.066 111.716C239.66 114.426 237.883 116.574 235.735 118.159L235.334 118.442C233.307 119.813 230.999 120.498 228.41 120.498C225.726 120.498 223.604 119.744 222.044 118.235C220.484 116.701 219.474 114.618 219.014 111.984C218.553 109.325 218.592 106.308 219.129 102.933C219.656 99.6729 220.554 96.739 221.823 94.1309L222.082 93.6133C223.488 90.8775 225.265 88.7296 227.413 87.1699C229.561 85.5848 232.015 84.792 234.776 84.792Z" fill="black"/>
<path d="M163.648 40.4531L163.648 53.4531H135.958L122.919 131.999L151.145 131.999C158.873 131.999 165.762 130.571 171.811 127.716L172.392 127.435C178.386 124.462 183.338 120.243 187.244 114.775L187.619 114.242C191.582 108.489 194.228 101.598 195.557 93.5696C196.938 85.2599 196.554 78.1136 194.407 72.1307C192.326 66.3101 188.794 61.797 183.811 58.5918L183.323 58.2855C178.107 55.0639 171.549 53.4531 163.648 53.4531L163.648 40.4531C173.276 40.4531 182.372 42.4184 190.155 47.2256C198 52.0544 203.541 59.0723 206.643 67.7393L206.926 68.5518C208.762 74.0094 209.492 79.8018 209.35 85.7891C209.141 86.0772 208.937 86.3702 208.735 86.667C205.667 91.1924 203.647 96.472 202.676 102.506C201.963 106.872 201.91 110.853 202.516 114.449C201.291 116.94 199.897 119.333 198.324 121.617L198.316 121.628L198.31 121.64C193.105 129.161 186.344 135.028 178.168 139.082L178.148 139.092L178.13 139.101C169.897 143.149 160.8 144.999 151.146 144.999H107.582L124.938 40.4531H163.648ZM161.156 67.6826C166.065 67.6827 170.027 68.5129 173.044 70.1747L166.855 81.584L179.142 77.9602C180.216 81.4886 180.28 86.0909 179.334 91.767L179.14 92.877C178.122 98.36 176.488 102.9 174.234 106.495C171.857 110.33 168.8 113.168 165.067 115.009C161.36 116.849 157.039 117.77 152.104 117.77L141.903 117.771L150.226 67.6826H161.156ZM157.351 104.109C158.088 103.895 158.729 103.642 159.286 103.365L159.302 103.357L159.318 103.35C160.687 102.675 161.977 101.593 163.186 99.6445L163.201 99.6182L163.218 99.5918C164.457 97.6138 165.706 94.4637 166.512 89.6299C167.294 84.9338 166.96 82.5796 166.706 81.7461L166.69 81.6924L166.674 81.6387C166.657 81.5807 166.638 81.5318 166.623 81.4893C166.028 81.2105 164.456 80.6918 161.243 80.6826L157.351 104.109ZM173.044 70.1747C176.061 71.8111 178.094 74.4062 179.142 77.9602L166.855 81.584L173.044 70.1747Z" fill="black"/>
</g>
<defs>
<filter id="filter0_d_4672_2736" x="0" y="0" width="1263.81" height="225" filterUnits="userSpaceOnUse" color-interpolation-filters="sRGB">
<feFlood flood-opacity="0" result="BackgroundImageFix"/>
<feColorMatrix in="SourceAlpha" type="matrix" values="0 0 0 0 0 0 0 0 0 0 0 0 0 0 0 0 0 0 127 0" result="hardAlpha"/>
<feOffset dx="16" dy="16"/>
<feGaussianBlur stdDeviation="2"/>
<feComposite in2="hardAlpha" operator="out"/>
<feColorMatrix type="matrix" values="0 0 0 0 0 0 0 0 0 0 0 0 0 0 0 0 0 0 0.25 0"/>
<feBlend mode="normal" in2="BackgroundImageFix" result="effect1_dropShadow_4672_2736"/>
<feBlend mode="normal" in="SourceGraphic" in2="effect1_dropShadow_4672_2736" result="shape"/>
</filter>
</defs>
</svg>
