<svg width="100" height="100" viewBox="0 0 100 100" fill="none" xmlns="http://www.w3.org/2000/svg">
<path d="M100 50C100 77.6142 77.6142 100 50 100C22.3858 100 0 77.6142 0 50C0 22.3858 22.3858 0 50 0C77.6142 0 100 22.3858 100 50Z" fill="#DE1B22"/>
<path d="M32.9418 69.926L39.5096 30.0738H55.3496C58.26 30.0738 60.6167 30.5084 62.4196 31.3775C64.2354 32.2467 65.5039 33.4532 66.2251 34.9969C66.9462 36.5277 67.1394 38.292 66.8046 40.2898C66.5341 41.8465 65.9868 43.2087 65.1626 44.3762C64.3513 45.5438 63.3468 46.5037 62.1492 47.2562C60.9515 48.0086 59.6508 48.5405 58.2471 48.8518L58.1699 49.241C59.6637 49.3058 61.0095 49.7339 62.2071 50.5253C63.4048 51.3036 64.2998 52.4063 64.8922 53.8333C65.4846 55.2603 65.6198 56.9533 65.2978 58.9122C64.9501 61.0267 64.1195 62.9142 62.8059 64.5747C61.4924 66.2223 59.741 67.526 57.5517 68.486C55.3753 69.446 52.8062 69.926 49.8442 69.926H32.9418ZM42.4651 63.0375H49.284C51.6021 63.0375 53.3728 62.5834 54.5962 61.6753C55.8196 60.7673 56.5537 59.5673 56.7983 58.0754C56.9658 56.9727 56.8563 55.9998 56.47 55.1565C56.0965 54.3133 55.459 53.6517 54.5576 53.1717C53.669 52.6917 52.5422 52.4517 51.1771 52.4517H44.1843L42.4651 63.0375ZM45.1502 46.7502H51.3509C52.4842 46.7502 53.5338 46.5491 54.4996 46.147C55.4783 45.7319 56.2832 45.1481 56.9142 44.3957C57.5581 43.6303 57.9638 42.7287 58.1312 41.6909C58.363 40.2379 58.0411 39.0769 57.1654 38.2077C56.3025 37.3255 54.9503 36.8845 53.1088 36.8845H46.7728L45.1502 46.7502Z" fill="white"/>
<path d="M55.3494 25L55.3496 30.0738H39.5096L32.9418 69.926H49.8442L50.3948 69.9203C53.1256 69.864 55.5113 69.386 57.5517 68.486C59.6041 67.5861 61.2715 66.3839 62.5543 64.8797L62.8059 64.5747C64.0374 63.018 64.8445 61.2618 65.2271 59.306L65.2978 58.9122C65.6198 56.9533 65.4846 55.2603 64.8922 53.8333C64.2998 52.4063 63.4048 51.3036 62.2071 50.5253C61.0095 49.7339 59.6637 49.3058 58.1699 49.241L58.2471 48.8518C59.6508 48.5405 60.9515 48.0086 62.1492 47.2562C63.3468 46.5037 64.3513 45.5438 65.1626 44.3762C65.9868 43.2087 66.5341 41.8465 66.8046 40.2898C67.1394 38.292 66.9462 36.5277 66.2251 34.9969C65.5039 33.4532 64.2354 32.2467 62.4196 31.3775C60.6167 30.5084 58.26 30.0738 55.3496 30.0738L55.3494 25C58.6902 25 61.8646 25.489 64.5808 26.7951L64.5813 26.7947C67.2396 28.0671 69.4676 30.0333 70.7749 32.8217C72.0198 35.4642 72.2433 38.316 71.7709 41.1345L71.766 41.1642C71.3819 43.3752 70.5778 45.4486 69.2885 47.2855C69.2834 47.2928 69.2783 47.3 69.2732 47.3073C69.2711 47.3103 69.2694 47.3137 69.2673 47.3167L69.2668 47.3162C68.8475 47.9166 68.3908 48.4808 67.8994 49.0093C68.5634 49.88 69.1095 50.8416 69.5388 51.8757C70.5867 54.4 70.7001 57.1047 70.2668 59.741C69.7801 62.7003 68.5989 65.3931 66.745 67.7367L66.7391 67.7441L66.7327 67.752C64.8437 70.1213 62.4003 71.891 59.5716 73.133L59.5721 73.134C56.6222 74.4351 53.3353 75 49.8444 75H27L35.2403 25H55.3494ZM51.1771 52.4517C52.5422 52.4517 53.669 52.6917 54.5576 53.1717C55.459 53.6517 56.0965 54.3133 56.47 55.1565C56.8563 55.9998 56.9658 56.9727 56.7983 58.0754C56.5537 59.5673 55.8196 60.7673 54.5962 61.6753L54.4798 61.7591C53.2615 62.6113 51.5295 63.0375 49.284 63.0375L49.2841 57.9637C51.0545 57.9637 51.5955 57.5998 51.6082 57.5906C51.6292 57.575 51.647 57.5594 51.6633 57.546C51.531 57.5337 51.3699 57.5257 51.1769 57.5257H48.4637L48.3929 57.9637H49.2841L49.284 63.0375H42.4651L44.1843 52.4517H51.1771ZM53.1088 36.8845C54.9503 36.8845 56.3025 37.3255 57.1654 38.2077C58.0411 39.0769 58.363 40.2379 58.1312 41.6909C57.9638 42.7287 57.5581 43.6303 56.9142 44.3957C56.2832 45.1481 55.4783 45.7319 54.4996 46.147C53.5338 46.5491 52.4842 46.7502 51.3509 46.7502H45.1502L46.7728 36.8845H53.1088Z" fill="black"/>
</svg>
