<svg width="1005" height="250" viewBox="0 0 1005 250" fill="none" xmlns="http://www.w3.org/2000/svg">
<g filter="url(#filter0_d_4672_2690)">
<path d="M286 0V230H4.57363C0.0261946 230 -1.37522 226.996 1.48481 223.316L65.392 140.688C66.0327 139.825 66.8495 139.109 67.7878 138.588C68.726 138.068 69.7641 137.755 70.8324 137.671C71.9007 137.586 72.9746 137.732 73.9822 138.099C74.9898 138.466 75.9079 139.045 76.6748 139.797L96.9667 158.973C97.6984 159.72 98.5919 160.287 99.5775 160.629C100.563 160.971 101.614 161.08 102.648 160.946C103.682 160.813 104.672 160.44 105.539 159.859C106.407 159.277 107.129 158.502 107.649 157.593L151.221 89.4556C151.737 88.5522 152.456 87.7822 153.319 87.2068C154.183 86.6314 155.169 86.2663 156.197 86.1407C157.226 86.0151 158.27 86.1324 159.245 86.4833C160.221 86.8341 161.102 87.4089 161.818 88.1619L192.863 118.292C196.181 121.526 200.857 120.879 203.217 116.854L276.619 4.945C278.993 0.891252 282.425 0 286 0Z" fill="white"/>
<path d="M286 230H4.57363C0.0261946 230 -1.37522 226.996 1.48481 223.316L65.392 140.688C66.0327 139.825 66.8495 139.109 67.7878 138.588C68.726 138.068 69.7641 137.755 70.8324 137.671C71.9007 137.586 72.9746 137.732 73.9822 138.099C74.9898 138.466 75.9079 139.045 76.6748 139.797L96.9667 158.973C97.6984 159.72 98.5919 160.287 99.5775 160.629C100.44 160.928 101.353 161.049 102.26 160.985L102.648 160.946C103.682 160.813 104.672 160.44 105.539 159.859C106.407 159.277 107.129 158.502 107.649 157.593L151.221 89.4556C151.737 88.5522 152.456 87.7822 153.319 87.2068C154.183 86.6314 155.169 86.2663 156.197 86.1407C157.226 86.0151 158.27 86.1324 159.245 86.4833C160.221 86.8341 161.102 87.4089 161.818 88.1619L192.863 118.292C196.077 121.425 200.566 120.916 202.989 117.222L203.217 116.854L276.619 4.945C278.993 0.891252 282.425 0 286 0V230ZM214.199 123.812C211.201 128.69 206.26 132.329 200.186 133.172C193.941 134.038 188.028 131.734 183.788 127.601L158.162 102.73L118.704 164.434C117.211 166.912 115.191 169.039 112.78 170.656C110.244 172.357 107.346 173.447 104.314 173.839C101.281 174.231 98.1999 173.912 95.3128 172.909C92.5541 171.951 90.0484 170.394 87.969 168.356L72.0569 153.318L22.804 217H273V34.165L214.199 123.812Z" fill="black"/>
<path d="M968.953 115.09L966.92 127.363H931.406L933.477 115.09H968.953ZM943.832 100.977H960.17L951.043 155.897C950.787 157.406 950.825 158.582 951.158 159.425C951.49 160.244 952.04 160.819 952.807 161.151C953.599 161.484 954.545 161.65 955.645 161.65C956.412 161.65 957.192 161.586 957.984 161.458C958.777 161.305 959.378 161.19 959.787 161.113L960.401 173.271C959.48 173.552 958.24 173.859 956.68 174.191C955.146 174.523 953.331 174.728 951.234 174.805C947.246 174.958 943.871 174.434 941.109 173.232C938.348 172.005 936.366 170.126 935.165 167.594C933.963 165.063 933.707 161.88 934.398 158.045L943.832 100.977Z" fill="white"/>
<path d="M881.734 174.003L891.553 115.094H907.392L905.666 125.372H906.28C907.967 121.716 910.23 118.955 913.068 117.088C915.932 115.196 919.013 114.25 922.311 114.25C923.129 114.25 923.986 114.301 924.881 114.403C925.801 114.48 926.619 114.608 927.335 114.787L924.881 129.322C924.165 129.067 923.142 128.862 921.812 128.709C920.509 128.53 919.268 128.44 918.092 128.44C915.715 128.44 913.503 128.964 911.457 130.013C909.412 131.036 907.686 132.467 906.28 134.308C904.899 136.149 903.991 138.271 903.557 140.675L898.072 174.003H881.734Z" fill="white"/>
<path d="M843.275 175.147C837.267 175.147 832.294 173.869 828.356 171.312C824.419 168.729 821.645 165.15 820.034 160.573C818.449 155.971 818.155 150.614 819.152 144.504C820.123 138.469 822.143 133.19 825.211 128.664C828.28 124.138 832.179 120.623 836.909 118.117C841.639 115.586 846.97 114.32 852.902 114.32C858.885 114.32 863.845 115.612 867.782 118.194C871.72 120.751 874.494 124.33 876.105 128.933C877.716 133.535 878.022 138.891 877.025 145.002C876.028 151.011 873.983 156.278 870.889 160.803C867.795 165.329 863.896 168.857 859.192 171.388C854.487 173.894 849.182 175.147 843.275 175.147ZM844.886 162.491C847.648 162.491 850.089 161.711 852.211 160.151C854.359 158.566 856.136 156.418 857.542 153.708C858.974 150.972 859.971 147.879 860.534 144.427C861.096 141.026 861.135 138.009 860.649 135.376C860.163 132.717 859.14 130.62 857.581 129.086C856.047 127.552 853.937 126.785 851.253 126.785C848.491 126.785 846.037 127.577 843.889 129.163C841.741 130.722 839.964 132.87 838.558 135.606C837.152 138.342 836.167 141.448 835.605 144.925C835.068 148.3 835.03 151.317 835.49 153.977C835.95 156.61 836.96 158.694 838.52 160.228C840.079 161.737 842.202 162.491 844.886 162.491Z" fill="white"/>
<path d="M745.645 196.087L759.221 115.087H775.329L773.68 124.982H774.409C775.38 123.397 776.672 121.786 778.282 120.15C779.919 118.488 781.951 117.107 784.38 116.008C786.809 114.883 789.66 114.32 792.933 114.32C797.254 114.32 801.025 115.445 804.247 117.695C807.468 119.92 809.795 123.282 811.227 127.782C812.684 132.256 812.851 137.869 811.726 144.619C810.652 151.19 808.67 156.738 805.781 161.263C802.917 165.763 799.478 169.177 795.464 171.504C791.476 173.805 787.244 174.955 782.77 174.955C779.599 174.955 776.991 174.431 774.946 173.383C772.926 172.335 771.353 171.018 770.228 169.433C769.103 167.822 768.311 166.198 767.851 164.562H767.237L762.021 196.087H745.645ZM770.305 144.542C769.743 148.045 769.717 151.1 770.228 153.708C770.765 156.316 771.839 158.349 773.45 159.806C775.061 161.238 777.183 161.954 779.816 161.954C782.475 161.954 784.841 161.225 786.912 159.768C788.983 158.285 790.708 156.239 792.089 153.631C793.47 150.998 794.454 147.968 795.042 144.542C795.579 141.141 795.592 138.15 795.081 135.567C794.569 132.985 793.521 130.965 791.936 129.508C790.351 128.05 788.203 127.322 785.493 127.322C782.859 127.322 780.494 128.025 778.397 129.431C776.326 130.837 774.601 132.832 773.22 135.414C771.839 137.996 770.868 141.039 770.305 144.542Z" fill="white"/>
<path d="M712.331 175.147C706.297 175.147 701.298 173.92 697.335 171.465C693.372 168.985 690.585 165.482 688.974 160.957C687.389 156.406 687.121 151.023 688.169 144.81C689.192 138.751 691.25 133.433 694.344 128.856C697.463 124.279 701.375 120.712 706.079 118.156C710.784 115.599 716.025 114.32 721.804 114.32C725.69 114.32 729.206 114.947 732.351 116.2C735.521 117.427 738.155 119.293 740.251 121.799C742.348 124.279 743.78 127.386 744.547 131.119C745.339 134.852 745.327 139.224 744.508 144.235L743.78 148.722H694.075L695.648 138.597H730.011C730.395 136.245 730.241 134.161 729.551 132.346C728.861 130.531 727.71 129.112 726.099 128.089C724.489 127.04 722.507 126.516 720.155 126.516C717.751 126.516 715.501 127.104 713.405 128.281C711.308 129.457 709.544 131.004 708.112 132.921C706.706 134.813 705.798 136.871 705.389 139.096L703.586 149.144C703.075 152.238 703.177 154.808 703.893 156.853C704.635 158.898 705.913 160.433 707.729 161.455C709.544 162.452 711.845 162.951 714.632 162.951C716.447 162.951 718.148 162.695 719.733 162.184C721.344 161.673 722.775 160.918 724.028 159.921C725.281 158.898 726.304 157.633 727.096 156.124L742.016 157.121C740.635 160.752 738.538 163.923 735.726 166.633C732.913 169.317 729.525 171.414 725.562 172.923C721.625 174.406 717.214 175.147 712.331 175.147Z" fill="white"/>
<path d="M616.469 173.999L629.509 95.4531H660.497C666.429 95.4531 671.313 96.5014 675.148 98.598C679.009 100.695 681.719 103.673 683.278 107.534C684.864 111.369 685.234 115.895 684.391 121.111C683.521 126.327 681.642 130.801 678.753 134.534C675.889 138.267 672.156 141.143 667.554 143.163C662.977 145.158 657.672 146.155 651.638 146.155H630.889L633.19 132.808H651.216C654.386 132.808 657.097 132.374 659.347 131.504C661.597 130.635 663.374 129.331 664.678 127.592C666.007 125.854 666.876 123.693 667.286 121.111C667.72 118.477 667.567 116.278 666.825 114.514C666.084 112.724 664.742 111.369 662.798 110.449C660.855 109.503 658.298 109.03 655.128 109.03H643.929L633.075 173.999H616.469ZM664.793 138.254L678.408 173.999H660.075L646.882 138.254H664.793Z" fill="white"/>
<path d="M573.051 174.003L582.869 115.094H598.708L596.983 125.372H597.596C599.284 121.716 601.547 118.955 604.385 117.088C607.248 115.196 610.329 114.25 613.628 114.25C614.446 114.25 615.302 114.301 616.197 114.403C617.118 114.48 617.936 114.608 618.652 114.787L616.197 129.322C615.481 129.067 614.458 128.862 613.129 128.709C611.825 128.53 610.585 128.44 609.409 128.44C607.031 128.44 604.819 128.964 602.774 130.013C600.728 131.036 599.003 132.467 597.596 134.308C596.216 136.149 595.308 138.271 594.873 140.675L589.389 174.003H573.051Z" fill="white"/>
<path d="M534.588 175.147C528.579 175.147 523.606 173.869 519.669 171.312C515.731 168.729 512.957 165.15 511.346 160.573C509.761 155.971 509.467 150.614 510.464 144.504C511.436 138.469 513.456 133.19 516.524 128.664C519.592 124.138 523.491 120.623 528.221 118.117C532.951 115.586 538.282 114.32 544.214 114.32C550.197 114.32 555.157 115.612 559.095 118.194C563.032 120.751 565.807 124.33 567.417 128.933C569.028 133.535 569.335 138.891 568.338 145.002C567.341 151.011 565.295 156.278 562.201 160.803C559.108 165.329 555.209 168.857 550.504 171.388C545.8 173.894 540.494 175.147 534.588 175.147ZM536.199 162.491C538.96 162.491 541.402 161.711 543.524 160.151C545.672 158.566 547.449 156.418 548.855 153.708C550.287 150.972 551.284 147.879 551.846 144.427C552.409 141.026 552.447 138.009 551.961 135.376C551.476 132.717 550.453 130.62 548.893 129.086C547.359 127.552 545.25 126.785 542.565 126.785C539.804 126.785 537.349 127.577 535.201 129.163C533.054 130.722 531.277 132.87 529.871 135.606C528.464 138.342 527.48 141.448 526.917 144.925C526.38 148.3 526.342 151.317 526.802 153.977C527.263 156.61 528.273 158.694 529.832 160.228C531.392 161.737 533.514 162.491 536.199 162.491Z" fill="white"/>
<path d="M508.781 115.09L506.749 127.363H471.234L473.305 115.09H508.781ZM483.661 100.977H499.999L490.871 155.897C490.615 157.406 490.653 158.582 490.986 159.425C491.318 160.244 491.868 160.819 492.635 161.151C493.428 161.484 494.374 161.65 495.473 161.65C496.24 161.65 497.02 161.586 497.812 161.458C498.605 161.305 499.206 161.19 499.615 161.113L500.229 173.271C499.308 173.552 498.068 173.859 496.509 174.191C494.974 174.523 493.159 174.728 491.062 174.805C487.074 174.958 483.699 174.434 480.938 173.232C478.176 172.005 476.195 170.126 474.993 167.594C473.791 165.063 473.536 161.88 474.226 158.045L483.661 100.977Z" fill="white"/>
<path d="M431.787 175.147C425.727 175.147 420.741 173.869 416.829 171.312C412.943 168.729 410.22 165.15 408.66 160.573C407.126 155.996 406.858 150.729 407.855 144.772C408.826 138.738 410.859 133.445 413.953 128.894C417.047 124.317 420.971 120.751 425.727 118.194C430.508 115.612 435.878 114.32 441.835 114.32C446.974 114.32 451.321 115.254 454.875 117.12C458.429 118.987 461.037 121.607 462.699 124.982C464.361 128.357 464.923 132.32 464.386 136.871H449.007C449.032 133.957 448.278 131.592 446.744 129.776C445.21 127.961 442.96 127.053 439.994 127.053C437.437 127.053 435.085 127.744 432.937 129.124C430.815 130.479 429.013 132.461 427.53 135.069C426.072 137.677 425.049 140.835 424.461 144.542C423.848 148.3 423.835 151.496 424.423 154.13C425.011 156.763 426.136 158.771 427.798 160.151C429.46 161.532 431.557 162.222 434.088 162.222C435.98 162.222 437.731 161.839 439.342 161.072C440.978 160.305 442.41 159.192 443.638 157.735C444.865 156.252 445.811 154.475 446.476 152.404H461.893C460.845 156.93 458.94 160.893 456.179 164.293C453.443 167.694 450.004 170.353 445.862 172.271C441.72 174.188 437.028 175.147 431.787 175.147Z" fill="white"/>
<path d="M376.977 174.001L386.795 115.092H403.133L393.315 174.001H376.977ZM396.651 107.421C394.222 107.421 392.215 106.616 390.63 105.005C389.07 103.369 388.431 101.425 388.712 99.1754C388.994 96.8743 390.093 94.9311 392.011 93.3459C393.928 91.7351 396.102 90.9297 398.531 90.9297C400.96 90.9297 402.941 91.7351 404.475 93.3459C406.009 94.9311 406.648 96.8743 406.393 99.1754C406.137 101.425 405.05 103.369 403.133 105.005C401.241 106.616 399.08 107.421 396.651 107.421Z" fill="white"/>
<path d="M331.029 174.957C326.529 174.957 322.656 173.807 319.408 171.506C316.187 169.179 313.886 165.766 312.505 161.266C311.15 156.74 311.022 151.192 312.121 144.621C313.246 137.871 315.266 132.259 318.181 127.784C321.096 123.284 324.548 119.922 328.536 117.697C332.525 115.447 336.68 114.322 341.001 114.322C344.273 114.322 346.92 114.885 348.94 116.01C350.985 117.109 352.558 118.49 353.657 120.152C354.756 121.788 355.524 123.399 355.958 124.984H356.457L361.404 95.4531H377.704L364.664 173.999H348.556L350.129 164.564H349.438C348.416 166.2 347.06 167.824 345.373 169.435C343.711 171.02 341.691 172.337 339.313 173.385C336.961 174.433 334.2 174.957 331.029 174.957ZM338.239 161.956C340.847 161.956 343.2 161.24 345.296 159.808C347.393 158.351 349.157 156.318 350.589 153.71C352.021 151.102 353.018 148.047 353.58 144.544C354.168 141.041 354.181 137.999 353.619 135.416C353.056 132.834 351.957 130.839 350.32 129.433C348.71 128.027 346.575 127.324 343.916 127.324C341.231 127.324 338.853 128.053 336.782 129.51C334.737 130.967 333.036 132.987 331.681 135.57C330.352 138.152 329.406 141.143 328.843 144.544C328.281 147.97 328.242 151 328.728 153.634C329.214 156.241 330.249 158.287 331.835 159.77C333.42 161.227 335.555 161.956 338.239 161.956Z" fill="white"/>
<path d="M272.518 175.147C266.484 175.147 261.486 173.92 257.523 171.465C253.56 168.985 250.773 165.482 249.162 160.957C247.577 156.406 247.308 151.023 248.356 144.81C249.379 138.751 251.437 133.433 254.531 128.856C257.65 124.279 261.562 120.712 266.267 118.156C270.971 115.599 276.213 114.32 281.991 114.32C285.878 114.32 289.393 114.947 292.538 116.2C295.709 117.427 298.342 119.293 300.439 121.799C302.535 124.279 303.967 127.386 304.734 131.119C305.527 134.852 305.514 139.224 304.696 144.235L303.967 148.722H254.263L255.835 138.597H290.199C290.582 136.245 290.429 134.161 289.738 132.346C289.048 130.531 287.898 129.112 286.287 128.089C284.676 127.04 282.694 126.516 280.342 126.516C277.939 126.516 275.689 127.104 273.592 128.281C271.496 129.457 269.731 131.004 268.3 132.921C266.893 134.813 265.986 136.871 265.577 139.096L263.774 149.144C263.263 152.238 263.365 154.808 264.081 156.853C264.822 158.898 266.101 160.433 267.916 161.455C269.731 162.452 272.033 162.951 274.819 162.951C276.635 162.951 278.335 162.695 279.92 162.184C281.531 161.673 282.963 160.918 284.216 159.921C285.469 158.898 286.491 157.633 287.284 156.124L302.203 157.121C300.822 160.752 298.726 163.923 295.913 166.633C293.101 169.317 289.713 171.414 285.75 172.923C281.812 174.406 277.402 175.147 272.518 175.147Z" fill="white"/>
<path d="M205.457 174.003L215.275 115.094H231.115L229.389 125.372H230.002C231.69 121.716 233.953 118.955 236.791 117.088C239.654 115.196 242.735 114.25 246.034 114.25C246.852 114.25 247.708 114.301 248.603 114.403C249.524 114.48 250.342 114.608 251.058 114.787L248.603 129.322C247.887 129.067 246.865 128.862 245.535 128.709C244.231 128.53 242.991 128.44 241.815 128.44C239.437 128.44 237.226 128.964 235.18 130.013C233.135 131.036 231.409 132.467 230.002 134.308C228.622 136.149 227.714 138.271 227.279 140.675L221.795 174.003H205.457Z" fill="white"/>
<path d="M136.918 173.999L149.958 95.4531H180.946C186.878 95.4531 191.749 96.5909 195.559 98.8665C199.394 101.116 202.078 104.249 203.613 108.263C205.172 112.251 205.53 116.854 204.686 122.07C203.817 127.311 201.925 131.926 199.01 135.915C196.121 139.878 192.363 142.972 187.735 145.196C183.107 147.42 177.763 148.533 171.703 148.533H151.952L154.138 135.224H171.205C174.427 135.224 177.175 134.675 179.451 133.575C181.752 132.45 183.58 130.903 184.935 128.935C186.29 126.94 187.172 124.652 187.581 122.07C188.016 119.436 187.875 117.148 187.159 115.205C186.444 113.261 185.127 111.753 183.209 110.679C181.317 109.58 178.773 109.03 175.577 109.03H164.378L153.525 173.999H136.918Z" fill="white"/>
<path d="M975.508 87.9766L973.162 102.09H984.281L977.942 140.362H966.802L965.735 146.77L972.019 145.593L973.894 182.74L964.197 185.703C962.762 186.142 961.111 186.538 959.389 186.905L959.388 186.903C956.923 187.434 954.333 187.698 951.731 187.794C951.724 187.794 951.716 187.796 951.708 187.796L951.707 187.795C946.381 187.997 940.949 187.341 935.92 185.152L935.828 185.111C930.469 182.729 926.062 178.736 923.419 173.17C920.708 167.459 920.616 161.369 921.57 155.924L924.143 140.362H916.027L918.039 128.437C918.057 128.436 918.075 128.437 918.093 128.437C919.269 128.437 920.51 128.526 921.813 128.705C923.143 128.858 924.165 129.063 924.881 129.318L927.336 114.783C926.62 114.604 925.801 114.476 924.881 114.399C923.986 114.297 923.13 114.246 922.312 114.246C921.671 114.246 921.04 114.282 920.416 114.354L922.485 102.09H930.47L932.804 87.9766H975.508ZM943.831 100.977L941.498 115.09H933.476L931.404 127.362H939.469L934.396 158.045C933.705 161.88 933.962 165.063 935.163 167.594C936.365 170.125 938.346 172.005 941.107 173.232C943.869 174.434 947.244 174.958 951.232 174.805C953.329 174.728 955.145 174.523 956.679 174.19C958.238 173.858 959.478 173.552 960.398 173.271L959.785 161.112C959.376 161.189 958.775 161.305 957.982 161.458C957.19 161.586 956.41 161.649 955.644 161.649C954.681 161.649 953.837 161.522 953.109 161.268L952.805 161.151C952.038 160.819 951.489 160.243 951.156 159.425C950.866 158.687 950.8 157.694 950.959 156.447L951.041 155.896L955.783 127.362H966.919L968.951 115.09H957.823L960.169 100.977H943.831Z" fill="black"/>
<path d="M922.313 101.25C923.577 101.25 924.835 101.326 926.081 101.459C927.5 101.582 928.991 101.8 930.49 102.175L942.159 105.092L940.47 115.094H933.478L933.357 115.803L927.338 114.787C926.622 114.608 925.803 114.48 924.883 114.403C923.988 114.301 923.132 114.25 922.313 114.25C919.015 114.25 915.934 115.196 913.07 117.088C910.232 118.954 907.97 121.716 906.282 125.372H905.669L907.395 115.094H891.555L881.737 174.003H898.075L903.56 140.675C903.994 138.272 904.902 136.149 906.282 134.309C907.688 132.468 909.415 131.035 911.46 130.013C913.505 128.964 915.717 128.44 918.095 128.44C919.271 128.44 920.511 128.53 921.815 128.709C923.145 128.862 924.167 129.067 924.883 129.322L927.338 114.787L933.357 115.803L931.406 127.366H938.397L935.119 146.782L920.891 141.7C920.864 141.696 920.833 141.691 920.799 141.686C920.677 141.667 920.521 141.646 920.325 141.623L920.186 141.607L920.047 141.588C919.261 141.48 918.615 141.44 918.095 141.44C917.705 141.44 917.535 141.507 917.389 141.582L917.273 141.641C917.036 141.759 916.856 141.896 916.65 142.154C916.563 142.281 916.447 142.494 916.361 142.938L909.11 187.003H866.391L870.715 161.057C870.772 160.974 870.833 160.893 870.89 160.81C873.983 156.284 876.028 151.017 877.025 145.009C878.023 138.898 877.716 133.542 876.105 128.939C876.097 128.915 876.088 128.891 876.079 128.867L880.542 102.094H915.301C917.562 101.538 919.905 101.25 922.313 101.25Z" fill="black"/>
<path d="M852.9 101.328C860.735 101.328 868.348 103.028 874.91 107.331C881.334 111.518 885.857 117.458 888.373 124.646C888.768 125.773 889.106 126.914 889.391 128.065L886.314 146.525L877.023 145.01C877.989 139.09 877.731 133.878 876.25 129.374L876.104 128.94C874.493 124.338 871.718 120.758 867.78 118.201C863.843 115.619 858.883 114.328 852.9 114.328C846.969 114.328 841.637 115.594 836.907 118.125L836.466 118.362C831.934 120.851 828.182 124.288 825.21 128.672L824.925 129.098C822.016 133.527 820.092 138.665 819.15 144.511C818.153 150.622 818.447 155.979 820.032 160.581C821.643 165.158 824.417 168.737 828.354 171.319C832.292 173.876 837.265 175.154 843.273 175.154C849.18 175.154 854.485 173.901 859.189 171.396C863.6 169.022 867.303 165.773 870.298 161.647L870.888 160.811C873.981 156.285 876.026 151.018 877.023 145.01L886.31 146.55L883.093 165.853C882.624 166.629 882.134 167.395 881.619 168.147C877.384 174.343 871.934 179.301 865.35 182.844L865.325 182.857L865.301 182.87C858.518 186.482 851.076 188.154 843.273 188.154C835.449 188.154 827.837 186.484 821.274 182.223L821.226 182.189C814.828 177.994 810.296 172.074 807.77 164.896L807.755 164.855L807.741 164.814C807.214 163.283 806.789 161.728 806.461 160.154C808.982 155.842 810.738 150.667 811.726 144.626C812.851 137.876 812.684 132.263 811.227 127.789C811.169 127.608 811.106 127.43 811.046 127.252C812.039 125.223 813.171 123.261 814.449 121.376C818.683 115.131 824.172 110.159 830.821 106.637C837.619 103.01 845.077 101.328 852.9 101.328ZM851.251 126.792C853.936 126.792 856.045 127.56 857.579 129.094C859.139 130.628 860.162 132.724 860.647 135.383C861.133 138.016 861.095 141.034 860.532 144.435L860.422 145.077C859.844 148.271 858.883 151.151 857.541 153.716C856.135 156.426 854.358 158.574 852.21 160.159L851.808 160.442C849.781 161.813 847.473 162.498 844.885 162.498C842.2 162.498 840.077 161.744 838.518 160.235C836.958 158.701 835.949 156.618 835.488 153.984C835.028 151.325 835.067 148.308 835.604 144.933C836.131 141.673 837.029 138.739 838.298 136.131L838.557 135.613C839.963 132.878 841.74 130.73 843.888 129.17C846.035 127.585 848.49 126.792 851.251 126.792ZM886.314 146.525L886.31 146.55L877.023 145.01L886.314 146.525Z" fill="black"/>
<path d="M792.934 101.328C799.616 101.328 806.025 103.107 811.633 107.005C811.641 107.011 811.651 107.017 811.659 107.022C811.67 107.03 811.681 107.037 811.691 107.045C817.708 111.22 821.504 117.208 823.616 123.848C824.174 125.576 824.593 127.348 824.89 129.152C822.001 133.57 820.088 138.689 819.15 144.511C818.153 150.622 818.447 155.979 820.032 160.581C820.134 160.871 820.242 161.158 820.354 161.44C819.321 163.821 818.121 166.102 816.739 168.267L816.738 168.266C812.925 174.253 808.05 179.242 801.984 182.758L801.973 182.765L801.962 182.771C796.058 186.178 789.594 187.963 782.771 187.963C780.767 187.963 778.699 187.816 776.628 187.454L773.048 209.095H730.285L737.77 164.438C739.578 162.254 740.995 159.818 742.018 157.129L739.028 156.929L740.403 148.729H743.782L744.511 144.242C745.329 139.231 745.341 134.859 744.549 131.126C744.35 130.16 744.106 129.237 743.818 128.354L748.22 102.095H785.354C787.857 101.563 790.401 101.328 792.934 101.328ZM792.934 114.328C789.661 114.328 786.81 114.891 784.381 116.016C781.952 117.115 779.919 118.495 778.283 120.157C776.673 121.793 775.382 123.404 774.41 124.989H773.681L775.33 115.095H759.223L745.646 196.095H762.021L767.238 164.569H767.852C768.312 166.206 769.105 167.83 770.229 169.44C771.354 171.025 772.927 172.342 774.946 173.391C776.864 174.373 779.276 174.896 782.183 174.957L782.771 174.963C787.245 174.963 791.476 173.812 795.465 171.511C799.479 169.184 802.919 165.771 805.782 161.271C808.671 156.745 810.652 151.197 811.726 144.626C812.851 137.876 812.684 132.263 811.227 127.789C809.839 123.43 807.614 120.139 804.547 117.915L804.248 117.703C801.228 115.594 797.724 114.473 793.737 114.341L792.934 114.328ZM785.493 127.329C788.203 127.329 790.351 128.058 791.937 129.516C793.522 130.973 794.571 132.993 795.082 135.575C795.593 138.158 795.58 141.149 795.043 144.55C794.455 147.976 793.47 151.005 792.09 153.639C790.709 156.247 788.983 158.292 786.912 159.775L786.521 160.04C784.545 161.321 782.31 161.961 779.817 161.961C777.184 161.961 775.062 161.245 773.451 159.813C771.84 158.356 770.766 156.324 770.229 153.716C769.75 151.271 769.743 148.433 770.207 145.201L770.306 144.55C770.868 141.047 771.84 138.004 773.221 135.422C774.601 132.839 776.327 130.845 778.398 129.438C780.495 128.032 782.86 127.329 785.493 127.329Z" fill="black"/>
<path d="M721.803 101.328C727.053 101.328 732.192 102.171 737.042 104.084C737.052 104.088 737.063 104.092 737.072 104.096C737.102 104.107 737.132 104.118 737.161 104.13C742.247 106.12 746.682 109.235 750.221 113.464C753.741 117.645 755.931 122.534 757.105 127.709L750.073 169.658C748.539 171.939 746.762 174.058 744.746 176.001L744.701 176.044C740.526 180.029 735.621 183.012 730.187 185.08L730.144 185.096C724.527 187.211 718.531 188.154 712.33 188.154C704.578 188.154 697.032 186.576 690.489 182.524L690.464 182.509L690.439 182.492C683.92 178.412 679.291 172.526 676.727 165.323L676.712 165.282L676.697 165.24C674.205 158.084 674.046 150.382 675.35 142.654C675.672 140.744 676.08 138.871 676.576 137.036C677.349 136.251 678.074 135.42 678.749 134.539C681.638 130.806 683.518 126.332 684.387 121.116C684.434 120.823 684.477 120.533 684.517 120.244C688.617 114.621 693.751 110.067 699.871 106.741C706.63 103.068 714.033 101.328 721.803 101.328ZM721.803 114.328C716.025 114.328 710.784 115.606 706.079 118.163C701.375 120.72 697.462 124.287 694.343 128.863C691.249 133.44 689.191 138.758 688.168 144.817C687.12 151.03 687.389 156.413 688.974 160.964C690.585 165.489 693.371 168.993 697.334 171.473C701.297 173.927 706.296 175.154 712.33 175.154C717.214 175.154 721.624 174.413 725.562 172.93C729.525 171.421 732.912 169.325 735.725 166.641C738.537 163.93 740.634 160.76 742.015 157.129L727.096 156.132C726.303 157.64 725.28 158.906 724.028 159.929C722.775 160.926 721.343 161.68 719.733 162.191C718.147 162.703 716.446 162.958 714.631 162.958C711.844 162.958 709.543 162.46 707.728 161.463C705.912 160.44 704.634 158.906 703.893 156.86C703.177 154.815 703.075 152.245 703.586 149.151L703.662 148.729H743.779L744.508 144.242C745.326 139.231 745.339 134.859 744.546 131.126C743.827 127.626 742.523 124.678 740.636 122.279L740.251 121.807C738.155 119.301 735.52 117.434 732.35 116.207C729.205 114.954 725.689 114.328 721.803 114.328ZM720.154 126.523C722.507 126.523 724.488 127.048 726.099 128.097C727.71 129.119 728.861 130.538 729.551 132.354C730.241 134.169 730.394 136.252 730.011 138.604H705.49C705.938 136.571 706.811 134.678 708.112 132.929C709.543 131.011 711.308 129.464 713.404 128.288C715.501 127.112 717.751 126.523 720.154 126.523Z" fill="black"/>
<path d="M660.497 82.4531L660.497 95.4531H629.509L616.469 173.999H633.075L637.728 146.155H649.799L660.075 173.999H678.408L666.785 143.485C667.044 143.381 667.3 143.274 667.554 143.163C672.156 141.143 675.889 138.267 678.753 134.534C681.462 131.034 683.283 126.883 684.216 122.08L684.391 121.111C685.234 115.895 684.864 111.369 683.278 107.534C681.768 103.794 679.177 100.882 675.507 98.7979L675.148 98.598C671.313 96.5014 666.429 95.4531 660.497 95.4531L660.497 82.4531C667.851 82.4531 675.05 83.7387 681.351 87.1738C681.356 87.1767 681.363 87.1797 681.368 87.1826C681.373 87.1855 681.379 87.1885 681.384 87.1914C687.693 90.6259 692.534 95.8065 695.292 102.568C698.018 109.162 698.349 116.236 697.225 123.188L697.219 123.218L697.214 123.248C697.074 124.086 696.912 124.916 696.731 125.737C695.891 126.72 695.096 127.76 694.347 128.858C691.531 133.023 689.577 137.803 688.477 143.196C686.759 145.328 684.855 147.248 682.781 148.958L697.271 186.999H651.017L646.243 174.067L644.084 186.999H601.133L610.848 128.479C611.585 128.522 612.345 128.598 613.129 128.705C614.458 128.858 615.481 129.063 616.197 129.318L618.651 114.783C617.936 114.604 617.118 114.476 616.197 114.399C615.303 114.297 614.446 114.246 613.628 114.246C613.488 114.246 613.348 114.25 613.209 114.253L618.489 82.4531H660.497ZM655.128 109.03C658.298 109.03 660.855 109.503 662.798 110.449L663.156 110.627C664.907 111.541 666.13 112.836 666.825 114.514C667.567 116.278 667.72 118.477 667.286 121.111L667.204 121.591C666.767 123.962 665.924 125.962 664.678 127.592C663.374 129.331 661.597 130.635 659.347 131.504C657.097 132.374 654.386 132.808 651.216 132.808L639.957 132.809L643.929 109.03H655.128Z" fill="black"/>
<path d="M613.626 101.25C614.889 101.25 616.147 101.326 617.393 101.459C618.811 101.582 620.303 101.8 621.803 102.175L628.129 103.756L621.29 144.946L612.203 141.7C612.176 141.696 612.146 141.691 612.111 141.686C611.99 141.667 611.832 141.646 611.637 141.623L611.498 141.607L611.359 141.588C610.573 141.48 609.927 141.44 609.407 141.44C609.018 141.44 608.847 141.507 608.701 141.582L608.586 141.641C608.348 141.759 608.168 141.896 607.962 142.154C607.874 142.281 607.759 142.494 607.674 142.938L600.423 187.003H557.703L562.026 161.057C562.084 160.974 562.144 160.893 562.201 160.81C565.295 156.284 567.341 151.017 568.338 145.009C569.335 138.898 569.028 133.542 567.417 128.939C567.409 128.916 567.4 128.893 567.392 128.869L571.854 102.094H606.612C608.874 101.537 611.218 101.25 613.626 101.25ZM613.626 114.25C610.328 114.25 607.246 115.196 604.383 117.088C601.545 118.954 599.282 121.716 597.595 125.372H596.98L598.707 115.094H582.867L573.049 174.003H589.387L594.871 140.675C595.306 138.271 596.214 136.15 597.595 134.309C599.001 132.468 600.726 131.035 602.771 130.013C604.817 128.964 607.029 128.44 609.407 128.44C610.583 128.44 611.823 128.53 613.127 128.709C614.456 128.862 615.479 129.067 616.195 129.322L618.649 114.787C617.934 114.608 617.116 114.48 616.195 114.403C615.301 114.301 614.444 114.25 613.626 114.25Z" fill="black"/>
<path d="M568.338 145.01L577.624 146.55L574.407 165.853C573.939 166.629 573.448 167.395 572.934 168.147C568.699 174.343 563.248 179.301 556.663 182.844L556.64 182.857L556.615 182.87C549.833 186.482 542.391 188.154 534.588 188.154C526.764 188.154 519.151 186.484 512.589 182.223L512.565 182.206L512.539 182.189C506.791 178.419 502.549 173.257 499.915 167.041L499.794 164.646L511.347 160.581C512.958 165.158 515.732 168.737 519.669 171.319C523.607 173.876 528.58 175.154 534.588 175.154C540.494 175.154 545.8 173.901 550.504 171.396C555.209 168.864 559.108 165.336 562.201 160.811C565.295 156.285 567.341 151.018 568.338 145.01ZM499.794 164.646L499.79 164.561L511.347 160.581L499.794 164.646ZM544.214 101.328C552.048 101.328 559.663 103.028 566.225 107.331C572.649 111.518 577.172 117.458 579.688 124.646C580.082 125.773 580.42 126.914 580.705 128.065L577.624 146.55L568.338 145.01C569.304 139.09 569.046 133.878 567.565 129.374L567.417 128.94C565.806 124.338 563.032 120.758 559.095 118.201C555.157 115.619 550.197 114.328 544.214 114.328C538.282 114.328 532.952 115.594 528.222 118.125L527.781 118.362C523.248 120.851 519.496 124.288 516.524 128.672L516.24 129.098C513.331 133.527 511.405 138.665 510.464 144.511C509.467 150.622 509.762 155.979 511.347 160.581L499.79 164.561L499.616 161.117C499.251 161.186 498.731 161.285 498.059 161.415C496.571 155.299 496.58 148.877 497.634 142.417C498.493 137.095 500.029 132.05 502.305 127.367H506.75L508.308 117.961C512.122 113.297 516.748 109.491 522.136 106.637C528.933 103.01 536.391 101.328 544.214 101.328ZM542.566 126.792C545.25 126.792 547.36 127.56 548.894 129.094C550.453 130.628 551.475 132.724 551.961 135.383C552.447 138.016 552.409 141.034 551.847 144.435L551.736 145.077C551.157 148.271 550.197 151.151 548.855 153.716C547.449 156.426 545.671 158.574 543.524 160.159L543.122 160.442C541.095 161.813 538.787 162.498 536.198 162.498C533.514 162.498 531.392 161.744 529.832 160.235C528.273 158.701 527.262 156.618 526.802 153.984C526.342 151.325 526.38 148.308 526.917 144.933C527.48 141.455 528.464 138.349 529.87 135.613C531.277 132.878 533.054 130.73 535.201 129.17C537.349 127.585 539.804 126.792 542.566 126.792Z" fill="black"/>
<path d="M515.34 87.9766L512.994 102.09H524.114L520.516 123.811C519.058 125.274 517.727 126.893 516.524 128.667C514.18 132.125 512.45 136.024 511.33 140.362H506.634L505.567 146.77L510.261 145.891C509.521 151.429 509.883 156.325 511.348 160.576C511.749 161.718 512.223 162.797 512.77 163.814L513.726 182.74L504.03 185.703C502.595 186.142 500.943 186.538 499.221 186.905L499.22 186.903C496.755 187.434 494.165 187.698 491.563 187.794L491.564 187.795C491.562 187.795 491.559 187.795 491.557 187.795C491.551 187.795 491.545 187.796 491.54 187.796L491.539 187.795C486.214 187.997 480.782 187.341 475.753 185.152L475.706 185.132L475.66 185.111C470.301 182.729 465.895 178.736 463.252 173.17C460.541 167.459 460.448 161.369 461.402 155.924L463.975 140.362H455.859L456.448 136.874H464.388C464.925 132.323 464.362 128.359 462.7 124.984C461.818 123.193 460.668 121.617 459.253 120.251L462.317 102.09H470.302L472.636 87.9766H515.34ZM483.663 100.977L481.33 115.09H473.308L471.237 127.362H479.301L474.229 158.045C473.538 161.88 473.794 165.063 474.995 167.594C476.197 170.125 478.179 172.005 480.94 173.232C483.702 174.434 487.077 174.958 491.065 174.805C493.162 174.728 494.977 174.523 496.511 174.19C498.07 173.858 499.311 173.552 500.231 173.271L499.617 161.112C499.208 161.189 498.608 161.305 497.815 161.458C497.023 161.586 496.243 161.649 495.476 161.649C494.513 161.649 493.669 161.522 492.941 161.268L492.638 161.151C491.871 160.819 491.321 160.243 490.988 159.425C490.656 158.581 490.617 157.405 490.873 155.896L495.615 127.362H506.751L508.784 115.09H497.655L500.001 100.977H483.663Z" fill="black"/>
<path d="M441.836 101.328C448.507 101.328 455.053 102.537 460.921 105.618C465.922 108.245 470.071 111.986 473.019 116.806L471.237 127.367H477.028C477.691 131.001 477.733 134.716 477.298 138.402L477.179 139.411H477.31L474.965 153.592L474.56 155.345C473.093 161.678 470.355 167.468 466.272 172.496L466.271 172.495C462.23 177.504 457.18 181.365 451.325 184.075C445.235 186.895 438.637 188.154 431.788 188.154C423.942 188.154 416.29 186.496 409.719 182.201L409.677 182.174L409.636 182.146C403.27 177.916 398.805 171.96 396.356 164.774L396.346 164.743L396.336 164.712C395.977 163.641 395.668 162.559 395.406 161.468L401.644 124.043C402.137 123.213 402.657 122.396 403.203 121.593C407.444 115.328 412.93 110.322 419.572 106.751C426.424 103.055 433.943 101.328 441.836 101.328ZM441.836 114.328C435.879 114.328 430.51 115.619 425.729 118.201L425.285 118.444C420.728 120.982 416.951 124.468 413.954 128.901C410.86 133.452 408.828 138.745 407.856 144.779C406.859 150.737 407.128 156.004 408.662 160.581C410.222 165.158 412.945 168.737 416.831 171.319C420.743 173.876 425.729 175.154 431.788 175.154C437.029 175.154 441.721 174.196 445.863 172.278C450.005 170.361 453.444 167.701 456.18 164.301C458.941 160.9 460.846 156.937 461.895 152.411H446.477C445.812 154.482 444.866 156.259 443.639 157.742C442.411 159.2 440.98 160.312 439.344 161.079C437.733 161.846 435.981 162.229 434.089 162.229C431.716 162.229 429.725 161.623 428.116 160.409L427.8 160.159C426.242 158.865 425.155 157.019 424.541 154.624L424.425 154.138C423.837 151.504 423.849 148.308 424.463 144.55C425.051 140.842 426.074 137.684 427.531 135.076C428.922 132.631 430.593 130.737 432.545 129.394L432.938 129.132C435.086 127.751 437.438 127.061 439.995 127.061C442.961 127.061 445.211 127.969 446.745 129.784C448.279 131.6 449.033 133.964 449.008 136.879H464.388C464.925 132.328 464.362 128.364 462.7 124.989C461.142 121.825 458.752 119.324 455.531 117.486L454.876 117.128C451.322 115.261 446.975 114.328 441.836 114.328Z" fill="black"/>
<path d="M398.533 77.9297C404.125 77.9297 409.601 79.9198 413.818 84.3057C413.83 84.3175 413.842 84.3299 413.854 84.3418C413.866 84.3549 413.879 84.3677 413.892 84.3809C418.218 88.8947 419.972 94.7111 419.316 100.611L419.314 100.627L419.312 100.644C419.068 102.798 418.517 104.81 417.719 106.668L414.032 128.785C414.006 128.823 413.98 128.86 413.954 128.898C410.86 133.45 408.828 138.742 407.856 144.776C406.859 150.734 407.128 156.001 408.662 160.578C408.678 160.624 408.694 160.671 408.71 160.717L404.33 187.001H361.633L363.8 174.001H364.665L377.704 95.4551H376.181C377.271 90.5794 379.949 86.4782 383.651 83.3916C387.832 79.88 392.944 77.9297 398.533 77.9297ZM386.798 115.092L376.979 174.001H393.317L403.136 115.092H386.798ZM398.533 90.9297C396.104 90.9297 393.931 91.7351 392.014 93.3457C390.096 94.9309 388.996 96.8746 388.715 99.1758C388.434 101.426 389.073 103.369 390.633 105.005C392.218 106.616 394.225 107.422 396.654 107.422C399.083 107.422 401.244 106.616 403.136 105.005C404.933 103.471 406.001 101.667 406.338 99.5938L406.396 99.1758C406.651 96.8746 406.012 94.9309 404.478 93.3457C402.943 91.7352 400.962 90.9297 398.533 90.9297Z" fill="black"/>
<path d="M393.039 82.4531L391.088 94.2012C389.737 95.6142 388.945 97.2717 388.713 99.1738C388.511 100.792 388.787 102.249 389.536 103.55L387.621 115.09H386.796L376.978 173.999H377.841L375.683 186.999H339.463C336.683 187.67 333.846 187.958 331.028 187.958C324.202 187.958 317.616 186.17 311.891 182.113L311.843 182.079L311.796 182.045C305.877 177.77 302.128 171.77 300.075 165.079L300.05 164.995C299.804 164.175 299.589 163.346 299.4 162.509C300.535 160.843 301.471 159.049 302.203 157.124L298.547 156.879C298.324 154.208 298.336 151.482 298.538 148.725H303.967L304.695 144.237C305.514 139.226 305.527 134.854 304.734 131.121C304.463 129.8 304.106 128.559 303.668 127.395C304.706 125.05 305.906 122.808 307.287 120.688C311.14 114.748 316.043 109.793 322.148 106.375C327.965 103.094 334.306 101.323 340.999 101.323C342.993 101.323 345.068 101.468 347.151 101.837L350.4 82.4531H393.039ZM361.404 95.4531L356.455 124.984H355.957C355.522 123.399 354.755 121.789 353.655 120.152C352.556 118.491 350.984 117.11 348.939 116.011C347.045 114.956 344.6 114.395 341.606 114.329L340.999 114.323C336.678 114.323 332.524 115.448 328.535 117.698L327.793 118.128C324.117 120.347 320.912 123.566 318.18 127.784C315.265 132.259 313.245 137.871 312.12 144.621C311.021 151.192 311.149 156.74 312.504 161.266C313.885 165.766 316.186 169.179 319.407 171.506C322.452 173.663 326.046 174.809 330.191 174.944L331.029 174.957C334.199 174.957 336.96 174.434 339.312 173.386C341.689 172.337 343.71 171.021 345.372 169.436C347.06 167.825 348.414 166.201 349.437 164.564H350.127L348.555 173.999H364.663L377.702 95.4531H361.404ZM343.914 127.324C346.573 127.324 348.709 128.027 350.319 129.434C351.956 130.84 353.055 132.835 353.617 135.417C354.18 137.999 354.167 141.042 353.579 144.545L353.469 145.196C352.891 148.428 351.93 151.266 350.588 153.711C349.156 156.319 347.392 158.351 345.295 159.809C343.198 161.24 340.846 161.956 338.238 161.956C335.721 161.956 333.687 161.316 332.137 160.035L331.833 159.771C330.248 158.288 329.212 156.242 328.727 153.634C328.241 151 328.279 147.971 328.842 144.545C329.404 141.144 330.35 138.153 331.68 135.57C333.035 132.988 334.735 130.968 336.78 129.511C338.851 128.053 341.23 127.324 343.914 127.324Z" fill="black"/>
<path d="M281.991 101.328C287.241 101.328 292.38 102.171 297.23 104.084C297.239 104.088 297.25 104.092 297.26 104.096C297.289 104.107 297.319 104.118 297.349 104.13C302.434 106.12 306.87 109.235 310.408 113.464C314.09 117.838 316.32 122.985 317.449 128.426C317.478 128.559 317.506 128.693 317.532 128.827C314.964 133.122 313.16 138.388 312.12 144.626C311.021 151.197 311.149 156.745 312.504 161.271C312.786 162.189 313.106 163.063 313.465 163.891C311.421 168.446 308.56 172.507 304.934 176.001L304.889 176.044C300.714 180.029 295.808 183.012 290.374 185.08L290.331 185.096C284.714 187.211 278.719 188.154 272.518 188.154C264.765 188.154 257.219 186.576 250.677 182.524L250.652 182.509L250.626 182.492C244.107 178.412 239.478 172.526 236.914 165.323L236.9 165.282L236.885 165.24C234.392 158.084 234.233 150.382 235.537 142.654C236.374 137.696 237.787 132.979 239.824 128.569C240.474 128.484 241.137 128.441 241.814 128.441C242.99 128.441 244.23 128.531 245.534 128.71C246.863 128.863 247.886 129.068 248.602 129.323L251.057 114.788C250.614 114.677 250.131 114.588 249.61 114.517C252.687 111.457 256.175 108.852 260.059 106.741C266.818 103.068 274.221 101.328 281.991 101.328ZM281.991 114.328C276.213 114.328 270.971 115.606 266.267 118.163C261.562 120.72 257.651 124.287 254.531 128.863C251.438 133.44 249.379 138.758 248.357 144.817C247.308 151.03 247.576 156.413 249.161 160.964C250.772 165.489 253.56 168.993 257.523 171.473C261.486 173.927 266.484 175.154 272.518 175.154C277.401 175.154 281.813 174.413 285.75 172.93C289.713 171.421 293.101 169.325 295.913 166.641C298.726 163.93 300.823 160.76 302.203 157.129L287.283 156.132C286.491 157.64 285.469 158.906 284.216 159.929C282.963 160.926 281.531 161.68 279.92 162.191C278.335 162.703 276.635 162.958 274.82 162.958C272.033 162.958 269.731 162.46 267.916 161.463C266.101 160.44 264.822 158.906 264.08 156.86C263.364 154.815 263.262 152.245 263.774 149.151L263.85 148.729H303.967L304.695 144.242C305.514 139.231 305.527 134.859 304.735 131.126C304.016 127.627 302.712 124.678 300.824 122.279L300.439 121.807C298.342 119.301 295.709 117.434 292.538 116.207C289.393 114.954 285.878 114.328 281.991 114.328ZM280.342 126.523C282.694 126.523 284.676 127.048 286.286 128.097C287.897 129.119 289.048 130.538 289.738 132.354C290.429 134.169 290.582 136.252 290.198 138.604H265.679C266.127 136.571 266.999 134.678 268.299 132.929C269.731 131.011 271.495 129.464 273.592 128.288C275.689 127.112 277.939 126.523 280.342 126.523Z" fill="black"/>
<path d="M246.032 101.25C247.296 101.25 248.554 101.326 249.8 101.459C251.218 101.582 252.71 101.8 254.209 102.175L265.878 105.092L263.371 119.932C259.933 122.283 256.987 125.261 254.531 128.863C251.725 133.015 249.772 137.778 248.67 143.15L244.609 141.7C244.582 141.696 244.552 141.691 244.518 141.686C244.396 141.667 244.239 141.646 244.044 141.623L243.904 141.607L243.766 141.588C242.98 141.48 242.333 141.44 241.813 141.44C241.424 141.44 241.253 141.507 241.107 141.582L240.992 141.641C240.755 141.759 240.575 141.896 240.369 142.154C240.281 142.281 240.166 142.494 240.08 142.938L232.829 187.003H190.109L198.514 136.576C198.681 136.36 198.847 136.141 199.009 135.919C201.924 131.93 203.816 127.316 204.686 122.074C205.529 116.858 205.171 112.256 203.611 108.268C203.525 108.043 203.435 107.821 203.342 107.602L204.261 102.094H239.02C241.281 101.538 243.624 101.25 246.032 101.25ZM246.032 114.25C242.734 114.25 239.653 115.196 236.789 117.088C233.951 118.954 231.688 121.716 230.001 125.372H229.388L231.113 115.094H215.273L205.457 174.003L221.794 174.003L227.278 140.675C227.713 138.272 228.62 136.149 230.001 134.309C231.407 132.468 233.133 131.035 235.179 130.013C237.224 128.964 239.436 128.441 241.814 128.441C242.99 128.441 244.23 128.531 245.534 128.71C246.863 128.863 247.886 129.068 248.602 129.323L251.057 114.788C250.341 114.609 249.522 114.48 248.602 114.403C247.707 114.301 246.85 114.25 246.032 114.25Z" fill="black"/>
<path d="M180.947 82.4531L180.946 95.4531H149.958L136.919 173.999L153.525 173.999L157.779 148.533L171.703 148.533L172.832 148.521C178.429 148.39 183.396 147.281 187.735 145.196C192.363 142.972 196.121 139.878 199.01 135.915C201.925 131.926 203.818 127.312 204.688 122.07L213.858 123.591L210.852 141.634C210.425 142.29 209.98 142.936 209.515 143.572L209.516 143.573C205.302 149.353 199.835 153.804 193.367 156.913C186.693 160.121 179.365 161.533 171.704 161.533H168.788L164.533 186.999H121.582L138.938 82.4531H180.947ZM175.578 109.03C178.774 109.03 181.318 109.58 183.21 110.68C185.127 111.754 186.444 113.261 187.159 115.205C187.875 117.148 188.017 119.437 187.582 122.07L187.5 122.551C187.061 124.937 186.206 127.066 184.936 128.936L184.676 129.299C183.35 131.095 181.609 132.521 179.451 133.576L179.02 133.775C176.831 134.742 174.225 135.224 171.205 135.224L160.003 135.225L164.378 109.03L175.578 109.03ZM180.947 82.4531C188.426 82.4532 195.763 83.8745 202.137 87.6543C202.148 87.6612 202.161 87.6679 202.173 87.6748C202.19 87.6852 202.208 87.6956 202.226 87.7061C208.441 91.3766 213.098 96.7302 215.72 103.529C215.732 103.56 215.745 103.591 215.757 103.622C217.198 107.339 217.931 111.19 218.095 115.09H215.275L213.858 123.591L204.688 122.07C205.505 117.017 205.194 112.54 203.756 108.639L203.613 108.264C202.127 104.375 199.561 101.313 195.915 99.0801L195.56 98.8672C191.988 96.7339 187.484 95.6001 182.047 95.4668L180.946 95.4531L180.947 82.4531Z" fill="black"/>
</g>
<defs>
<filter id="filter0_d_4672_2690" x="0" y="0" width="1004.28" height="250" filterUnits="userSpaceOnUse" color-interpolation-filters="sRGB">
<feFlood flood-opacity="0" result="BackgroundImageFix"/>
<feColorMatrix in="SourceAlpha" type="matrix" values="0 0 0 0 0 0 0 0 0 0 0 0 0 0 0 0 0 0 127 0" result="hardAlpha"/>
<feOffset dx="16" dy="16"/>
<feGaussianBlur stdDeviation="2"/>
<feComposite in2="hardAlpha" operator="out"/>
<feColorMatrix type="matrix" values="0 0 0 0 0 0 0 0 0 0 0 0 0 0 0 0 0 0 0.25 0"/>
<feBlend mode="normal" in2="BackgroundImageFix" result="effect1_dropShadow_4672_2690"/>
<feBlend mode="normal" in="SourceGraphic" in2="effect1_dropShadow_4672_2690" result="shape"/>
</filter>
</defs>
</svg>
